<?xml version="1.0" encoding="UTF-8" standalone="no"?>
<!-- Created with Inkscape (http://www.inkscape.org/) -->

<svg
   xmlns:dc="http://purl.org/dc/elements/1.1/"
   xmlns:cc="http://creativecommons.org/ns#"
   xmlns:rdf="http://www.w3.org/1999/02/22-rdf-syntax-ns#"
   xmlns:svg="http://www.w3.org/2000/svg"
   xmlns="http://www.w3.org/2000/svg"
   xmlns:sodipodi="http://sodipodi.sourceforge.net/DTD/sodipodi-0.dtd"
   xmlns:inkscape="http://www.inkscape.org/namespaces/inkscape"
   width="214"
   height="183"
   viewBox="0 0 56.620828 48.418757"
   version="1.1"
   id="svg3506"
   inkscape:version="0.92.2 (5c3e80d, 2017-08-06)"
   sodipodi:docname="chiffres-cles.svg">
  <defs
     id="defs3500">
    <clipPath
       clipPathUnits="userSpaceOnUse"
       id="clipPath8806">
      <path
         d="m 217.174,529.313 h 7.516 v -7.393 h -7.516 z"
         id="path8804"
         inkscape:connector-curvature="0" />
    </clipPath>
    <clipPath
       clipPathUnits="userSpaceOnUse"
       id="clipPath8822">
      <path
         d="m 193.378,530.029 h 7.516 v -7.393 h -7.516 z"
         id="path8820"
         inkscape:connector-curvature="0" />
    </clipPath>
    <clipPath
       clipPathUnits="userSpaceOnUse"
       id="clipPath8838">
      <path
         d="m 239.785,536.821 h 7.516 v -7.393 h -7.516 z"
         id="path8836"
         inkscape:connector-curvature="0" />
    </clipPath>
    <clipPath
       clipPathUnits="userSpaceOnUse"
       id="clipPath8586">
      <path
         d="m 376.612,193.18 h 17.074 v -17.075 h -17.074 z"
         id="path8584"
         inkscape:connector-curvature="0" />
    </clipPath>
    <clipPath
       clipPathUnits="userSpaceOnUse"
       id="clipPath8702">
      <path
         d="m 792.929,209.492 h 8.097 v -7.964 h -8.097 z"
         id="path8700"
         inkscape:connector-curvature="0" />
    </clipPath>
    <clipPath
       clipPathUnits="userSpaceOnUse"
       id="clipPath8686">
      <path
         d="m 742.939,202.176 h 8.097 v -7.964 h -8.097 z"
         id="path8684"
         inkscape:connector-curvature="0" />
    </clipPath>
    <clipPath
       clipPathUnits="userSpaceOnUse"
       id="clipPath8670">
      <path
         d="m 768.573,201.405 h 8.096 v -7.964 h -8.096 z"
         id="path8668"
         inkscape:connector-curvature="0" />
    </clipPath>
    <clipPath
       clipPathUnits="userSpaceOnUse"
       id="clipPath8390">
      <path
         d="M 88.1177,87.0158 H 100.08 V 75.0535 H 88.1177 Z"
         id="path8388"
         inkscape:connector-curvature="0" />
    </clipPath>
    <clipPath
       clipPathUnits="userSpaceOnUse"
       id="clipPath8374">
      <path
         d="M 67.5484,86.7241 H 79.5107 V 74.7618 H 67.5484 Z"
         id="path8372"
         inkscape:connector-curvature="0" />
    </clipPath>
    <clipPath
       clipPathUnits="userSpaceOnUse"
       id="clipPath8358">
      <path
         d="M 46.8331,86.8699 H 58.7954 V 74.9076 H 46.8331 Z"
         id="path8356"
         inkscape:connector-curvature="0" />
    </clipPath>
  </defs>
  <sodipodi:namedview
     id="base"
     pagecolor="#ffffff"
     bordercolor="#666666"
     borderopacity="1.0"
     inkscape:pageopacity="0.0"
     inkscape:pageshadow="2"
     inkscape:zoom="1.4"
     inkscape:cx="-167.2542"
     inkscape:cy="176.14832"
     inkscape:document-units="mm"
     inkscape:current-layer="g1430"
     showgrid="false"
     units="px"
     inkscape:window-width="1920"
     inkscape:window-height="986"
     inkscape:window-x="1909"
     inkscape:window-y="378"
     inkscape:window-maximized="1" />
  <metadata
     id="metadata3503">
    <rdf:RDF>
      <cc:Work
         rdf:about="">
        <dc:format>image/svg+xml</dc:format>
        <dc:type
           rdf:resource="http://purl.org/dc/dcmitype/StillImage" />
        <dc:title />
      </cc:Work>
    </rdf:RDF>
  </metadata>
  <g
     inkscape:label="Calque 1"
     inkscape:groupmode="layer"
     id="layer1"
     transform="translate(0,-248.58118)">
    <g
       transform="matrix(1.4534591,0,0,1.6474013,-713.49786,145.59699)"
       id="g1430">
      <g
         transform="matrix(0.28365515,0,0,-0.28365515,403.97712,115.90433)"
         id="g11443"
         style="fill:#0094ab;fill-opacity:0.54901963">
        <path
           id="path11321"
           style="fill:#0094ab;fill-opacity:0.54901963;stroke-width:0.26392099"
           d="m 311.93634,186.72668 c -2.33306,0 -4.22314,-1.88862 -4.22314,-4.22168 V 93.826289 c 0,-4.663485 3.7828,-8.44482 8.44629,-8.444828 h 122.45947 c 2.33306,0 4.22168,1.89009 4.22168,4.223146 v 4.221682 c 0,2.333063 -1.88862,4.223145 -4.22168,4.223145 H 320.38116 V 182.505 c 0,2.33306 -1.88862,4.22168 -4.22167,4.22168 z m 100.03418,-44.05224 c -0.008,-0.007 -0.0156,-0.0137 -0.0234,-0.0205 0.007,-0.0509 0.0143,-0.10148 0.0205,-0.15235 4.2e-4,0.0576 0.002,0.11524 0.003,0.17286 z m 5.18848,-9.93897 c -0.0358,-0.40374 -0.0283,-0.79973 0.0366,-1.17187 0.18383,0.27079 0.3817,0.52324 0.66064,0.67969 0.005,0.002 0.009,0.003 0.0132,0.006 -0.2607,0.1638 -0.49296,0.32565 -0.71045,0.48633 z m -81.79834,-3.0293 c -0.16514,-0.0622 -0.30951,-0.14554 -0.29737,-0.38378 0.33182,0.25264 -0.0385,-0.0602 0.26368,0.3208 0.0109,0.0139 0.0214,0.0286 0.0322,0.0425 5.8e-4,0.007 5.6e-4,0.0135 0.002,0.0205 z m -2.31006,-3.35449 v -0.8877 c 0.19234,0.17285 0.38014,0.34391 0.59033,0.52149 -0.21127,0.10505 -0.40612,0.23051 -0.59033,0.36621 z m 79.72266,-4.99365 c -0.082,-0.001 -0.16411,-0.001 -0.2461,-0.003 -0.0131,-0.027 -0.0319,-0.0495 -0.0455,-0.0762 0.14502,-0.005 0.29006,-0.01 0.43506,-0.0146 -0.0475,0.0318 -0.0963,0.0618 -0.14355,0.0937 z m -79.69483,-5.58985 c -0.0122,0.006 0.0468,-0.0442 0.0659,-0.0601 0.006,0.007 0.0127,0.0136 0.019,0.0205 -0.0283,0.0133 -0.0568,0.0261 -0.085,0.0395 z m 86.2749,-4.84277 c -0.58883,-0.0677 -1.17787,-0.13711 -1.7666,-0.208 h 0.76319 c 0.34064,0 0.67663,0.0845 1.00341,0.208 z"
           inkscape:connector-curvature="0" />
      </g>
      <path
         inkscape:connector-curvature="0"
         d="m 522.9131,65.373865 c -0.47912,0 -0.95817,0.479049 -0.95817,0.958168 v 17.248255 c 0,0.479125 0.47905,0.95817 0.95817,0.95817 h 1.677 c 0.47912,0 0.95817,-0.479045 0.95817,-0.95817 V 66.332033 c 0,-0.479119 -0.47905,-0.958168 -0.95817,-0.958168 z m -14.37376,2.39542 c -0.47912,0 -0.95816,0.479048 -0.95816,0.958167 v 14.852836 c 0,0.479125 0.47904,0.95817 0.95816,0.95817 h 1.67701 c 0.47912,0 0.95816,-0.479045 0.95816,-0.95817 V 68.727452 c 0,-0.479119 -0.47904,-0.958167 -0.95816,-0.958167 z m 7.18709,4.79125 c -0.47912,0 -0.95858,0.479048 -0.95858,0.958168 v 10.061585 c 0,0.479125 0.47946,0.95817 0.95858,0.95817 h 1.67658 c 0.47913,0 0.95817,-0.479045 0.95817,-0.95817 V 73.518703 c 0,-0.47912 -0.47904,-0.958168 -0.95817,-0.958168 z m -14.37376,4.791253 c -0.47912,0 -0.95816,0.479046 -0.95816,0.958165 v 5.270335 c 0,0.479125 0.47904,0.95817 0.95816,0.95817 h 1.677 c 0.47913,0 0.95817,-0.479045 0.95817,-0.95817 v -5.270335 c 0,-0.479119 -0.47904,-0.958165 -0.95817,-0.958165 z"
         style="fill:#0094ab;fill-opacity:1;stroke:none;stroke-width:1.48918951;stroke-miterlimit:4;stroke-dasharray:none;stroke-opacity:1"
         id="path11321-0" />
    </g>
  </g>
</svg>
