<?xml version="1.0" encoding="UTF-8" standalone="no"?>
<!-- Created with Inkscape (http://www.inkscape.org/) -->

<svg
   xmlns:dc="http://purl.org/dc/elements/1.1/"
   xmlns:cc="http://creativecommons.org/ns#"
   xmlns:rdf="http://www.w3.org/1999/02/22-rdf-syntax-ns#"
   xmlns:svg="http://www.w3.org/2000/svg"
   xmlns="http://www.w3.org/2000/svg"
   xmlns:sodipodi="http://sodipodi.sourceforge.net/DTD/sodipodi-0.dtd"
   xmlns:inkscape="http://www.inkscape.org/namespaces/inkscape"
   width="200"
   height="200"
   viewBox="0 0 52.916666 52.916668"
   version="1.1"
   id="svg3506"
   inkscape:version="0.92.2 (5c3e80d, 2017-08-06)"
   sodipodi:docname="certificate.svg">
  <defs
     id="defs3500">
    <clipPath
       clipPathUnits="userSpaceOnUse"
       id="clipPath8806">
      <path
         d="m 217.174,529.313 h 7.516 v -7.393 h -7.516 z"
         id="path8804"
         inkscape:connector-curvature="0" />
    </clipPath>
    <clipPath
       clipPathUnits="userSpaceOnUse"
       id="clipPath8822">
      <path
         d="m 193.378,530.029 h 7.516 v -7.393 h -7.516 z"
         id="path8820"
         inkscape:connector-curvature="0" />
    </clipPath>
    <clipPath
       clipPathUnits="userSpaceOnUse"
       id="clipPath8838">
      <path
         d="m 239.785,536.821 h 7.516 v -7.393 h -7.516 z"
         id="path8836"
         inkscape:connector-curvature="0" />
    </clipPath>
    <clipPath
       clipPathUnits="userSpaceOnUse"
       id="clipPath8586">
      <path
         d="m 376.612,193.18 h 17.074 v -17.075 h -17.074 z"
         id="path8584"
         inkscape:connector-curvature="0" />
    </clipPath>
  </defs>
  <sodipodi:namedview
     id="base"
     pagecolor="#ffffff"
     bordercolor="#666666"
     borderopacity="1.0"
     inkscape:pageopacity="0.0"
     inkscape:pageshadow="2"
     inkscape:zoom="1.4"
     inkscape:cx="95.602941"
     inkscape:cy="204.71975"
     inkscape:document-units="mm"
     inkscape:current-layer="layer1"
     showgrid="false"
     units="px"
     inkscape:window-width="958"
     inkscape:window-height="974"
     inkscape:window-x="950"
     inkscape:window-y="0"
     inkscape:window-maximized="0" />
  <metadata
     id="metadata3503">
    <rdf:RDF>
      <cc:Work
         rdf:about="">
        <dc:format>image/svg+xml</dc:format>
        <dc:type
           rdf:resource="http://purl.org/dc/dcmitype/StillImage" />
        <dc:title></dc:title>
      </cc:Work>
    </rdf:RDF>
  </metadata>
  <g
     inkscape:label="Calque 1"
     inkscape:groupmode="layer"
     id="layer1"
     transform="translate(0,-244.08332)">
    <g
       transform="matrix(0.5153291,0,0,-0.5153291,21.996435,264.16689)"
       id="g8564">
      <path
         inkscape:connector-curvature="0"
         id="path8566"
         style="fill:#b0b2b0;fill-opacity:1;fill-rule:nonzero;stroke:none"
         d="m 0,0 c -0.566,0.626 -0.635,1.83 -0.133,2.332 0.5,0.5 15.76,0.5 16.26,0 C 16.651,1.808 16.551,0.499 15.943,-0.051 15.475,-0.474 14.479,-0.534 7.946,-0.534 1.088,-0.534 0.445,-0.491 0,0 m -10.845,-8.264 c -0.626,0.626 -0.577,1.471 0.126,2.173 0.572,0.572 0.974,0.585 18.716,0.585 17.742,0 18.145,-0.013 18.717,-0.585 0.703,-0.702 0.751,-1.547 0.125,-2.173 -0.408,-0.407 -2.521,-0.459 -18.842,-0.459 -16.321,0 -18.434,0.052 -18.842,0.459 m 22.069,-12.815 c 0.192,0.603 0.662,1.673 1.046,2.377 0.384,0.704 0.699,1.329 0.699,1.389 0,0.06 -5.198,0.109 -11.552,0.109 -11.162,0 -11.571,0.02 -12.136,0.585 -0.703,0.703 -0.752,1.547 -0.126,2.173 0.405,0.404 2.054,0.459 13.715,0.459 h 13.255 l 2.297,1.096 c 2.259,1.079 2.354,1.097 5.806,1.097 3.34,0 3.605,-0.045 5.481,-0.934 1.085,-0.514 2.435,-1.286 2.999,-1.716 l 1.024,-0.783 V -6.17 2.886 L 32.548,3.42 C 31.203,4.027 29.757,5.543 29.159,6.975 L 28.753,7.946 H 7.997 -12.759 L -13.165,6.975 C -13.763,5.543 -15.208,4.027 -16.554,3.42 L -17.738,2.886 V -7.131 -17.148 l 1.607,-0.907 c 1.247,-0.704 1.809,-1.266 2.513,-2.513 l 0.907,-1.608 h 11.794 11.793 z m 0.164,-8.774 c -0.102,0.443 -0.342,1.627 -0.532,2.633 l -0.346,1.827 -12.735,0.005 c -7.004,0.003 -12.909,0.115 -13.122,0.25 -0.213,0.135 -0.517,0.824 -0.675,1.531 -0.373,1.666 -1.516,2.855 -2.966,3.086 -2.064,0.331 -1.967,-0.332 -1.967,13.411 V 5.281 l 0.65,0.455 c 0.357,0.251 0.986,0.455 1.397,0.455 1.439,0 2.925,1.693 2.925,3.332 0,1.695 -0.79,1.64 23.98,1.64 24.771,0 23.981,0.055 23.981,-1.64 0,-1.639 1.485,-3.332 2.924,-3.332 0.411,0 1.04,-0.204 1.397,-0.455 l 0.65,-0.455 0.004,-12.632 c 0.003,-10.208 0.086,-12.94 0.435,-14.24 0.551,-2.054 0.551,-4.964 0,-7.018 -0.238,-0.885 -0.433,-1.707 -0.435,-1.828 -0.002,-0.121 0.974,-0.219 2.169,-0.219 1.585,0 2.296,0.124 2.631,0.459 0.411,0.41 0.46,2.903 0.46,23.045 0,17.176 -0.084,22.67 -0.351,22.936 -0.509,0.51 -67.221,0.51 -67.731,0 -0.266,-0.266 -0.35,-5.76 -0.35,-22.936 0,-20.142 0.049,-22.635 0.459,-23.045 0.408,-0.408 2.526,-0.459 18.897,-0.459 h 18.437 z m 15.048,2.281 c 2.176,1.969 0.653,5.689 -2.33,5.689 -1.091,0 -2.82,-1.441 -3.027,-2.522 -0.247,-1.291 0.323,-2.72 1.339,-3.358 1.122,-0.705 3.134,-0.609 4.018,0.191 m -3.615,-3.967 c -1.75,0.332 -3.455,1.696 -4.392,3.517 -0.708,1.373 -0.807,1.85 -0.686,3.288 0.197,2.336 1.267,4.072 3.208,5.206 1.376,0.803 1.724,0.88 3.624,0.798 2.708,-0.118 4.242,-1.086 5.429,-3.426 2.544,-5.019 -1.605,-10.44 -7.183,-9.383 m 5.711,-2.94 c 3.298,1.581 5.603,4.824 5.97,8.396 0.36,3.506 -1.52,7.479 -4.46,9.426 -5.403,3.58 -12.344,1.586 -15.133,-4.349 -2.141,-4.553 -0.411,-10.203 3.919,-12.804 2.217,-1.331 2.99,-1.519 5.839,-1.419 1.846,0.066 2.84,0.258 3.865,0.75 m 2.57,-8.311 c 0.795,2.393 1.232,2.661 3.574,2.201 0.96,-0.189 1.803,-0.286 1.872,-0.217 0.101,0.102 -2.604,5.051 -2.962,5.418 -0.05,0.052 -0.832,-0.397 -1.738,-0.999 -0.906,-0.601 -2.333,-1.325 -3.171,-1.609 -0.839,-0.284 -1.525,-0.624 -1.525,-0.756 0,-0.215 3.148,-5.941 3.266,-5.941 0.028,0 0.335,0.856 0.684,1.903 m -10.977,1.547 c 0.766,1.335 1.312,2.509 1.213,2.607 -0.098,0.099 -0.866,0.421 -1.705,0.717 -0.839,0.295 -2.234,1.007 -3.099,1.581 -0.865,0.575 -1.604,1.002 -1.643,0.95 -0.469,-0.634 -3.046,-5.355 -2.967,-5.434 0.059,-0.059 0.909,0.039 1.888,0.217 1.239,0.224 1.954,0.23 2.349,0.019 0.513,-0.275 1.779,-3.044 1.779,-3.892 0,-0.448 0.476,0.255 2.185,3.235 m -3.753,-8.35 c -0.226,0.363 -0.767,1.744 -1.201,3.072 -0.901,2.757 -0.831,2.725 -4.25,1.973 -2.461,-0.541 -3.075,-0.538 -3.634,0.022 -0.818,0.817 -0.502,1.772 2.026,6.129 1.367,2.355 2.486,4.334 2.486,4.397 0,0.062 -8.676,0.15 -19.28,0.193 -18.977,0.078 -19.293,0.089 -20.106,0.686 -0.454,0.333 -1.056,1.057 -1.337,1.608 -0.474,0.93 -0.511,2.7 -0.512,24.337 0,22.371 0.023,23.379 0.557,24.419 1.171,2.281 -1.838,2.109 36.876,2.109 38.591,0 35.567,0.169 36.821,-2.061 0.607,-1.08 0.612,-1.28 0.612,-24.445 0,-21.658 -0.038,-23.429 -0.512,-24.359 -0.918,-1.8 -1.79,-2.196 -5.202,-2.36 l -3.04,-0.147 2.513,-4.341 c 2.564,-4.431 2.92,-5.551 1.981,-6.237 -0.682,-0.5 -1.191,-0.479 -4.299,0.171 -1.411,0.294 -2.611,0.454 -2.666,0.354 -0.056,-0.1 -0.465,-1.301 -0.91,-2.668 -0.93,-2.86 -1.39,-3.509 -2.487,-3.509 -1.01,0 -1.241,0.288 -3.771,4.719 -1.162,2.033 -2.28,3.927 -2.486,4.208 -0.331,0.453 -0.675,-0.012 -2.949,-3.988 -1.416,-2.475 -2.721,-4.597 -2.899,-4.715 -0.685,-0.454 -1.918,-0.225 -2.331,0.433" />
    </g>
    <g
       transform="matrix(0.5153291,0,0,-0.5153291,16.28731,271.16058)"
       id="g8568">
      <path
         inkscape:connector-curvature="0"
         id="path8570"
         style="fill:#3a98ab;fill-opacity:1;fill-rule:nonzero;stroke:none"
         d="m 0,0 h 37.484 c 0.651,0 1.179,-0.527 1.179,-1.179 V -2.49 c 0,-0.652 -0.528,-1.179 -1.179,-1.179 L 0,-3.669 c -0.651,0 -1.179,0.527 -1.179,1.179 v 1.311 C -1.179,-0.527 -0.651,0 0,0" />
    </g>
    <g
       transform="matrix(0.5153291,0,0,-0.5153291,38.0645,286.27069)"
       id="g8572">
      <path
         inkscape:connector-curvature="0"
         id="path8574"
         style="fill:#3a98ab;fill-opacity:1;fill-rule:nonzero;stroke:none"
         d="M 0,0 C 0.8,2.405 1.239,2.675 3.593,2.212 4.558,2.022 5.404,1.925 5.475,1.995 5.576,2.097 2.857,7.07 2.498,7.44 2.447,7.492 1.661,7.041 0.75,6.437 -0.16,5.832 -1.594,5.104 -2.437,4.818 -3.279,4.533 -3.969,4.191 -3.969,4.06 c 0,-0.217 3.164,-5.973 3.283,-5.973 0.027,0 0.336,0.861 0.686,1.913 m -11.032,1.556 c 0.77,1.341 1.319,2.52 1.22,2.619 -0.099,0.099 -0.871,0.424 -1.714,0.721 -0.844,0.296 -2.245,1.012 -3.115,1.589 -0.87,0.577 -1.612,1.007 -1.651,0.955 -0.471,-0.637 -3.062,-5.382 -2.982,-5.461 0.059,-0.06 0.913,0.039 1.898,0.216 1.245,0.227 1.963,0.233 2.36,0.02 0.516,-0.276 1.788,-3.059 1.788,-3.91 0,-0.451 0.478,0.256 2.196,3.251 m -3.772,-8.392 c -0.227,0.363 -0.77,1.752 -1.206,3.086 -0.907,2.772 -0.836,2.739 -4.272,1.983 -2.474,-0.544 -3.091,-0.54 -3.653,0.022 -0.822,0.822 -0.505,1.781 2.037,6.16 1.374,2.367 2.498,4.356 2.498,4.419 C -6.467,7.6 -6.467,7.6 5.603,8.814 L 8.128,4.451 C 10.706,-0.002 11.063,-1.127 10.12,-1.817 9.434,-2.318 8.923,-2.299 5.798,-1.646 4.381,-1.349 3.175,-1.188 3.119,-1.29 3.063,-1.391 2.652,-2.597 2.205,-3.971 c -0.934,-2.875 -1.397,-3.527 -2.5,-3.527 -1.015,0 -1.247,0.29 -3.79,4.743 -1.167,2.043 -2.291,3.946 -2.498,4.23 -0.334,0.455 -0.679,-0.011 -2.965,-4.008 -1.423,-2.488 -2.734,-4.621 -2.913,-4.74 -0.688,-0.456 -1.928,-0.226 -2.343,0.436 z" />
    </g>
    <g
       transform="matrix(0.5153291,0,0,-0.5153291,34.544752,270.17372)"
       id="g8576">
      <path
         inkscape:connector-curvature="0"
         id="path8578"
         style="fill:#3a98ab;fill-opacity:1;fill-rule:nonzero;stroke:none"
         d="m 0,0 c 7.569,0 13.705,-6.136 13.705,-13.704 0,-7.569 -6.136,-13.705 -13.705,-13.705 -7.569,0 -13.704,6.136 -13.704,13.705 C -13.704,-6.136 -7.569,0 0,0" />
    </g>
    <g
       transform="matrix(0.5153291,0,0,-0.5153291,-163.89895,372.51293)"
       id="g8580">
      <g
         id="g8582" />
      <g
         id="g8594">
        <g
           style="opacity:0.97508198"
           id="g8592"
           clip-path="url(#clipPath8586)">
          <g
             id="g8590"
             transform="translate(385.1489,193.1799)">
            <path
               inkscape:connector-curvature="0"
               id="path8588"
               style="fill:#fefefd;fill-opacity:1;fill-rule:nonzero;stroke:none"
               d="m 0,0 c 4.715,0 8.538,-3.822 8.538,-8.537 0,-4.715 -3.823,-8.537 -8.538,-8.537 -4.715,0 -8.538,3.822 -8.538,8.537 C -8.538,-3.822 -4.715,0 0,0" />
          </g>
        </g>
      </g>
    </g>
    <g
       transform="matrix(0.5153291,0,0,-0.5153291,27.911692,282.04288)"
       id="g8596">
      <path
         inkscape:connector-curvature="0"
         id="path8598"
         style="fill:#3a98ab;fill-opacity:1;fill-rule:evenodd;stroke:none"
         d="M 0,0 2.111,3.56 3.305,1.241 1.744,-1.491 Z" />
    </g>
    <g
       transform="matrix(0.5153291,0,0,-0.5153291,40.994455,281.77415)"
       id="g8600">
      <path
         inkscape:connector-curvature="0"
         id="path8602"
         style="fill:#3a98ab;fill-opacity:1;fill-rule:evenodd;stroke:none"
         d="m 0,0 -1.705,3.188 -0.964,-2.076 1.26,-2.446 z" />
    </g>
    <g
       transform="matrix(0.5153291,0,0,-0.5153291,21.906355,262.54242)"
       id="g8604">
      <path
         inkscape:connector-curvature="0"
         id="path8606"
         style="fill:#3a98ab;fill-opacity:1;fill-rule:nonzero;stroke:none"
         d="m 0,0 h 15.991 c 0.651,0 1.178,-0.528 1.178,-1.179 v -1.312 c 0,-0.652 -0.527,-1.179 -1.178,-1.179 H 0 c -0.651,0 -1.179,0.527 -1.179,1.179 v 1.312 C -1.179,-0.528 -0.651,0 0,0" />
    </g>
    <g
       transform="matrix(0.5153291,0,0,-0.5153291,16.47628,266.83814)"
       id="g8608">
      <path
         inkscape:connector-curvature="0"
         id="path8610"
         style="fill:#3a98ab;fill-opacity:1;fill-rule:nonzero;stroke:none"
         d="m 0,0 h 37.484 c 0.651,0 1.179,-0.527 1.179,-1.179 V -2.49 c 0,-0.652 -0.528,-1.179 -1.179,-1.179 L 0,-3.669 c -0.651,0 -1.179,0.527 -1.179,1.179 v 1.311 C -1.179,-0.527 -0.651,0 0,0" />
    </g>
  </g>
</svg>
