<?xml version="1.0" encoding="UTF-8" standalone="no"?>
<!-- Created with Inkscape (http://www.inkscape.org/) -->

<svg
   xmlns:dc="http://purl.org/dc/elements/1.1/"
   xmlns:cc="http://creativecommons.org/ns#"
   xmlns:rdf="http://www.w3.org/1999/02/22-rdf-syntax-ns#"
   xmlns:svg="http://www.w3.org/2000/svg"
   xmlns="http://www.w3.org/2000/svg"
   xmlns:sodipodi="http://sodipodi.sourceforge.net/DTD/sodipodi-0.dtd"
   xmlns:inkscape="http://www.inkscape.org/namespaces/inkscape"
   width="200"
   height="200"
   viewBox="0 0 52.916666 52.916668"
   version="1.1"
   id="svg3506"
   inkscape:version="0.92.2 (5c3e80d, 2017-08-06)"
   sodipodi:docname="cog-2.svg">
  <defs
     id="defs3500">
    <clipPath
       clipPathUnits="userSpaceOnUse"
       id="clipPath8806">
      <path
         d="m 217.174,529.313 h 7.516 v -7.393 h -7.516 z"
         id="path8804"
         inkscape:connector-curvature="0" />
    </clipPath>
    <clipPath
       clipPathUnits="userSpaceOnUse"
       id="clipPath8822">
      <path
         d="m 193.378,530.029 h 7.516 v -7.393 h -7.516 z"
         id="path8820"
         inkscape:connector-curvature="0" />
    </clipPath>
    <clipPath
       clipPathUnits="userSpaceOnUse"
       id="clipPath8838">
      <path
         d="m 239.785,536.821 h 7.516 v -7.393 h -7.516 z"
         id="path8836"
         inkscape:connector-curvature="0" />
    </clipPath>
  </defs>
  <sodipodi:namedview
     id="base"
     pagecolor="#ffffff"
     bordercolor="#666666"
     borderopacity="1.0"
     inkscape:pageopacity="0.0"
     inkscape:pageshadow="2"
     inkscape:zoom="1.4"
     inkscape:cx="95.602941"
     inkscape:cy="204.71975"
     inkscape:document-units="mm"
     inkscape:current-layer="layer1"
     showgrid="false"
     units="px"
     inkscape:window-width="958"
     inkscape:window-height="974"
     inkscape:window-x="950"
     inkscape:window-y="0"
     inkscape:window-maximized="0" />
  <metadata
     id="metadata3503">
    <rdf:RDF>
      <cc:Work
         rdf:about="">
        <dc:format>image/svg+xml</dc:format>
        <dc:type
           rdf:resource="http://purl.org/dc/dcmitype/StillImage" />
        <dc:title></dc:title>
      </cc:Work>
    </rdf:RDF>
  </metadata>
  <g
     inkscape:label="Calque 1"
     inkscape:groupmode="layer"
     id="layer1"
     transform="translate(0,-244.08332)">
    <g
       transform="matrix(0.62726186,0,0,-0.62726186,39.318548,271.58677)"
       id="g8064">
      <path
         inkscape:connector-curvature="0"
         id="path8066"
         style="fill:#3a98ab;fill-opacity:1;fill-rule:nonzero;stroke:none"
         d="m 0,0 c -0.675,-0.098 -1.364,-0.193 -2.055,-0.283 -1.367,-0.178 -2.485,-1.148 -2.849,-2.471 -0.35,-1.266 -0.856,-2.488 -1.505,-3.632 -0.679,-1.194 -0.574,-2.671 0.266,-3.764 0.424,-0.551 0.844,-1.105 1.253,-1.653 l -2.142,-2.143 c -0.55,0.41 -1.105,0.83 -1.655,1.253 -1.092,0.84 -2.57,0.944 -3.764,0.267 -1.144,-0.65 -2.365,-1.157 -3.631,-1.506 -1.323,-0.364 -2.293,-1.483 -2.471,-2.849 -0.091,-0.691 -0.185,-1.38 -0.283,-2.055 h -3.031 c -0.098,0.675 -0.193,1.364 -0.283,2.054 -0.178,1.367 -1.148,2.486 -2.471,2.85 -1.266,0.349 -2.487,0.855 -3.632,1.505 -1.194,0.678 -2.672,0.574 -3.764,-0.266 -0.55,-0.423 -1.104,-0.843 -1.654,-1.253 l -2.143,2.143 c 0.409,0.548 0.83,1.102 1.253,1.654 0.84,1.092 0.945,2.57 0.267,3.764 -0.649,1.143 -1.156,2.365 -1.505,3.631 -0.364,1.323 -1.483,2.293 -2.849,2.471 -0.692,0.091 -1.38,0.185 -2.056,0.283 v 3.031 c 0.676,0.098 1.364,0.193 2.055,0.283 1.367,0.179 2.486,1.148 2.849,2.471 0.35,1.266 0.856,2.488 1.506,3.632 0.678,1.194 0.573,2.671 -0.267,3.764 -0.424,0.551 -0.844,1.106 -1.253,1.653 l 2.143,2.144 c 0.55,-0.411 1.104,-0.831 1.653,-1.253 1.092,-0.841 2.57,-0.946 3.765,-0.267 1.144,0.649 2.365,1.155 3.632,1.504 1.323,0.365 2.293,1.484 2.471,2.85 0.089,0.691 0.185,1.38 0.283,2.055 h 3.031 c 0.098,-0.675 0.192,-1.364 0.282,-2.054 0.179,-1.367 1.149,-2.486 2.471,-2.85 1.267,-0.349 2.488,-0.856 3.633,-1.505 1.193,-0.679 2.671,-0.574 3.763,0.267 0.55,0.422 1.104,0.842 1.655,1.253 L -4.89,14.834 C -5.299,14.287 -5.719,13.732 -6.144,13.18 -6.983,12.088 -7.088,10.61 -6.41,9.417 -5.76,8.272 -5.254,7.05 -4.904,5.785 -4.54,4.462 -3.422,3.492 -2.055,3.314 -1.364,3.224 -0.676,3.128 0,3.031 Z m 1.188,6.991 c -0.743,0.112 -1.506,0.219 -2.276,0.322 -0.387,1.289 -0.904,2.538 -1.543,3.725 0.471,0.615 0.935,1.232 1.382,1.837 0.995,1.346 0.852,3.254 -0.334,4.439 l -2.971,2.97 c -1.185,1.186 -3.093,1.33 -4.439,0.334 -0.608,-0.45 -1.224,-0.913 -1.837,-1.382 -1.187,0.639 -2.436,1.156 -3.725,1.544 -0.102,0.769 -0.21,1.532 -0.321,2.275 -0.248,1.655 -1.698,2.903 -3.375,2.903 h -4.201 c -1.677,0 -3.128,-1.248 -3.375,-2.902 -0.111,-0.744 -0.219,-1.507 -0.321,-2.276 -1.289,-0.388 -2.539,-0.905 -3.725,-1.544 -0.613,0.469 -1.23,0.933 -1.838,1.382 -1.345,0.996 -3.254,0.852 -4.438,-0.333 l -2.971,-2.971 c -1.186,-1.185 -1.329,-3.093 -0.334,-4.439 0.447,-0.605 0.911,-1.222 1.382,-1.837 -0.639,-1.187 -1.157,-2.436 -1.544,-3.725 -0.769,-0.103 -1.532,-0.21 -2.276,-0.322 -1.654,-0.247 -2.902,-1.698 -2.902,-3.375 v -4.2 c 0,-1.677 1.247,-3.128 2.902,-3.376 0.744,-0.111 1.507,-0.219 2.276,-0.322 0.387,-1.288 0.905,-2.537 1.544,-3.724 -0.471,-0.615 -0.934,-1.231 -1.383,-1.838 -0.995,-1.345 -0.851,-3.254 0.335,-4.438 l 2.97,-2.971 c 1.185,-1.185 3.093,-1.329 4.439,-0.334 0.607,0.449 1.225,0.913 1.838,1.382 1.186,-0.639 2.436,-1.156 3.724,-1.544 0.102,-0.768 0.211,-1.532 0.322,-2.275 0.247,-1.655 1.698,-2.903 3.375,-2.903 h 4.201 c 1.677,0 3.127,1.248 3.375,2.903 0.111,0.743 0.219,1.507 0.321,2.275 1.289,0.388 2.538,0.906 3.725,1.544 0.613,-0.469 1.229,-0.932 1.837,-1.382 1.346,-0.995 3.254,-0.851 4.439,0.334 l 2.971,2.97 c 1.186,1.185 1.329,3.094 0.334,4.44 -0.448,0.606 -0.912,1.222 -1.382,1.837 0.638,1.186 1.155,2.435 1.543,3.724 0.77,0.103 1.533,0.211 2.276,0.322 1.655,0.248 2.903,1.698 2.903,3.375 v 4.201 c 0,1.676 -1.248,3.128 -2.903,3.375" />
    </g>
    <g
       transform="matrix(0.62726186,0,0,-0.62726186,26.552843,273.67411)"
       id="g8068">
      <path
         inkscape:connector-curvature="0"
         id="path8070"
         style="fill:#3a98ab;fill-opacity:1;fill-rule:nonzero;stroke:none"
         d="m 0,0 c -2.671,0 -4.844,2.173 -4.844,4.843 0,2.671 2.173,4.844 4.844,4.844 2.671,0 4.843,-2.173 4.843,-4.844 C 4.843,2.173 2.671,0 0,0 m 0,13.563 c -4.808,0 -8.72,-3.912 -8.72,-8.72 0,-4.808 3.912,-8.719 8.72,-8.719 4.808,0 8.719,3.911 8.719,8.719 0,4.808 -3.911,8.72 -8.719,8.72" />
    </g>
  </g>
</svg>
