<?xml version="1.0" encoding="UTF-8" standalone="no"?>
<!-- Created with Inkscape (http://www.inkscape.org/) -->

<svg
   xmlns:dc="http://purl.org/dc/elements/1.1/"
   xmlns:cc="http://creativecommons.org/ns#"
   xmlns:rdf="http://www.w3.org/1999/02/22-rdf-syntax-ns#"
   xmlns:svg="http://www.w3.org/2000/svg"
   xmlns="http://www.w3.org/2000/svg"
   xmlns:sodipodi="http://sodipodi.sourceforge.net/DTD/sodipodi-0.dtd"
   xmlns:inkscape="http://www.inkscape.org/namespaces/inkscape"
   width="200"
   height="200"
   viewBox="0 0 52.916666 52.916668"
   version="1.1"
   id="svg3506"
   inkscape:version="0.92.2 (5c3e80d, 2017-08-06)"
   sodipodi:docname="cog-1.svg">
  <defs
     id="defs3500">
    <clipPath
       clipPathUnits="userSpaceOnUse"
       id="clipPath8806">
      <path
         d="m 217.174,529.313 h 7.516 v -7.393 h -7.516 z"
         id="path8804"
         inkscape:connector-curvature="0" />
    </clipPath>
    <clipPath
       clipPathUnits="userSpaceOnUse"
       id="clipPath8822">
      <path
         d="m 193.378,530.029 h 7.516 v -7.393 h -7.516 z"
         id="path8820"
         inkscape:connector-curvature="0" />
    </clipPath>
    <clipPath
       clipPathUnits="userSpaceOnUse"
       id="clipPath8838">
      <path
         d="m 239.785,536.821 h 7.516 v -7.393 h -7.516 z"
         id="path8836"
         inkscape:connector-curvature="0" />
    </clipPath>
  </defs>
  <sodipodi:namedview
     id="base"
     pagecolor="#ffffff"
     bordercolor="#666666"
     borderopacity="1.0"
     inkscape:pageopacity="0.0"
     inkscape:pageshadow="2"
     inkscape:zoom="1.4"
     inkscape:cx="95.602941"
     inkscape:cy="204.71975"
     inkscape:document-units="mm"
     inkscape:current-layer="layer1"
     showgrid="false"
     units="px"
     inkscape:window-width="958"
     inkscape:window-height="974"
     inkscape:window-x="950"
     inkscape:window-y="0"
     inkscape:window-maximized="0" />
  <metadata
     id="metadata3503">
    <rdf:RDF>
      <cc:Work
         rdf:about="">
        <dc:format>image/svg+xml</dc:format>
        <dc:type
           rdf:resource="http://purl.org/dc/dcmitype/StillImage" />
        <dc:title></dc:title>
      </cc:Work>
    </rdf:RDF>
  </metadata>
  <g
     inkscape:label="Calque 1"
     inkscape:groupmode="layer"
     id="layer1"
     transform="translate(0,-244.08332)">
    <g
       transform="matrix(0.59272581,0,0,-0.59272581,38.951934,277.98255)"
       id="g8056">
      <path
         inkscape:connector-curvature="0"
         id="path8058"
         style="fill:#3a98ab;fill-opacity:1;fill-rule:nonzero;stroke:none"
         d="m 0,0 c -0.921,0.23 -1.86,0.475 -2.795,0.727 -1.322,0.355 -2.718,-0.11 -3.556,-1.186 -0.962,-1.236 -2.076,-2.35 -3.31,-3.312 -1.075,-0.836 -1.539,-2.232 -1.184,-3.553 0.254,-0.941 0.497,-1.88 0.727,-2.795 l -4.124,-1.708 c -0.491,0.819 -0.983,1.655 -1.462,2.49 -0.684,1.186 -1.998,1.843 -3.351,1.676 -1.551,-0.193 -3.127,-0.193 -4.681,10e-4 -1.356,0.168 -2.67,-0.489 -3.353,-1.676 -0.486,-0.844 -0.977,-1.681 -1.463,-2.491 l -4.124,1.709 c 0.231,0.92 0.475,1.859 0.727,2.795 0.356,1.322 -0.11,2.718 -1.186,3.555 -1.236,0.963 -2.349,2.077 -3.311,3.31 C -37.283,0.618 -38.678,1.082 -40,0.726 -40.936,0.474 -41.874,0.23 -42.794,0 l -1.709,4.124 c 0.815,0.488 1.651,0.98 2.489,1.462 1.187,0.683 1.845,1.998 1.677,3.35 -0.192,1.552 -0.192,3.127 0.001,4.682 0.168,1.353 -0.489,2.669 -1.677,3.353 -0.837,0.482 -1.674,0.973 -2.49,1.463 l 1.709,4.124 c 0.919,-0.23 1.857,-0.475 2.795,-0.726 1.321,-0.357 2.718,0.108 3.556,1.185 0.962,1.236 2.076,2.35 3.31,3.311 1.074,0.837 1.539,2.233 1.183,3.554 -0.251,0.933 -0.495,1.871 -0.727,2.794 l 4.125,1.709 c 0.487,-0.813 0.979,-1.65 1.462,-2.489 0.684,-1.187 1.999,-1.846 3.35,-1.677 1.552,0.193 3.127,0.193 4.682,-0.001 1.355,-0.169 2.669,0.49 3.353,1.677 0.482,0.837 0.974,1.674 1.462,2.49 l 4.125,-1.709 c -0.231,-0.921 -0.475,-1.86 -0.727,-2.795 -0.356,-1.322 0.11,-2.718 1.185,-3.555 1.236,-0.963 2.35,-2.076 3.311,-3.311 0.837,-1.075 2.233,-1.539 3.555,-1.183 0.935,0.251 1.873,0.496 2.794,0.727 l 1.708,-4.125 c -0.813,-0.488 -1.65,-0.979 -2.489,-1.462 -1.187,-0.683 -1.845,-1.998 -1.677,-3.35 0.193,-1.552 0.193,-3.127 0,-4.683 C -2.627,7.586 -1.969,6.271 -0.782,5.587 0.054,5.106 0.891,4.614 1.708,4.125 Z M 3.747,7.121 C 2.896,7.632 2.024,8.145 1.152,8.648 c 0.205,1.748 0.205,3.517 0.001,5.261 0.875,0.505 1.747,1.018 2.593,1.527 1.425,0.856 2.019,2.662 1.381,4.2 v 0.001 l -1.858,4.487 c -0.638,1.538 -2.333,2.396 -3.947,1.994 -0.959,-0.239 -1.938,-0.493 -2.914,-0.754 -1.09,1.379 -2.34,2.629 -3.72,3.719 0.261,0.976 0.515,1.956 0.754,2.915 0.402,1.612 -0.456,3.308 -1.994,3.946 l -4.487,1.858 c -1.538,0.638 -3.345,0.045 -4.2,-1.38 -0.511,-0.848 -1.025,-1.721 -1.529,-2.594 -1.747,0.205 -3.514,0.205 -5.259,10e-4 -0.506,0.876 -1.02,1.748 -1.528,2.593 -0.856,1.424 -2.662,2.018 -4.2,1.38 l -4.487,-1.858 c -1.538,-0.637 -2.396,-2.334 -1.994,-3.946 0.239,-0.961 0.493,-1.941 0.754,-2.915 -1.378,-1.088 -2.629,-2.339 -3.719,-3.72 -0.979,0.263 -1.958,0.516 -2.915,0.755 -1.613,0.402 -3.309,-0.456 -3.947,-1.994 l -1.858,-4.487 c -0.637,-1.539 -0.043,-3.345 1.381,-4.2 0.849,-0.511 1.721,-1.024 2.595,-1.528 -0.205,-1.747 -0.206,-3.515 -10e-4,-5.261 -0.875,-0.504 -1.747,-1.018 -2.595,-1.527 -1.424,-0.856 -2.018,-2.662 -1.38,-4.2 l 1.858,-4.487 c 0.638,-1.538 2.334,-2.396 3.947,-1.995 0.958,0.239 1.937,0.493 2.914,0.754 1.09,-1.378 2.34,-2.628 3.721,-3.718 -0.263,-0.977 -0.517,-1.957 -0.755,-2.915 -0.402,-1.613 0.456,-3.309 1.994,-3.946 l 4.487,-1.859 c 0.417,-0.172 0.853,-0.255 1.284,-0.255 1.163,0 2.292,0.597 2.917,1.635 0.506,0.842 1.02,1.714 1.528,2.594 1.747,-0.204 3.515,-0.205 5.26,0 0.502,-0.871 1.015,-1.743 1.527,-2.594 0.856,-1.425 2.662,-2.018 4.201,-1.381 l 4.486,1.859 c 1.539,0.637 2.397,2.334 1.994,3.946 -0.237,0.953 -0.49,1.932 -0.754,2.914 1.379,1.09 2.629,2.34 3.719,3.72 0.976,-0.261 1.956,-0.515 2.915,-0.754 1.613,-0.402 3.309,0.456 3.947,1.995 l 1.858,4.487 c 0.638,1.538 0.044,3.344 -1.38,4.2" />
    </g>
    <g
       transform="matrix(0.59272581,0,0,-0.59272581,28.245825,276.06751)"
       id="g8060">
      <path
         inkscape:connector-curvature="0"
         id="path8062"
         style="fill:#3a98ab;fill-opacity:1;fill-rule:nonzero;stroke:none"
         d="m 0,0 c -2.15,-0.891 -4.519,-0.89 -6.669,0 -2.15,0.891 -3.825,2.566 -4.716,4.716 -1.839,4.439 0.277,9.547 4.716,11.386 1.087,0.45 2.214,0.663 3.323,0.663 3.421,0 6.674,-2.027 8.063,-5.379 C 6.555,6.946 4.439,1.839 0,0 m 8.06,12.77 v 0.001 c -2.603,6.282 -9.831,9.276 -16.114,6.674 -6.282,-2.603 -9.277,-9.831 -6.675,-16.113 1.261,-3.044 3.632,-5.414 6.675,-6.675 1.522,-0.63 3.12,-0.946 4.719,-0.946 1.6,0 3.198,0.316 4.72,0.946 6.282,2.602 9.276,9.831 6.675,16.113" />
    </g>
  </g>
</svg>
