<?xml version="1.0" encoding="UTF-8" standalone="no"?>
<!-- Created with Inkscape (http://www.inkscape.org/) -->

<svg
   xmlns:dc="http://purl.org/dc/elements/1.1/"
   xmlns:cc="http://creativecommons.org/ns#"
   xmlns:rdf="http://www.w3.org/1999/02/22-rdf-syntax-ns#"
   xmlns:svg="http://www.w3.org/2000/svg"
   xmlns="http://www.w3.org/2000/svg"
   xmlns:sodipodi="http://sodipodi.sourceforge.net/DTD/sodipodi-0.dtd"
   xmlns:inkscape="http://www.inkscape.org/namespaces/inkscape"
   width="200"
   height="200"
   viewBox="0 0 52.916666 52.916668"
   version="1.1"
   id="svg3506"
   inkscape:version="0.92.2 (5c3e80d, 2017-08-06)"
   sodipodi:docname="district.svg">
  <defs
     id="defs3500">
    <clipPath
       clipPathUnits="userSpaceOnUse"
       id="clipPath8806">
      <path
         d="m 217.174,529.313 h 7.516 v -7.393 h -7.516 z"
         id="path8804"
         inkscape:connector-curvature="0" />
    </clipPath>
    <clipPath
       clipPathUnits="userSpaceOnUse"
       id="clipPath8822">
      <path
         d="m 193.378,530.029 h 7.516 v -7.393 h -7.516 z"
         id="path8820"
         inkscape:connector-curvature="0" />
    </clipPath>
    <clipPath
       clipPathUnits="userSpaceOnUse"
       id="clipPath8838">
      <path
         d="m 239.785,536.821 h 7.516 v -7.393 h -7.516 z"
         id="path8836"
         inkscape:connector-curvature="0" />
    </clipPath>
  </defs>
  <sodipodi:namedview
     id="base"
     pagecolor="#ffffff"
     bordercolor="#666666"
     borderopacity="1.0"
     inkscape:pageopacity="0.0"
     inkscape:pageshadow="2"
     inkscape:zoom="1.4"
     inkscape:cx="95.602941"
     inkscape:cy="204.71975"
     inkscape:document-units="mm"
     inkscape:current-layer="layer1"
     showgrid="false"
     units="px"
     inkscape:window-width="958"
     inkscape:window-height="974"
     inkscape:window-x="950"
     inkscape:window-y="0"
     inkscape:window-maximized="0" />
  <metadata
     id="metadata3503">
    <rdf:RDF>
      <cc:Work
         rdf:about="">
        <dc:format>image/svg+xml</dc:format>
        <dc:type
           rdf:resource="http://purl.org/dc/dcmitype/StillImage" />
        <dc:title></dc:title>
      </cc:Work>
    </rdf:RDF>
  </metadata>
  <g
     inkscape:label="Calque 1"
     inkscape:groupmode="layer"
     id="layer1"
     transform="translate(0,-244.08332)">
    <g
       transform="matrix(0.35277777,0,0,-0.35277777,-190.30007,454.32599)"
       id="g10716">
      <g
         transform="translate(650.0195,555.1257)"
         id="g8652">
        <path
           inkscape:connector-curvature="0"
           id="path8654"
           style="fill:#b6b7b5;fill-opacity:1;fill-rule:nonzero;stroke:none"
           d="m 0,0 -2.064,4.117 -10.144,-0.099 -10.144,-0.1 -1.99,-3.737 c -1.094,-2.056 -1.992,-3.863 -1.995,-4.017 -0.003,-0.154 6.386,-0.281 14.198,-0.281 H 2.064 Z m -40.544,-3.934 c 0,0.1 -0.879,1.95 -1.953,4.11 L -44.451,4.105 -54.55,4.098 -64.647,4.09 l -2.131,-4.103 -2.131,-4.103 h 14.182 c 7.801,0 14.183,0.082 14.183,0.182 m 29.284,-27.225 1.734,0.237 v 4.994 4.995 h -2.803 -2.803 v -5.232 -5.232 h 1.069 c 0.588,0 1.849,0.107 2.803,0.238 m -7.701,6.302 c 0.121,8.103 -0.27,7.661 6.789,7.661 3.505,0 5.32,-0.147 5.758,-0.468 0.554,-0.404 0.65,-1.335 0.728,-7.006 l 0.091,-6.54 4.387,-0.105 4.388,-0.106 v 11.784 11.783 h -15.509 -15.509 v -11.562 -11.562 l 1.401,-0.153 c 0.771,-0.085 2.748,-0.137 4.392,-0.117 l 2.989,0.038 z m -32.794,-1.308 v 5.232 h -2.803 -2.802 v -5.232 -5.232 h 2.802 2.803 z m -9.93,-4.645 c 0.487,0.486 0.587,1.643 0.587,6.714 0,5.674 0.054,6.155 0.723,6.513 0.398,0.213 2.986,0.387 5.751,0.387 6.954,0 6.577,0.431 6.698,-7.661 l 0.095,-6.353 h 4.298 4.298 l 0.098,11.678 0.099,11.678 h -15.515 -15.513 v -11.771 -11.772 h 3.897 c 3.045,0 4.025,0.128 4.484,0.587 m -18.471,-3.844 c -1.111,0.562 -1.359,1.669 -0.605,2.699 0.468,0.64 0.984,0.746 3.657,0.751 l 3.114,0.007 0.186,13.073 0.188,13.073 2.935,5.792 c 1.616,3.186 3.198,6.087 3.515,6.447 0.528,0.597 1.621,0.654 12.608,0.654 10.988,0 12.08,-0.057 12.609,-0.654 0.318,-0.36 1.941,-3.385 3.607,-6.723 l 3.03,-6.068 V -18.5 -31.397 h 1.869 1.868 l 0.014,12.986 0.014,12.986 3.443,6.54 3.443,6.54 h 12.518 12.52 l 3.257,-6.353 3.257,-6.353 0.012,-12.963 0.014,-12.964 1.588,-0.211 c 0.873,-0.117 2.426,-0.253 3.449,-0.303 1.661,-0.082 1.9,-0.203 2.224,-1.126 0.286,-0.817 0.225,-1.169 -0.287,-1.681 -0.607,-0.607 -3.578,-0.654 -46.88,-0.739 -36.714,-0.071 -46.426,0.008 -47.167,0.383 z m 80.078,-13.096 -2.161,4.201 -8.591,0.126 c -4.726,0.069 -9.273,0.024 -10.104,-0.101 -1.494,-0.225 -1.537,-0.275 -3.461,-4.144 -1.071,-2.155 -1.948,-4 -1.948,-4.101 0,-0.1 6.396,-0.182 14.213,-0.182 H 2.084 Z m -40.48,-3.733 c -0.007,0.256 -0.89,2.148 -1.962,4.204 l -1.948,3.737 h -10.045 -10.044 l -2.227,-4.205 -2.228,-4.204 h 14.235 c 11.145,0 14.23,0.101 14.219,0.468 m 31.032,-22.329 v 5.044 h -2.803 -2.803 v -5.044 -5.045 h 2.803 2.803 z m -3.561,13.277 c -0.544,0.601 -0.612,0.971 -0.329,1.776 l 0.356,1.016 6.778,0.101 c 5.793,0.087 6.862,0.016 7.371,-0.493 0.837,-0.837 0.741,-1.893 -0.235,-2.576 -0.67,-0.471 -2.025,-0.582 -7.042,-0.582 -5.768,0 -6.261,0.054 -6.899,0.758 m -7.032,-0.075 c -1.297,1.433 -0.534,3.054 1.437,3.054 1.432,0 2.055,-0.586 2.055,-1.93 0,-1.709 -2.294,-2.448 -3.492,-1.124 m 1.25,-11.921 c 0,5.253 0.099,6.426 0.588,6.913 0.48,0.481 1.588,0.588 6.12,0.588 3.974,0 5.64,-0.132 5.912,-0.468 0.212,-0.26 0.438,-3.322 0.513,-6.912 l 0.133,-6.445 4.392,-10e-4 4.391,-0.001 v 11.585 11.585 h -15.509 -15.509 v -11.585 -11.585 h 4.484 4.485 v 6.327 z m -32.886,-1.281 v 5.044 h -2.803 -2.802 v -5.044 -5.045 h 2.802 2.803 z m -9.361,1.325 c -0.03,4.481 0.09,6.532 0.407,6.914 0.686,0.826 11.271,0.788 12.104,-0.045 0.488,-0.487 0.587,-1.66 0.587,-6.913 v -6.326 h 4.485 4.484 v 11.585 11.585 h -15.509 -15.508 v -11.585 -11.585 h 4.497 4.498 l -0.044,6.37 z m -19.574,-9.52 c -0.83,0.829 -0.729,1.887 0.243,2.568 0.579,0.405 1.712,0.582 3.737,0.582 h 2.906 v 12.894 12.895 l 3.375,6.497 c 2.52,4.852 3.585,6.554 4.204,6.72 1.102,0.295 22.262,0.287 23.369,-0.009 0.672,-0.181 1.602,-1.708 4.204,-6.905 l 3.34,-6.673 v -12.71 -12.71 h 1.869 1.868 v 12.768 12.768 l 3.198,6.198 c 1.759,3.408 3.543,6.492 3.965,6.851 0.694,0.592 1.851,0.654 12.149,0.654 7.193,0 11.65,-0.143 12.11,-0.39 0.401,-0.215 2.155,-3.238 3.899,-6.722 l 3.171,-6.333 v -12.897 -12.897 h 2.906 c 2.026,0 3.158,-0.176 3.738,-0.581 0.971,-0.681 1.072,-1.74 0.243,-2.568 -0.528,-0.528 -5.327,-0.588 -47.247,-0.588 -41.92,0 -46.72,0.06 -47.247,0.588" />
      </g>
    </g>
  </g>
</svg>
