<?xml version="1.0" encoding="UTF-8" standalone="no"?>
<!-- Created with Inkscape (http://www.inkscape.org/) -->

<svg
   xmlns:dc="http://purl.org/dc/elements/1.1/"
   xmlns:cc="http://creativecommons.org/ns#"
   xmlns:rdf="http://www.w3.org/1999/02/22-rdf-syntax-ns#"
   xmlns:svg="http://www.w3.org/2000/svg"
   xmlns="http://www.w3.org/2000/svg"
   xmlns:sodipodi="http://sodipodi.sourceforge.net/DTD/sodipodi-0.dtd"
   xmlns:inkscape="http://www.inkscape.org/namespaces/inkscape"
   width="200"
   height="200"
   viewBox="0 0 52.916666 52.916668"
   version="1.1"
   id="svg3506"
   inkscape:version="0.92.2 (5c3e80d, 2017-08-06)"
   sodipodi:docname="district-hlm-1.svg">
  <defs
     id="defs3500">
    <clipPath
       clipPathUnits="userSpaceOnUse"
       id="clipPath8806">
      <path
         d="m 217.174,529.313 h 7.516 v -7.393 h -7.516 z"
         id="path8804"
         inkscape:connector-curvature="0" />
    </clipPath>
    <clipPath
       clipPathUnits="userSpaceOnUse"
       id="clipPath8822">
      <path
         d="m 193.378,530.029 h 7.516 v -7.393 h -7.516 z"
         id="path8820"
         inkscape:connector-curvature="0" />
    </clipPath>
    <clipPath
       clipPathUnits="userSpaceOnUse"
       id="clipPath8838">
      <path
         d="m 239.785,536.821 h 7.516 v -7.393 h -7.516 z"
         id="path8836"
         inkscape:connector-curvature="0" />
    </clipPath>
  </defs>
  <sodipodi:namedview
     id="base"
     pagecolor="#ffffff"
     bordercolor="#666666"
     borderopacity="1.0"
     inkscape:pageopacity="0.0"
     inkscape:pageshadow="2"
     inkscape:zoom="1.4"
     inkscape:cx="95.602941"
     inkscape:cy="204.71975"
     inkscape:document-units="mm"
     inkscape:current-layer="layer1"
     showgrid="false"
     units="px"
     inkscape:window-width="958"
     inkscape:window-height="974"
     inkscape:window-x="950"
     inkscape:window-y="0"
     inkscape:window-maximized="0" />
  <metadata
     id="metadata3503">
    <rdf:RDF>
      <cc:Work
         rdf:about="">
        <dc:format>image/svg+xml</dc:format>
        <dc:type
           rdf:resource="http://purl.org/dc/dcmitype/StillImage" />
        <dc:title></dc:title>
      </cc:Work>
    </rdf:RDF>
  </metadata>
  <g
     inkscape:label="Calque 1"
     inkscape:groupmode="layer"
     id="layer1"
     transform="translate(0,-244.08332)">
    <g
       transform="matrix(0.35277777,0,0,-0.35277777,-100.21386,453.52445)"
       id="g10698">
      <g
         transform="translate(398.0679,511.9963)"
         id="g7836">
        <path
           inkscape:connector-curvature="0"
           id="path7838"
           style="fill:#b6b7b5;fill-opacity:1;fill-rule:nonzero;stroke:none"
           d="M 0,0 -2.225,4.527 -13.428,4.45 -24.631,4.374 -26.856,0.23 c -1.151,-2.302 -2.149,-4.297 -2.149,-4.451 0,-0.153 7.059,-0.307 15.653,-0.307 H 2.302 Z m -44.735,-4.297 c 0,0.077 -0.921,2.149 -2.149,4.527 l -2.148,4.297 H -60.159 -71.285 L -73.664,0 -76.042,-4.527 h 15.653 c 8.671,0 15.654,0.076 15.654,0.23 m 32.304,-30.079 1.919,0.307 v 5.448 5.524 h -3.07 -3.069 v -5.755 -5.754 h 1.151 c 0.69,0 2.072,0.076 3.069,0.23 m -8.44,6.982 c 0.077,8.901 -0.307,8.441 7.443,8.441 3.913,0 5.908,-0.153 6.368,-0.537 0.615,-0.461 0.768,-1.458 0.845,-7.75 l 0.076,-7.213 4.835,-0.077 4.834,-0.153 v 13.044 12.968 h -17.112 -17.111 v -12.738 -12.737 l 1.535,-0.153 c 0.844,-0.154 3.069,-0.154 4.834,-0.154 h 3.3 z m -36.218,-1.458 v 5.755 h -3.07 -3.069 v -5.755 -5.754 h 3.069 3.07 z m -10.973,-5.141 c 0.537,0.537 0.69,1.842 0.69,7.443 0,6.216 0.078,6.753 0.768,7.136 0.46,0.231 3.299,0.461 6.369,0.461 7.673,0 7.213,0.46 7.366,-8.441 l 0.154,-7.059 h 4.68 4.758 l 0.153,12.891 0.077,12.891 H -60.159 -77.27 v -12.968 -12.967 h 4.297 c 3.376,0 4.451,0.153 4.911,0.613 m -20.334,-4.22 c -1.228,0.614 -1.535,1.841 -0.691,2.993 0.537,0.69 1.074,0.767 4.067,0.844 h 3.376 l 0.23,14.425 0.231,14.426 3.223,6.369 c 1.764,3.53 3.529,6.676 3.913,7.136 0.537,0.614 1.765,0.691 13.888,0.691 12.124,0 13.352,-0.077 13.889,-0.691 0.384,-0.46 2.149,-3.76 3.99,-7.443 l 3.377,-6.676 v -14.272 -14.195 h 1.994 2.072 l 0.077,14.272 V -5.985 L -31,1.228 -27.164,8.44 H -13.352 0.46 L 4.067,1.458 7.673,-5.525 v -14.349 -14.272 l 1.765,-0.23 c 0.921,-0.154 2.686,-0.308 3.76,-0.384 1.842,-0.077 2.148,-0.23 2.455,-1.228 0.307,-0.921 0.307,-1.304 -0.307,-1.842 -0.69,-0.69 -3.913,-0.69 -51.718,-0.843 -40.514,-0.077 -51.257,0 -52.024,0.46 z" />
      </g>
      <g
         transform="translate(398.0679,560.7717)"
         id="g7840">
        <path
           inkscape:connector-curvature="0"
           id="path7842"
           style="fill:#3a98ab;fill-opacity:1;fill-rule:nonzero;stroke:none"
           d="M 0,0 -2.225,4.527 -13.428,4.45 -24.631,4.374 -26.856,0.23 c -1.151,-2.302 -2.149,-4.297 -2.149,-4.451 0,-0.153 7.059,-0.307 15.653,-0.307 H 2.302 Z m -44.735,-4.297 c 0,0.077 -0.921,2.149 -2.149,4.527 l -2.148,4.297 H -60.159 -71.285 L -73.664,0 -76.042,-4.527 h 15.653 c 8.671,0 15.654,0.076 15.654,0.23 m 32.304,-30.079 1.919,0.307 v 5.447 5.525 h -3.07 -3.069 v -5.755 -5.754 h 1.151 c 0.69,0 2.072,0.076 3.069,0.23 m -8.44,6.982 c 0.077,8.901 -0.307,8.441 7.443,8.441 3.913,0 5.908,-0.153 6.368,-0.537 0.615,-0.461 0.768,-1.458 0.845,-7.75 l 0.076,-7.213 4.835,-0.077 4.834,-0.154 v 13.045 12.968 h -17.112 -17.111 v -12.738 -12.737 l 1.535,-0.154 c 0.844,-0.153 3.069,-0.153 4.834,-0.153 h 3.3 z m -36.218,-1.458 v 5.755 h -3.07 -3.069 v -5.755 -5.754 h 3.069 3.07 z m -10.973,-5.141 c 0.537,0.537 0.69,1.842 0.69,7.443 0,6.216 0.078,6.753 0.768,7.136 0.46,0.231 3.299,0.461 6.369,0.461 7.673,0 7.213,0.46 7.366,-8.441 l 0.154,-7.059 h 4.68 4.758 l 0.153,12.891 0.077,12.891 H -60.159 -77.27 v -12.968 -12.967 h 4.297 c 3.376,0 4.451,0.153 4.911,0.613 m -20.334,-4.22 c -1.228,0.614 -1.535,1.841 -0.691,2.992 0.537,0.691 1.074,0.768 4.067,0.845 h 3.376 l 0.23,14.425 0.231,14.426 3.223,6.369 c 1.764,3.53 3.529,6.676 3.913,7.136 0.537,0.614 1.765,0.691 13.888,0.691 12.124,0 13.352,-0.077 13.889,-0.691 0.384,-0.46 2.149,-3.76 3.99,-7.443 l 3.377,-6.676 v -14.272 -14.195 h 1.994 2.072 l 0.077,14.272 V -5.985 L -31,1.228 -27.164,8.44 H -13.352 0.46 L 4.067,1.458 7.673,-5.525 v -14.349 -14.272 l 1.765,-0.23 c 0.921,-0.154 2.686,-0.308 3.76,-0.384 1.842,-0.077 2.148,-0.23 2.455,-1.228 0.307,-0.921 0.307,-1.304 -0.307,-1.842 -0.69,-0.69 -3.913,-0.69 -51.718,-0.843 -40.514,-0.077 -51.257,0 -52.024,0.46 z" />
      </g>
      <g
         transform="translate(339.2349,561.2228)"
         id="g7844">
        <path
           inkscape:connector-curvature="0"
           id="path7846"
           style="fill:#a91d22;fill-opacity:1;fill-rule:nonzero;stroke:none"
           d="m 0,0 h 42.926 c 0.836,0 1.51,-0.673 1.51,-1.509 v -18.78 c 0,-0.836 -0.674,-1.509 -1.51,-1.509 H 0 c -0.836,0 -1.509,0.673 -1.509,1.509 v 18.78 C -1.509,-0.673 -0.836,0 0,0" />
      </g>
      <g
         transform="translate(352.9258,545.1286)"
         id="g7848">
        <path
           inkscape:connector-curvature="0"
           id="path7850"
           style="fill:#ffffff;fill-opacity:1;fill-rule:nonzero;stroke:none"
           d="M 0,0 H -2.703 V 4.324 H -6.6 V 0 H -9.302 V 10.391 H -6.6 V 6.379 h 3.897 v 4.012 H 0 Z" />
      </g>
      <g
         transform="translate(362.4336,545.1286)"
         id="g7852">
        <path
           inkscape:connector-curvature="0"
           id="path7854"
           style="fill:#ffffff;fill-opacity:1;fill-rule:nonzero;stroke:none"
           d="m 0,0 h -5.945 v 10.391 h 2.702 V 2.261 H 0 Z" />
      </g>
      <g
         transform="translate(377.7729,545.1286)"
         id="g7856">
        <path
           inkscape:connector-curvature="0"
           id="path7858"
           style="fill:#ffffff;fill-opacity:1;fill-rule:nonzero;stroke:none"
           d="M 0,0 H -2.703 L -3.471,5.983 -5.983,0 H -7.057 L -9.455,5.983 -10.338,0 h -2.687 l 1.766,10.391 h 2.664 l 2.109,-5.542 2.231,5.542 h 2.687 z" />
      </g>
    </g>
  </g>
</svg>
