<?xml version="1.0" encoding="UTF-8" standalone="no"?>
<!-- Created with Inkscape (http://www.inkscape.org/) -->

<svg
   xmlns:dc="http://purl.org/dc/elements/1.1/"
   xmlns:cc="http://creativecommons.org/ns#"
   xmlns:rdf="http://www.w3.org/1999/02/22-rdf-syntax-ns#"
   xmlns:svg="http://www.w3.org/2000/svg"
   xmlns="http://www.w3.org/2000/svg"
   xmlns:sodipodi="http://sodipodi.sourceforge.net/DTD/sodipodi-0.dtd"
   xmlns:inkscape="http://www.inkscape.org/namespaces/inkscape"
   width="200"
   height="200"
   viewBox="0 0 52.916666 52.916668"
   version="1.1"
   id="svg3506"
   inkscape:version="0.92.2 (5c3e80d, 2017-08-06)"
   sodipodi:docname="houses-couple.svg">
  <defs
     id="defs3500">
    <clipPath
       clipPathUnits="userSpaceOnUse"
       id="clipPath8806">
      <path
         d="m 217.174,529.313 h 7.516 v -7.393 h -7.516 z"
         id="path8804"
         inkscape:connector-curvature="0" />
    </clipPath>
    <clipPath
       clipPathUnits="userSpaceOnUse"
       id="clipPath8822">
      <path
         d="m 193.378,530.029 h 7.516 v -7.393 h -7.516 z"
         id="path8820"
         inkscape:connector-curvature="0" />
    </clipPath>
    <clipPath
       clipPathUnits="userSpaceOnUse"
       id="clipPath8838">
      <path
         d="m 239.785,536.821 h 7.516 v -7.393 h -7.516 z"
         id="path8836"
         inkscape:connector-curvature="0" />
    </clipPath>
  </defs>
  <sodipodi:namedview
     id="base"
     pagecolor="#ffffff"
     bordercolor="#666666"
     borderopacity="1.0"
     inkscape:pageopacity="0.0"
     inkscape:pageshadow="2"
     inkscape:zoom="1.979899"
     inkscape:cx="101.30835"
     inkscape:cy="84.953283"
     inkscape:document-units="mm"
     inkscape:current-layer="layer1"
     showgrid="false"
     units="px"
     inkscape:window-width="958"
     inkscape:window-height="974"
     inkscape:window-x="950"
     inkscape:window-y="0"
     inkscape:window-maximized="0" />
  <metadata
     id="metadata3503">
    <rdf:RDF>
      <cc:Work
         rdf:about="">
        <dc:format>image/svg+xml</dc:format>
        <dc:type
           rdf:resource="http://purl.org/dc/dcmitype/StillImage" />
        <dc:title></dc:title>
      </cc:Work>
    </rdf:RDF>
  </metadata>
  <g
     inkscape:label="Calque 1"
     inkscape:groupmode="layer"
     id="layer1"
     transform="translate(0,-244.08332)">
    <g
       transform="matrix(0.47566197,0,0,-0.44724931,-319.71605,499.65485)"
       id="g10732">
      <g
         transform="translate(759.2832,555.2702)"
         id="g8028">
        <path
           inkscape:connector-curvature="0"
           id="path8030"
           style="fill:#b0b2b0;fill-opacity:1;fill-rule:nonzero;stroke:none"
           d="m 0,0 -2.066,4.121 -10.153,-0.1 -10.153,-0.1 -1.991,-3.74 c -1.095,-2.057 -1.994,-3.867 -1.997,-4.021 -0.003,-0.154 6.391,-0.281 14.211,-0.281 H 2.066 Z m -40.58,-3.938 c 0,0.101 -0.88,1.952 -1.955,4.114 L -44.49,4.108 -54.598,4.101 -64.705,4.094 -66.838,-0.013 -68.97,-4.12 h 14.195 c 7.807,0 14.195,0.082 14.195,0.182 z m 29.31,-27.249 1.736,0.238 v 4.998 4.999 h -2.806 -2.806 v -5.236 -5.237 h 1.071 c 0.588,0 1.85,0.107 2.805,0.238 m -7.708,6.308 c 0.122,8.109 -0.27,7.667 6.795,7.667 3.508,0 5.326,-0.147 5.763,-0.467 0.555,-0.406 0.651,-1.337 0.73,-7.013 l 0.09,-6.546 4.391,-0.105 4.392,-0.106 v 11.794 11.794 H -12.34 -27.862 v -11.572 -11.573 l 1.402,-0.154 c 0.772,-0.084 2.749,-0.136 4.396,-0.115 l 2.992,0.037 z m -32.823,-1.309 v 5.236 h -2.805 -2.805 v -5.236 -5.237 h 2.805 2.805 z m -9.938,-4.649 c 0.486,0.486 0.588,1.644 0.588,6.719 0,5.68 0.052,6.16 0.723,6.519 0.398,0.213 2.988,0.387 5.756,0.387 6.96,0 6.583,0.432 6.703,-7.667 l 0.096,-6.359 h 4.301 4.301 l 0.099,11.689 0.099,11.688 h -15.528 -15.528 v -11.782 -11.782 h 3.901 c 3.047,0 4.03,0.129 4.489,0.588 m -18.489,-3.849 c -1.111,0.563 -1.359,1.671 -0.605,2.703 0.468,0.64 0.985,0.746 3.661,0.752 l 3.116,0.006 0.187,13.085 0.187,13.084 2.939,5.798 c 1.616,3.189 3.199,6.092 3.517,6.452 0.53,0.598 1.623,0.655 12.62,0.655 10.997,0 12.09,-0.057 12.62,-0.655 0.318,-0.36 1.943,-3.388 3.611,-6.728 l 3.032,-6.074 v -12.909 -12.908 h 1.87 1.87 l 0.014,12.998 0.014,12.997 3.446,6.546 3.445,6.546 h 12.531 12.53 l 3.26,-6.359 3.259,-6.359 0.014,-12.974 0.013,-12.975 1.59,-0.212 c 0.874,-0.116 2.427,-0.253 3.452,-0.304 1.663,-0.082 1.902,-0.203 2.225,-1.125 0.287,-0.819 0.227,-1.171 -0.287,-1.684 -0.607,-0.608 -3.581,-0.654 -46.922,-0.739 -36.746,-0.072 -46.466,0.007 -47.209,0.383 m 80.15,-13.106 -2.163,4.204 -8.599,0.126 c -4.729,0.069 -9.28,0.024 -10.112,-0.101 -1.495,-0.225 -1.538,-0.275 -3.464,-4.148 -1.072,-2.157 -1.95,-4.003 -1.95,-4.103 0,-0.101 6.401,-0.183 14.225,-0.183 H 2.086 Z m -40.516,-3.738 c -0.008,0.258 -0.891,2.151 -1.964,4.208 l -1.949,3.741 h -10.054 -10.053 l -2.23,-4.208 -2.229,-4.208 h 14.247 c 11.155,0 14.243,0.102 14.232,0.467 m 31.06,-22.348 v 5.049 h -2.806 -2.806 v -5.049 -5.05 h 2.806 2.806 z m -3.565,13.289 c -0.544,0.602 -0.612,0.971 -0.329,1.777 l 0.358,1.017 6.782,0.102 c 5.799,0.087 6.869,0.015 7.379,-0.494 0.837,-0.837 0.74,-1.895 -0.236,-2.579 -0.671,-0.47 -2.027,-0.582 -7.048,-0.582 -5.774,0 -6.267,0.054 -6.906,0.759 m -7.038,-0.075 c -1.298,1.434 -0.535,3.057 1.439,3.057 1.433,0 2.056,-0.586 2.056,-1.933 0,-1.71 -2.295,-2.449 -3.495,-1.124 m 1.251,-11.932 c 0,5.258 0.1,6.432 0.588,6.92 0.482,0.481 1.59,0.588 6.126,0.588 3.979,0 5.645,-0.132 5.918,-0.468 0.211,-0.26 0.439,-3.325 0.513,-6.919 l 0.134,-6.45 4.395,-0.001 4.395,-0.001 v 11.595 11.595 H -12.34 -27.862 v -11.595 -11.595 h 4.488 4.488 v 6.332 z m -32.915,-1.282 v 5.049 h -2.805 -2.805 v -5.049 -5.05 h 2.805 2.805 z m -9.369,1.326 c -0.031,4.485 0.09,6.538 0.407,6.92 0.687,0.828 11.282,0.789 12.115,-0.044 0.488,-0.488 0.587,-1.662 0.587,-6.92 v -6.332 h 4.489 4.488 v 11.596 11.595 h -15.522 -15.523 v -11.595 -11.596 h 4.502 4.501 l -0.044,6.377 z m -19.592,-9.529 c -0.83,0.831 -0.729,1.89 0.243,2.571 0.58,0.406 1.713,0.582 3.741,0.582 h 2.909 v 12.906 12.906 l 3.378,6.503 c 2.522,4.857 3.588,6.56 4.208,6.726 1.102,0.296 22.281,0.288 23.388,-0.009 0.673,-0.18 1.605,-1.709 4.208,-6.911 l 3.344,-6.679 v -12.721 -12.721 h 1.87 1.87 v 12.779 12.779 l 3.201,6.204 c 1.76,3.411 3.547,6.497 3.968,6.857 0.696,0.593 1.853,0.655 12.161,0.655 7.198,0 11.659,-0.144 12.12,-0.391 0.402,-0.215 2.157,-3.241 3.903,-6.728 l 3.173,-6.338 V -66.02 -78.928 h 2.909 c 2.027,0 3.161,-0.176 3.74,-0.582 0.973,-0.682 1.074,-1.741 0.244,-2.571 -0.528,-0.528 -5.332,-0.587 -47.289,-0.587 -41.957,0 -46.76,0.059 -47.289,0.587" />
      </g>
    </g>
    <g
       id="g4346"
       transform="matrix(0.47566197,0,0,-0.44724931,-332.92673,500.41091)">
      <path
         inkscape:connector-curvature="0"
         id="path4287"
         d="m 760.66022,509.7166 c 0,0 1.83533,-16.68595 1.83533,-16.68595 h 13.2555 l 1.821,16.68024 z"
         style="fill:#ffffff;fill-opacity:1;stroke:none;stroke-width:0.75px;stroke-linecap:butt;stroke-linejoin:miter;stroke-opacity:1" />
      <g
         transform="matrix(0.28586515,0,0,-0.28586515,734.80658,525.94516)"
         id="g4261">
        <polygon
           points="145.46,94.67 94.61,94.67 95.17,99.79 144.9,99.79 "
           id="polygon2"
           style="fill:#0094ab;fill-opacity:1" />
        <polygon
           points="144.34,104.91 95.73,104.91 96.3,110.02 143.79,110.02 "
           id="polygon4"
           style="fill:#0094ab;fill-opacity:1" />
        <polygon
           points="149.6,56.79 90.44,56.77 91.79,69.07 148.26,69.07 "
           id="polygon6"
           style="fill:#0094ab;fill-opacity:1" />
        <polygon
           points="118.12,126.76 122.01,126.75 122.01,230 135.92,230 141.96,126.72 143.23,115.14 96.86,115.14 98.13,126.68 104.21,230 118.12,230 "
           id="polygon8"
           style="fill:#0094ab;fill-opacity:1" />
        <polygon
           points="147.7,74.19 92.35,74.19 92.92,79.31 147.14,79.31 "
           id="polygon10"
           style="fill:#0094ab;fill-opacity:1" />
        <polygon
           points="146.58,84.43 93.48,84.43 94.04,89.55 146.02,89.55 "
           id="polygon12"
           style="fill:#0094ab;fill-opacity:1" />
        <rect
           x="150.87"
           y="56.790001"
           width="8.1899996"
           height="75.809998"
           id="rect14"
           style="fill:#0094ab;fill-opacity:1" />
        <rect
           x="80.940002"
           y="56.77"
           width="8.1899996"
           height="75.809998"
           id="rect16"
           style="fill:#0094ab;fill-opacity:1" />
        <g
           id="g20"
           style="fill:#0094ab;fill-opacity:1">
          <path
             inkscape:connector-curvature="0"
             d="m 119.84,50.45 c 9.02,0 16.32,-8.45 16.32,-18.86 0,-3.56 -0.87,-6.86 -2.35,-9.7 0.96,-2.1 1.85,-4.44 2.45,-6.93 0,0 -1.86,0.56 -4.5,1 0.59,-1.89 1.12,-3.86 1.41,-5.96 -3.26,1.46 -6.87,2.61 -10.51,3.02 -0.92,-0.19 -1.86,-0.3 -2.82,-0.3 -0.94,0 -1.86,0.11 -2.76,0.29 -0.24,0.05 -0.48,0.09 -0.71,0.15 -7.34,1.84 -12.84,9.39 -12.84,18.43 -0.01,10.41 7.29,18.86 16.31,18.86"
             id="path18"
             style="fill:#0094ab;fill-opacity:1" />
        </g>
      </g>
    </g>
    <g
       id="g4403"
       transform="matrix(0.47566197,0,0,-0.44724931,-355.63891,492.72903)">
      <path
         inkscape:connector-curvature="0"
         id="path4348"
         d="M 782.0257,492.58169 780.86965,476.746 h 13.3176 l -1.1418,15.83569 z"
         style="fill:#fbffff;fill-opacity:1;stroke:none;stroke-width:0.75px;stroke-linecap:butt;stroke-linejoin:miter;stroke-opacity:1" />
      <g
         transform="matrix(0.28615264,0,0,-0.28615264,753.17294,508.77221)"
         id="g4285">
        <path
           inkscape:connector-curvature="0"
           d="m 120,50.28 c 7.36,0 13.61,-5.32 16.14,-12.81 H 142 L 137.18,28 A 20.78,20.78 0 0 0 129.76,13.5 15.65,15.65 0 0 0 120,10 a 15.84,15.84 0 0 0 -10.82,4.5 21,21 0 0 0 -6.32,12.93 l -4.9,10 h 5.9 c 2.53,7.57 8.78,12.85 16.14,12.85"
           id="path2"
           style="fill:#0094ab;fill-opacity:1" />
        <polygon
           points="142.22,96.56 141.85,91.44 98.28,91.44 97.91,96.56 "
           id="polygon4-4"
           style="fill:#0094ab;fill-opacity:1" />
        <polygon
           points="142.59,101.68 97.53,101.68 97.16,106.8 142.96,106.8 "
           id="polygon6-3"
           style="fill:#0094ab;fill-opacity:1" />
        <polygon
           points="140.01,65.83 139.34,56.58 100.83,56.58 100.15,65.83 "
           id="polygon8-2"
           style="fill:#0094ab;fill-opacity:1" />
        <polygon
           points="95.66,126.62 109.35,230 118.72,230 118.72,126.59 121.28,126.58 121.28,229.93 130.63,229.93 144.34,126.55 144.38,126.55 143.33,111.92 96.79,111.92 95.71,126.62 "
           id="polygon10-0"
           style="fill:#0094ab;fill-opacity:1" />
        <polygon
           points="141.49,86.32 141.12,81.19 99.03,81.19 98.66,86.32 "
           id="polygon12-6"
           style="fill:#0094ab;fill-opacity:1" />
        <polygon
           points="140.75,76.07 140.38,70.95 99.78,70.95 99.41,76.07 "
           id="polygon14"
           style="fill:#0094ab;fill-opacity:1" />
        <rect
           x="53.919998"
           y="89.910004"
           width="75.860001"
           height="8.1899996"
           transform="rotate(-84.95,91.851058,94.010789)"
           id="rect16-1"
           style="fill:#0094ab;fill-opacity:1" />
        <rect
           x="144.05"
           y="56.080002"
           width="8.1899996"
           height="75.860001"
           transform="rotate(-5.05,148.08393,94.005318)"
           id="rect18"
           style="fill:#0094ab;fill-opacity:1" />
      </g>
    </g>
  </g>
</svg>
