<?xml version="1.0" encoding="UTF-8" standalone="no"?>
<!-- Created with Inkscape (http://www.inkscape.org/) -->

<svg
   xmlns:dc="http://purl.org/dc/elements/1.1/"
   xmlns:cc="http://creativecommons.org/ns#"
   xmlns:rdf="http://www.w3.org/1999/02/22-rdf-syntax-ns#"
   xmlns:svg="http://www.w3.org/2000/svg"
   xmlns="http://www.w3.org/2000/svg"
   xmlns:sodipodi="http://sodipodi.sourceforge.net/DTD/sodipodi-0.dtd"
   xmlns:inkscape="http://www.inkscape.org/namespaces/inkscape"
   width="200"
   height="200"
   viewBox="0 0 52.916666 52.916668"
   version="1.1"
   id="svg3506"
   inkscape:version="0.92.2 (5c3e80d, 2017-08-06)"
   sodipodi:docname="district-hlm-2.svg">
  <defs
     id="defs3500">
    <clipPath
       clipPathUnits="userSpaceOnUse"
       id="clipPath8806">
      <path
         d="m 217.174,529.313 h 7.516 v -7.393 h -7.516 z"
         id="path8804"
         inkscape:connector-curvature="0" />
    </clipPath>
    <clipPath
       clipPathUnits="userSpaceOnUse"
       id="clipPath8822">
      <path
         d="m 193.378,530.029 h 7.516 v -7.393 h -7.516 z"
         id="path8820"
         inkscape:connector-curvature="0" />
    </clipPath>
    <clipPath
       clipPathUnits="userSpaceOnUse"
       id="clipPath8838">
      <path
         d="m 239.785,536.821 h 7.516 v -7.393 h -7.516 z"
         id="path8836"
         inkscape:connector-curvature="0" />
    </clipPath>
  </defs>
  <sodipodi:namedview
     id="base"
     pagecolor="#ffffff"
     bordercolor="#666666"
     borderopacity="1.0"
     inkscape:pageopacity="0.0"
     inkscape:pageshadow="2"
     inkscape:zoom="1.4"
     inkscape:cx="95.602941"
     inkscape:cy="204.71975"
     inkscape:document-units="mm"
     inkscape:current-layer="layer1"
     showgrid="false"
     units="px"
     inkscape:window-width="958"
     inkscape:window-height="974"
     inkscape:window-x="950"
     inkscape:window-y="0"
     inkscape:window-maximized="0" />
  <metadata
     id="metadata3503">
    <rdf:RDF>
      <cc:Work
         rdf:about="">
        <dc:format>image/svg+xml</dc:format>
        <dc:type
           rdf:resource="http://purl.org/dc/dcmitype/StillImage" />
        <dc:title></dc:title>
      </cc:Work>
    </rdf:RDF>
  </metadata>
  <g
     inkscape:label="Calque 1"
     inkscape:groupmode="layer"
     id="layer1"
     transform="translate(0,-244.08332)">
    <g
       transform="matrix(0.35277777,0,0,-0.35277777,-146.62614,452.69674)"
       id="g10712">
      <g
         transform="translate(527.3467,509.9582)"
         id="g7860">
        <path
           inkscape:connector-curvature="0"
           id="path7862"
           style="fill:#b6b7b5;fill-opacity:1;fill-rule:nonzero;stroke:none"
           d="M 0,0 -2.151,4.378 -12.986,4.304 -23.821,4.23 -25.974,0.223 c -1.113,-2.227 -2.078,-4.156 -2.078,-4.305 0,-0.148 6.828,-0.297 15.14,-0.297 H 2.227 Z m -43.265,-4.156 c 0,0.074 -0.89,2.078 -2.078,4.379 l -2.077,4.155 h -10.761 -10.76 L -71.242,0 -73.543,-4.378 h 15.14 c 8.385,0 15.138,0.074 15.138,0.222 m 31.244,-29.091 1.854,0.298 v 5.269 5.343 h -2.968 -2.969 v -5.566 -5.566 h 1.114 c 0.668,0 2.004,0.074 2.969,0.223 z m -8.164,6.754 c 0.075,8.608 -0.296,8.163 7.199,8.163 3.784,0 5.714,-0.149 6.159,-0.52 0.594,-0.445 0.742,-1.409 0.816,-7.495 l 0.074,-6.976 4.676,-0.074 4.675,-0.148 v 12.616 12.541 h -16.549 -16.549 v -12.319 -12.319 l 1.485,-0.148 c 0.816,-0.148 2.968,-0.148 4.675,-0.148 h 3.191 z m -35.028,-1.41 v 5.566 h -2.968 -2.968 v -5.566 -5.566 h 2.968 2.968 z m -10.611,-4.972 c 0.518,0.519 0.667,1.781 0.667,7.198 0,6.011 0.074,6.531 0.742,6.902 0.445,0.222 3.191,0.445 6.16,0.445 7.421,0 6.976,0.445 7.124,-8.163 l 0.149,-6.828 h 4.526 4.602 l 0.148,12.468 0.074,12.467 h -16.549 -16.548 v -12.541 -12.542 h 4.155 c 3.265,0 4.304,0.148 4.75,0.594 m -19.666,-4.082 c -1.188,0.594 -1.485,1.781 -0.668,2.894 0.519,0.668 1.039,0.742 3.932,0.816 h 3.266 l 0.223,13.952 0.222,13.952 3.118,6.159 c 1.706,3.414 3.413,6.457 3.784,6.902 0.519,0.593 1.707,0.668 13.432,0.668 11.725,0 12.912,-0.075 13.432,-0.668 0.371,-0.445 2.078,-3.636 3.859,-7.198 l 3.265,-6.457 V -19.74 -33.469 h 1.93 2.004 l 0.074,13.803 v 13.877 l 3.637,6.976 3.709,6.976 H -12.912 0.445 L 3.934,1.41 7.422,-5.343 v -13.878 -13.803 l 1.706,-0.223 c 0.891,-0.148 2.598,-0.296 3.637,-0.37 1.781,-0.075 2.078,-0.223 2.374,-1.188 0.298,-0.89 0.298,-1.261 -0.297,-1.781 -0.668,-0.668 -3.784,-0.668 -50.018,-0.816 -39.183,-0.075 -49.572,0 -50.314,0.445" />
      </g>
      <g
         transform="translate(527.3467,557.1306)"
         id="g7864">
        <path
           inkscape:connector-curvature="0"
           id="path7866"
           style="fill:#a91d22;fill-opacity:1;fill-rule:nonzero;stroke:none"
           d="M 0,0 -2.151,4.378 -12.986,4.304 -23.821,4.229 -25.974,0.222 c -1.113,-2.226 -2.078,-4.156 -2.078,-4.304 0,-0.148 6.828,-0.297 15.14,-0.297 H 2.227 Z m -43.265,-4.156 c 0,0.074 -0.89,2.078 -2.078,4.379 l -2.077,4.155 h -10.761 -10.76 L -71.242,0 -73.543,-4.378 h 15.14 c 8.385,0 15.138,0.074 15.138,0.222 m 31.244,-29.091 1.854,0.297 v 5.269 5.344 h -2.968 -2.969 v -5.566 -5.566 h 1.114 c 0.668,0 2.004,0.074 2.969,0.222 m -8.164,6.754 c 0.075,8.608 -0.296,8.163 7.199,8.163 3.784,0 5.714,-0.149 6.159,-0.52 0.594,-0.445 0.742,-1.41 0.816,-7.495 l 0.074,-6.976 4.676,-0.074 4.675,-0.148 v 12.615 12.542 h -16.549 -16.549 v -12.319 -12.319 l 1.485,-0.148 c 0.816,-0.148 2.968,-0.148 4.675,-0.148 h 3.191 z m -35.028,-1.41 v 5.566 h -2.968 -2.968 v -5.566 -5.566 h 2.968 2.968 z m -10.611,-4.972 c 0.519,0.519 0.667,1.781 0.667,7.198 0,6.011 0.074,6.531 0.742,6.902 0.445,0.222 3.191,0.445 6.16,0.445 7.421,0 6.976,0.445 7.124,-8.163 l 0.149,-6.828 h 4.526 4.602 l 0.148,12.467 0.074,12.468 h -16.549 -16.548 v -12.542 -12.541 h 4.155 c 3.265,0 4.304,0.148 4.75,0.594 m -19.666,-4.082 c -1.188,0.594 -1.485,1.781 -0.668,2.894 0.519,0.668 1.039,0.742 3.932,0.816 h 3.266 l 0.223,13.952 0.222,13.952 3.118,6.159 c 1.706,3.414 3.413,6.456 3.784,6.902 0.519,0.594 1.707,0.668 13.432,0.668 11.725,0 12.912,-0.074 13.432,-0.668 0.371,-0.446 2.078,-3.636 3.859,-7.198 l 3.265,-6.457 V -19.74 -33.469 h 1.93 2.004 l 0.074,13.803 v 13.877 l 3.637,6.976 3.709,6.976 H -12.912 0.445 L 3.934,1.41 7.422,-5.343 v -13.878 -13.803 l 1.706,-0.223 c 0.891,-0.148 2.598,-0.296 3.637,-0.371 1.781,-0.074 2.078,-0.222 2.374,-1.187 0.298,-0.89 0.298,-1.261 -0.297,-1.781 -0.668,-0.668 -3.784,-0.668 -50.018,-0.816 -39.183,-0.075 -49.572,0 -50.314,0.445" />
      </g>
      <g
         transform="translate(471.0791,557.5671)"
         id="g7868">
        <path
           inkscape:connector-curvature="0"
           id="path7870"
           style="fill:#3a98ab;fill-opacity:1;fill-rule:nonzero;stroke:none"
           d="m 0,0 h 40.252 c 0.784,0 1.416,-0.631 1.416,-1.415 v -17.61 c 0,-0.784 -0.632,-1.415 -1.416,-1.415 L 0,-20.44 c -0.784,0 -1.415,0.631 -1.415,1.415 v 17.61 C -1.415,-0.631 -0.784,0 0,0" />
      </g>
      <g
         transform="translate(483.917,542.4753)"
         id="g7872">
        <path
           inkscape:connector-curvature="0"
           id="path7874"
           style="fill:#ffffff;fill-opacity:1;fill-rule:nonzero;stroke:none"
           d="M 0,0 H -2.534 V 4.054 H -6.188 V 0 h -2.535 v 9.743 h 2.535 V 5.981 h 3.654 V 9.743 H 0 Z" />
      </g>
      <g
         transform="translate(492.833,542.4753)"
         id="g7876">
        <path
           inkscape:connector-curvature="0"
           id="path7878"
           style="fill:#ffffff;fill-opacity:1;fill-rule:nonzero;stroke:none"
           d="m 0,0 h -5.575 v 9.743 h 2.534 V 2.12 H 0 Z" />
      </g>
      <g
         transform="translate(507.2168,542.4753)"
         id="g7880">
        <path
           inkscape:connector-curvature="0"
           id="path7882"
           style="fill:#ffffff;fill-opacity:1;fill-rule:nonzero;stroke:none"
           d="M 0,0 H -2.534 L -3.255,5.61 -5.611,0 H -6.617 L -8.866,5.61 -9.694,0 h -2.52 l 1.656,9.743 h 2.498 l 1.978,-5.196 2.092,5.196 h 2.519 z" />
      </g>
    </g>
  </g>
</svg>
