<?xml version="1.0" encoding="UTF-8" standalone="no"?>
<!-- Created with Inkscape (http://www.inkscape.org/) -->

<svg
   xmlns:dc="http://purl.org/dc/elements/1.1/"
   xmlns:cc="http://creativecommons.org/ns#"
   xmlns:rdf="http://www.w3.org/1999/02/22-rdf-syntax-ns#"
   xmlns:svg="http://www.w3.org/2000/svg"
   xmlns="http://www.w3.org/2000/svg"
   xmlns:sodipodi="http://sodipodi.sourceforge.net/DTD/sodipodi-0.dtd"
   xmlns:inkscape="http://www.inkscape.org/namespaces/inkscape"
   width="200"
   height="200"
   viewBox="0 0 52.916666 52.916668"
   version="1.1"
   id="svg3506"
   inkscape:version="0.92.2 (5c3e80d, 2017-08-06)"
   sodipodi:docname="female.svg">
  <defs
     id="defs3500">
    <clipPath
       clipPathUnits="userSpaceOnUse"
       id="clipPath8806">
      <path
         d="m 217.174,529.313 h 7.516 v -7.393 h -7.516 z"
         id="path8804"
         inkscape:connector-curvature="0" />
    </clipPath>
    <clipPath
       clipPathUnits="userSpaceOnUse"
       id="clipPath8822">
      <path
         d="m 193.378,530.029 h 7.516 v -7.393 h -7.516 z"
         id="path8820"
         inkscape:connector-curvature="0" />
    </clipPath>
    <clipPath
       clipPathUnits="userSpaceOnUse"
       id="clipPath8838">
      <path
         d="m 239.785,536.821 h 7.516 v -7.393 h -7.516 z"
         id="path8836"
         inkscape:connector-curvature="0" />
    </clipPath>
  </defs>
  <sodipodi:namedview
     id="base"
     pagecolor="#ffffff"
     bordercolor="#666666"
     borderopacity="1.0"
     inkscape:pageopacity="0.0"
     inkscape:pageshadow="2"
     inkscape:zoom="1.979899"
     inkscape:cx="92.469515"
     inkscape:cy="84.953283"
     inkscape:document-units="mm"
     inkscape:current-layer="layer1"
     showgrid="false"
     units="px"
     inkscape:window-width="958"
     inkscape:window-height="974"
     inkscape:window-x="950"
     inkscape:window-y="0"
     inkscape:window-maximized="0" />
  <metadata
     id="metadata3503">
    <rdf:RDF>
      <cc:Work
         rdf:about="">
        <dc:format>image/svg+xml</dc:format>
        <dc:type
           rdf:resource="http://purl.org/dc/dcmitype/StillImage" />
        <dc:title></dc:title>
      </cc:Work>
    </rdf:RDF>
  </metadata>
  <g
     inkscape:label="Calque 1"
     inkscape:groupmode="layer"
     id="layer1"
     transform="translate(0,-244.08332)">
    <g
       id="g4403"
       transform="matrix(0.69239194,0,0,-0.65103339,-519.49502,579.10189)">
      <path
         inkscape:connector-curvature="0"
         id="path4348"
         d="M 782.0257,492.58169 780.86965,476.746 h 13.3176 l -1.1418,15.83569 z"
         style="fill:#fbffff;fill-opacity:1;stroke:none;stroke-width:0.75px;stroke-linecap:butt;stroke-linejoin:miter;stroke-opacity:1" />
      <g
         transform="matrix(0.28615264,0,0,-0.28615264,753.17294,508.77221)"
         id="g4285">
        <path
           inkscape:connector-curvature="0"
           d="m 120,50.28 c 7.36,0 13.61,-5.32 16.14,-12.81 H 142 L 137.18,28 A 20.78,20.78 0 0 0 129.76,13.5 15.65,15.65 0 0 0 120,10 a 15.84,15.84 0 0 0 -10.82,4.5 21,21 0 0 0 -6.32,12.93 l -4.9,10 h 5.9 c 2.53,7.57 8.78,12.85 16.14,12.85"
           id="path2"
           style="fill:#0094ab;fill-opacity:1" />
        <polygon
           points="97.91,96.56 142.22,96.56 141.85,91.44 98.28,91.44 "
           id="polygon4-4"
           style="fill:#0094ab;fill-opacity:1" />
        <polygon
           points="142.96,106.8 142.59,101.68 97.53,101.68 97.16,106.8 "
           id="polygon6-3"
           style="fill:#0094ab;fill-opacity:1" />
        <polygon
           points="100.15,65.83 140.01,65.83 139.34,56.58 100.83,56.58 "
           id="polygon8-2"
           style="fill:#0094ab;fill-opacity:1" />
        <polygon
           points="144.34,126.55 144.38,126.55 143.33,111.92 96.79,111.92 95.71,126.62 95.66,126.62 109.35,230 118.72,230 118.72,126.59 121.28,126.58 121.28,229.93 130.63,229.93 "
           id="polygon10-0"
           style="fill:#0094ab;fill-opacity:1" />
        <polygon
           points="98.66,86.32 141.49,86.32 141.12,81.19 99.03,81.19 "
           id="polygon12-6"
           style="fill:#0094ab;fill-opacity:1" />
        <polygon
           points="99.41,76.07 140.75,76.07 140.38,70.95 99.78,70.95 "
           id="polygon14"
           style="fill:#0094ab;fill-opacity:1" />
        <rect
           x="53.919998"
           y="89.910004"
           width="75.860001"
           height="8.1899996"
           transform="rotate(-84.95,91.851058,94.010789)"
           id="rect16-1"
           style="fill:#0094ab;fill-opacity:1" />
        <rect
           x="144.05"
           y="56.080002"
           width="8.1899996"
           height="75.860001"
           transform="rotate(-5.05,148.08393,94.005318)"
           id="rect18"
           style="fill:#0094ab;fill-opacity:1" />
      </g>
    </g>
  </g>
</svg>
