<?xml version="1.0" encoding="UTF-8" standalone="no"?>
<!-- Created with Inkscape (http://www.inkscape.org/) -->

<svg
   xmlns:dc="http://purl.org/dc/elements/1.1/"
   xmlns:cc="http://creativecommons.org/ns#"
   xmlns:rdf="http://www.w3.org/1999/02/22-rdf-syntax-ns#"
   xmlns:svg="http://www.w3.org/2000/svg"
   xmlns="http://www.w3.org/2000/svg"
   xmlns:sodipodi="http://sodipodi.sourceforge.net/DTD/sodipodi-0.dtd"
   xmlns:inkscape="http://www.inkscape.org/namespaces/inkscape"
   width="200"
   height="200"
   viewBox="0 0 52.916666 52.916668"
   version="1.1"
   id="svg3506"
   inkscape:version="0.92.2 (5c3e80d, 2017-08-06)"
   sodipodi:docname="funding.svg">
  <defs
     id="defs3500">
    <clipPath
       clipPathUnits="userSpaceOnUse"
       id="clipPath8806">
      <path
         d="m 217.174,529.313 h 7.516 v -7.393 h -7.516 z"
         id="path8804"
         inkscape:connector-curvature="0" />
    </clipPath>
    <clipPath
       clipPathUnits="userSpaceOnUse"
       id="clipPath8822">
      <path
         d="m 193.378,530.029 h 7.516 v -7.393 h -7.516 z"
         id="path8820"
         inkscape:connector-curvature="0" />
    </clipPath>
    <clipPath
       clipPathUnits="userSpaceOnUse"
       id="clipPath8838">
      <path
         d="m 239.785,536.821 h 7.516 v -7.393 h -7.516 z"
         id="path8836"
         inkscape:connector-curvature="0" />
    </clipPath>
    <clipPath
       clipPathUnits="userSpaceOnUse"
       id="clipPath8586">
      <path
         d="m 376.612,193.18 h 17.074 v -17.075 h -17.074 z"
         id="path8584"
         inkscape:connector-curvature="0" />
    </clipPath>
    <clipPath
       clipPathUnits="userSpaceOnUse"
       id="clipPath8702">
      <path
         d="m 792.929,209.492 h 8.097 v -7.964 h -8.097 z"
         id="path8700"
         inkscape:connector-curvature="0" />
    </clipPath>
    <clipPath
       clipPathUnits="userSpaceOnUse"
       id="clipPath8686">
      <path
         d="m 742.939,202.176 h 8.097 v -7.964 h -8.097 z"
         id="path8684"
         inkscape:connector-curvature="0" />
    </clipPath>
    <clipPath
       clipPathUnits="userSpaceOnUse"
       id="clipPath8670">
      <path
         d="m 768.573,201.405 h 8.096 v -7.964 h -8.096 z"
         id="path8668"
         inkscape:connector-curvature="0" />
    </clipPath>
    <clipPath
       clipPathUnits="userSpaceOnUse"
       id="clipPath8390">
      <path
         d="M 88.1177,87.0158 H 100.08 V 75.0535 H 88.1177 Z"
         id="path8388"
         inkscape:connector-curvature="0" />
    </clipPath>
    <clipPath
       clipPathUnits="userSpaceOnUse"
       id="clipPath8374">
      <path
         d="M 67.5484,86.7241 H 79.5107 V 74.7618 H 67.5484 Z"
         id="path8372"
         inkscape:connector-curvature="0" />
    </clipPath>
    <clipPath
       clipPathUnits="userSpaceOnUse"
       id="clipPath8358">
      <path
         d="M 46.8331,86.8699 H 58.7954 V 74.9076 H 46.8331 Z"
         id="path8356"
         inkscape:connector-curvature="0" />
    </clipPath>
    <clipPath
       clipPathUnits="userSpaceOnUse"
       id="clipPath8542">
      <path
         d="M 189.832,90.7442 H 201.03 V 79.5456 h -11.198 z"
         id="path8540"
         inkscape:connector-curvature="0" />
    </clipPath>
    <clipPath
       clipPathUnits="userSpaceOnUse"
       id="clipPath8526">
      <path
         d="m 170.663,90.7442 h 11.198 V 79.5456 h -11.198 z"
         id="path8524"
         inkscape:connector-curvature="0" />
    </clipPath>
    <clipPath
       clipPathUnits="userSpaceOnUse"
       id="clipPath8510">
      <path
         d="m 151.233,90.8746 h 11.199 V 79.676 h -11.199 z"
         id="path8508"
         inkscape:connector-curvature="0" />
    </clipPath>
    <clipPath
       clipPathUnits="userSpaceOnUse"
       id="clipPath8478">
      <path
         d="m 139.758,103.132 h 11.198 V 91.9337 h -11.198 z"
         id="path8476"
         inkscape:connector-curvature="0" />
    </clipPath>
    <clipPath
       clipPathUnits="userSpaceOnUse"
       id="clipPath8462">
      <path
         d="m 158.927,103.393 h 11.198 V 92.1945 h -11.198 z"
         id="path8460"
         inkscape:connector-curvature="0" />
    </clipPath>
    <clipPath
       clipPathUnits="userSpaceOnUse"
       id="clipPath8446">
      <path
         d="m 178.356,103.263 h 11.199 V 92.0641 h -11.199 z"
         id="path8444"
         inkscape:connector-curvature="0" />
    </clipPath>
    <clipPath
       clipPathUnits="userSpaceOnUse"
       id="clipPath8430">
      <path
         d="m 198.568,103.132 h 11.199 V 91.9337 h -11.199 z"
         id="path8428"
         inkscape:connector-curvature="0" />
    </clipPath>
    <clipPath
       clipPathUnits="userSpaceOnUse"
       id="clipPath8318">
      <path
         d="m 792.405,95.1114 h 9.528 v -9.3722 h -9.528 z"
         id="path8316"
         inkscape:connector-curvature="0" />
    </clipPath>
    <clipPath
       clipPathUnits="userSpaceOnUse"
       id="clipPath8302">
      <path
         d="m 733.576,86.5021 h 9.528 v -9.3722 h -9.528 z"
         id="path8300"
         inkscape:connector-curvature="0" />
    </clipPath>
    <clipPath
       clipPathUnits="userSpaceOnUse"
       id="clipPath8286">
      <path
         d="m 763.741,85.5939 h 9.528 v -9.3722 h -9.528 z"
         id="path8284"
         inkscape:connector-curvature="0" />
    </clipPath>
  </defs>
  <sodipodi:namedview
     id="base"
     pagecolor="#ffffff"
     bordercolor="#666666"
     borderopacity="1.0"
     inkscape:pageopacity="0.0"
     inkscape:pageshadow="2"
     inkscape:zoom="1.4"
     inkscape:cx="103.75981"
     inkscape:cy="185.44556"
     inkscape:document-units="mm"
     inkscape:current-layer="layer1"
     showgrid="false"
     units="px"
     inkscape:window-width="958"
     inkscape:window-height="974"
     inkscape:window-x="950"
     inkscape:window-y="0"
     inkscape:window-maximized="0" />
  <metadata
     id="metadata3503">
    <rdf:RDF>
      <cc:Work
         rdf:about="">
        <dc:format>image/svg+xml</dc:format>
        <dc:type
           rdf:resource="http://purl.org/dc/dcmitype/StillImage" />
        <dc:title></dc:title>
      </cc:Work>
    </rdf:RDF>
  </metadata>
  <g
     inkscape:label="Calque 1"
     inkscape:groupmode="layer"
     id="layer1"
     transform="translate(0,-244.08332)">
    <g
       id="g9421"
       transform="matrix(0.3987061,0,0,-0.3987061,39.811234,279.16587)">
      <path
         d="M 0,0 -0.007,0.002 -0.008,0.001 V -0.003 C -0.005,-0.002 -0.003,-0.001 0,0"
         style="fill:#b0b2b0;fill-opacity:1;fill-rule:nonzero;stroke:none"
         id="path9423"
         inkscape:connector-curvature="0" />
    </g>
    <g
       id="g9425"
       transform="matrix(0.3987061,0,0,-0.3987061,40.120392,278.98637)">
      <path
         d="m 0,0 c 0.062,-0.054 0.173,-0.174 0.205,-0.369 0.154,-0.179 0.25,-0.476 0.087,-0.969 l -3.781,-11.389 c -0.186,-0.559 -0.816,-0.783 -1.265,-0.634 l -13.95,4.632 c -0.738,0.246 -1.071,0.901 -0.919,1.359 l 3.781,11.389 c 0.186,0.559 0.816,0.783 1.264,0.634 L -0.808,0.081 C -0.474,0.203 -0.203,0.176 0,0 m -11.515,8.483 3.903,11.698 c 0.279,0.42 1.129,1.698 2.596,1.211 l 0.656,-0.217 -0.279,-3.678 c -0.052,-0.566 0.202,-1.228 0.647,-1.696 0.376,-0.394 0.826,-0.599 1.269,-0.578 0.627,-0.055 1.289,0.2 1.757,0.646 0.394,0.376 0.601,0.827 0.578,1.269 l 1.716,21.41 c 0.071,1.364 1.151,2.368 2.503,2.328 0.832,-0.158 1.493,-0.33 2.009,-0.93 0.454,-0.528 0.754,-0.976 0.469,-1.9 L 6.127,33.434 5.355,16.827 C 5.269,15.17 4.966,13.567 4.464,12.055 3.628,9.538 2.241,7.276 0.38,5.452 L -0.441,4.806 Z m 20.14,2.585 c 0.602,1.81 0.943,3.629 1.076,5.725 l 0.954,21.272 c 0.109,1.701 -0.544,3.532 -1.788,5.035 -1.255,1.249 -3.049,2.03 -4.771,2.057 -3.719,-0.068 -6.717,-2.854 -6.83,-6.354 l -1.172,-13.145 -0.526,0.079 c -2.869,0.433 -5.894,-1.081 -7.192,-3.602 L -15.867,9.335 -16.12,9.262 C -17.96,8.73 -19.357,7.393 -19.954,5.595 l -3.845,-11.578 c -0.922,-2.779 0.646,-5.905 3.423,-6.827 l 13.951,-4.632 c 2.981,-0.99 6.063,0.486 7.017,3.36 L 4.373,-2.693 C 4.794,-1.426 4.661,0.182 3.998,1.833 3.966,1.895 3.938,1.951 3.915,1.995 L 3.317,2.24 3.714,2.799 C 5.968,5.258 7.62,8.04 8.625,11.068"
         style="fill:#b0b2b0;fill-opacity:1;fill-rule:nonzero;stroke:none"
         id="path9427"
         inkscape:connector-curvature="0" />
    </g>
    <g
       id="g9429"
       transform="matrix(0.3987061,0,0,-0.3987061,28.530641,270.71828)">
      <path
         d="m 0,0 c 2.947,0.752 5.143,2.007 7.337,4.202 6.27,6.27 6.396,15.864 0.251,22.323 -5.456,5.643 -13.734,6.584 -20.38,2.257 -7.839,-5.016 -9.531,-16.24 -3.574,-23.389 1.442,-1.693 4.138,-3.825 5.768,-4.515 C -7.274,-0.564 -3.261,-0.878 0,0 m -6.772,-4.452 c -4.39,0.627 -8.716,2.885 -11.915,6.333 -7.336,7.901 -7.085,20.066 0.565,27.842 9.531,9.531 25.71,7.086 31.98,-4.828 1.631,-3.136 2.196,-5.582 2.258,-9.281 0,-3.888 -0.439,-5.644 -2.132,-9.218 C 10.284,-1.191 1.882,-5.581 -6.772,-4.452"
         style="fill:#3a98ab;fill-opacity:1;fill-rule:nonzero;stroke:none"
         id="path9431"
         inkscape:connector-curvature="0" />
    </g>
    <g
       id="g9433"
       transform="matrix(0.3987061,0,0,-0.3987061,28.480803,266.56808)">
      <path
         d="m 0,0 c -0.753,-0.376 -1.568,-0.627 -2.383,-0.627 -1.38,0 -2.696,0.565 -3.638,1.568 -0.25,0.251 -0.438,0.564 -0.689,0.815 h 4.201 V 3.7 h -5.016 c -0.063,0.376 -0.125,0.815 -0.125,1.191 0,0.189 0,0.377 0.062,0.565 h 5.079 v 2.006 h -4.514 c 0.251,0.502 0.564,0.941 1.002,1.38 0.942,1.003 2.258,1.567 3.638,1.567 0.752,0 1.505,-0.188 2.195,-0.501 l 2.195,2.759 c -1.318,0.752 -2.822,1.191 -4.39,1.191 -3.951,0 -7.274,-2.696 -8.341,-6.396 h -1.63 V 5.456 h 1.317 L -11.1,4.891 c 0,-0.376 0.063,-0.815 0.063,-1.191 h -1.317 V 1.756 h 1.819 c 1.254,-3.449 4.452,-5.832 8.152,-5.832 1.693,0 3.261,0.502 4.577,1.317 z"
         style="fill:#3a98ab;fill-opacity:1;fill-rule:nonzero;stroke:none"
         id="path9435"
         inkscape:connector-curvature="0" />
    </g>
    <g
       id="g9437"
       transform="matrix(0.3987061,0,0,-0.3987061,14.095088,279.16587)">
      <path
         d="M 0,0 0.007,0.002 0.008,0.001 c 0,-0.001 10e-4,-0.003 0,-0.004 C 0.005,-0.002 0.003,-0.001 0,0"
         style="fill:#b0b2b0;fill-opacity:1;fill-rule:nonzero;stroke:none"
         id="path9439"
         inkscape:connector-curvature="0" />
    </g>
    <g
       id="g9441"
       transform="matrix(0.3987061,0,0,-0.3987061,14.107926,278.95428)">
      <path
         d="M 0,0 13.771,4.572 C 14.22,4.721 14.85,4.498 15.035,3.938 L 18.816,-7.45 c 0.153,-0.459 -0.18,-1.114 -0.92,-1.36 l -13.95,-4.631 c -0.448,-0.149 -1.078,0.074 -1.263,0.634 l -3.782,11.389 c -0.164,0.492 -0.068,0.79 0.086,0.969 0.033,0.195 0.143,0.315 0.205,0.368 C -0.604,0.095 -0.334,0.122 0,0 m -0.366,4.726 -0.821,0.645 c -1.862,1.825 -3.249,4.086 -4.084,6.604 -0.502,1.511 -0.805,3.115 -0.892,4.772 l -0.772,16.606 -0.18,4.612 c -0.285,0.925 0.014,1.373 0.468,1.9 0.515,0.6 1.176,0.773 2.009,0.93 1.352,0.04 2.432,-0.964 2.502,-2.327 L -0.42,17.057 c -0.021,-0.441 0.185,-0.893 0.578,-1.269 0.468,-0.446 1.13,-0.701 1.757,-0.646 0.443,-0.02 0.894,0.185 1.27,0.578 0.445,0.468 0.7,1.13 0.646,1.696 l -0.278,3.678 0.655,0.218 C 5.676,21.799 6.525,20.52 6.805,20.1 L 10.708,8.402 Z M -4.521,2.719 -4.125,2.16 -4.723,1.914 C -4.746,1.871 -4.772,1.814 -4.806,1.752 -5.469,0.101 -5.602,-1.507 -5.181,-2.774 l 3.782,-11.389 c 0.954,-2.873 4.036,-4.349 7.016,-3.359 l 13.951,4.632 c 2.779,0.922 4.346,4.048 3.423,6.826 L 19.147,5.515 C 18.55,7.312 17.152,8.649 15.313,9.181 L 15.061,9.254 10.816,22.055 C 9.519,24.575 6.494,26.09 3.625,25.657 L 3.1,25.578 1.927,38.723 c -0.114,3.499 -3.112,6.286 -6.83,6.354 -1.723,-0.027 -3.517,-0.809 -4.772,-2.058 -1.244,-1.503 -1.896,-3.334 -1.788,-5.035 l 0.954,-21.271 c 0.133,-2.096 0.475,-3.916 1.076,-5.726 1.005,-3.028 2.658,-5.81 4.912,-8.268"
         style="fill:#b0b2b0;fill-opacity:1;fill-rule:nonzero;stroke:none"
         id="path9443"
         inkscape:connector-curvature="0" />
    </g>
  </g>
</svg>
