<?xml version="1.0" encoding="UTF-8" standalone="no"?>
<!-- Created with Inkscape (http://www.inkscape.org/) -->

<svg
   xmlns:dc="http://purl.org/dc/elements/1.1/"
   xmlns:cc="http://creativecommons.org/ns#"
   xmlns:rdf="http://www.w3.org/1999/02/22-rdf-syntax-ns#"
   xmlns:svg="http://www.w3.org/2000/svg"
   xmlns="http://www.w3.org/2000/svg"
   xmlns:sodipodi="http://sodipodi.sourceforge.net/DTD/sodipodi-0.dtd"
   xmlns:inkscape="http://www.inkscape.org/namespaces/inkscape"
   width="200"
   height="200"
   viewBox="0 0 52.916666 52.916668"
   version="1.1"
   id="svg3506"
   inkscape:version="0.92.2 (5c3e80d, 2017-08-06)"
   sodipodi:docname="globe-people-alt.svg">
  <defs
     id="defs3500">
    <clipPath
       clipPathUnits="userSpaceOnUse"
       id="clipPath8806">
      <path
         d="m 217.174,529.313 h 7.516 v -7.393 h -7.516 z"
         id="path8804"
         inkscape:connector-curvature="0" />
    </clipPath>
    <clipPath
       clipPathUnits="userSpaceOnUse"
       id="clipPath8822">
      <path
         d="m 193.378,530.029 h 7.516 v -7.393 h -7.516 z"
         id="path8820"
         inkscape:connector-curvature="0" />
    </clipPath>
    <clipPath
       clipPathUnits="userSpaceOnUse"
       id="clipPath8838">
      <path
         d="m 239.785,536.821 h 7.516 v -7.393 h -7.516 z"
         id="path8836"
         inkscape:connector-curvature="0" />
    </clipPath>
    <clipPath
       clipPathUnits="userSpaceOnUse"
       id="clipPath8586">
      <path
         d="m 376.612,193.18 h 17.074 v -17.075 h -17.074 z"
         id="path8584"
         inkscape:connector-curvature="0" />
    </clipPath>
    <clipPath
       clipPathUnits="userSpaceOnUse"
       id="clipPath8702">
      <path
         d="m 792.929,209.492 h 8.097 v -7.964 h -8.097 z"
         id="path8700"
         inkscape:connector-curvature="0" />
    </clipPath>
    <clipPath
       clipPathUnits="userSpaceOnUse"
       id="clipPath8686">
      <path
         d="m 742.939,202.176 h 8.097 v -7.964 h -8.097 z"
         id="path8684"
         inkscape:connector-curvature="0" />
    </clipPath>
    <clipPath
       clipPathUnits="userSpaceOnUse"
       id="clipPath8670">
      <path
         d="m 768.573,201.405 h 8.096 v -7.964 h -8.096 z"
         id="path8668"
         inkscape:connector-curvature="0" />
    </clipPath>
    <clipPath
       clipPathUnits="userSpaceOnUse"
       id="clipPath8390">
      <path
         d="M 88.1177,87.0158 H 100.08 V 75.0535 H 88.1177 Z"
         id="path8388"
         inkscape:connector-curvature="0" />
    </clipPath>
    <clipPath
       clipPathUnits="userSpaceOnUse"
       id="clipPath8374">
      <path
         d="M 67.5484,86.7241 H 79.5107 V 74.7618 H 67.5484 Z"
         id="path8372"
         inkscape:connector-curvature="0" />
    </clipPath>
    <clipPath
       clipPathUnits="userSpaceOnUse"
       id="clipPath8358">
      <path
         d="M 46.8331,86.8699 H 58.7954 V 74.9076 H 46.8331 Z"
         id="path8356"
         inkscape:connector-curvature="0" />
    </clipPath>
    <clipPath
       clipPathUnits="userSpaceOnUse"
       id="clipPath8542">
      <path
         d="M 189.832,90.7442 H 201.03 V 79.5456 h -11.198 z"
         id="path8540"
         inkscape:connector-curvature="0" />
    </clipPath>
    <clipPath
       clipPathUnits="userSpaceOnUse"
       id="clipPath8526">
      <path
         d="m 170.663,90.7442 h 11.198 V 79.5456 h -11.198 z"
         id="path8524"
         inkscape:connector-curvature="0" />
    </clipPath>
    <clipPath
       clipPathUnits="userSpaceOnUse"
       id="clipPath8510">
      <path
         d="m 151.233,90.8746 h 11.199 V 79.676 h -11.199 z"
         id="path8508"
         inkscape:connector-curvature="0" />
    </clipPath>
    <clipPath
       clipPathUnits="userSpaceOnUse"
       id="clipPath8478">
      <path
         d="m 139.758,103.132 h 11.198 V 91.9337 h -11.198 z"
         id="path8476"
         inkscape:connector-curvature="0" />
    </clipPath>
    <clipPath
       clipPathUnits="userSpaceOnUse"
       id="clipPath8462">
      <path
         d="m 158.927,103.393 h 11.198 V 92.1945 h -11.198 z"
         id="path8460"
         inkscape:connector-curvature="0" />
    </clipPath>
    <clipPath
       clipPathUnits="userSpaceOnUse"
       id="clipPath8446">
      <path
         d="m 178.356,103.263 h 11.199 V 92.0641 h -11.199 z"
         id="path8444"
         inkscape:connector-curvature="0" />
    </clipPath>
    <clipPath
       clipPathUnits="userSpaceOnUse"
       id="clipPath8430">
      <path
         d="m 198.568,103.132 h 11.199 V 91.9337 h -11.199 z"
         id="path8428"
         inkscape:connector-curvature="0" />
    </clipPath>
  </defs>
  <sodipodi:namedview
     id="base"
     pagecolor="#ffffff"
     bordercolor="#666666"
     borderopacity="1.0"
     inkscape:pageopacity="0.0"
     inkscape:pageshadow="2"
     inkscape:zoom="1.4"
     inkscape:cx="95.602941"
     inkscape:cy="204.71975"
     inkscape:document-units="mm"
     inkscape:current-layer="layer1"
     showgrid="false"
     units="px"
     inkscape:window-width="958"
     inkscape:window-height="974"
     inkscape:window-x="950"
     inkscape:window-y="0"
     inkscape:window-maximized="0" />
  <metadata
     id="metadata3503">
    <rdf:RDF>
      <cc:Work
         rdf:about="">
        <dc:format>image/svg+xml</dc:format>
        <dc:type
           rdf:resource="http://purl.org/dc/dcmitype/StillImage" />
        <dc:title></dc:title>
      </cc:Work>
    </rdf:RDF>
  </metadata>
  <g
     inkscape:label="Calque 1"
     inkscape:groupmode="layer"
     id="layer1"
     transform="translate(0,-244.08332)">
    <g
       transform="matrix(0.47198758,0,0,-0.47198758,36.845716,258.46023)"
       id="g8412">
      <path
         inkscape:connector-curvature="0"
         id="path8414"
         style="fill:#b0b2b0;fill-opacity:1;fill-rule:evenodd;stroke:none"
         d="m 0,0 -1.225,-4.22 -2.177,-5.443 -4.355,-1.361 1.089,-5.172 -2.586,-2.858 c 0,0 -0.953,-4.628 -0.953,-5.717 0,-1.088 2.041,-4.763 2.041,-4.763 l 8.438,-0.544 1.906,-6.397 2.858,-12.113 4.763,5.717 4.764,18.781 -2.042,7.35 -6.124,-1.089 -9.255,2.178 3.402,4.354 4.356,-0.136 5.444,-1.769 -2.314,7.077 z" />
    </g>
    <g
       transform="matrix(0.47198758,0,0,-0.47198758,11.405159,264.96664)"
       id="g8416">
      <path
         inkscape:connector-curvature="0"
         id="path8418"
         style="fill:#b0b2b0;fill-opacity:1;fill-rule:evenodd;stroke:none"
         d="m 0,0 10.071,13.882 4.083,-1.905 2.722,2.177 h 3.539 12.249 L 29.942,10.888 32.936,7.35 30.758,4.899 18.51,-5.172 l -5.172,-1.36 -0.273,-2.994 4.083,-3.267 10.344,-0.545 5.444,-5.443 4.627,-2.45 1.361,-2.722 -1.905,-2.994 -4.627,-4.9 -4.355,-5.988 -1.634,-2.994 -3.266,5.988 v 7.894 l -5.989,5.172 0.817,8.982 -8.71,2.722 -2.178,2.45 -3.538,2.178 z" />
    </g>
    <g
       transform="matrix(0.47198758,0,0,-0.47198758,35.770813,264.52972)"
       id="g8420">
      <path
         inkscape:connector-curvature="0"
         id="path8422"
         style="fill:#b0b2b0;fill-opacity:1;fill-rule:nonzero;stroke:none"
         d="m 0,0 c 0.722,1.079 1.664,2.123 2.094,2.318 0.43,0.197 1.827,0.357 3.105,0.357 1.835,0 2.677,-0.179 4.008,-0.854 0.926,-0.469 1.762,-0.775 1.858,-0.679 0.202,0.201 -1.063,2.415 -2.531,4.431 L 7.513,6.975 6.515,6.404 C 5.75,5.967 5.381,5.919 4.929,6.2 4.082,6.729 4.037,7.769 4.832,8.487 L 5.519,9.108 4.621,10.046 C 3.779,10.925 3.685,10.949 3.117,10.436 2.685,10.044 2.512,9.41 2.512,8.215 2.512,6.297 1.567,4.067 0.465,3.382 0.06,3.131 -1.029,2.669 -1.955,2.354 -3.575,1.806 -3.644,1.732 -3.74,0.441 -3.854,-1.075 -3.21,-1.986 -2.037,-1.972 -1.527,-1.965 -0.922,-1.379 0,0 m 8.927,-3.924 c 0.395,0.212 1.488,0.474 2.429,0.582 1.606,0.186 1.694,0.243 1.432,0.946 -0.227,0.609 -0.533,0.749 -1.642,0.749 -0.749,0 -1.651,0.154 -2.005,0.343 -0.45,0.241 -0.643,0.238 -0.643,-0.01 0,-0.532 -1.414,-0.963 -2.056,-0.627 C 6.135,-1.781 5.836,-1.312 5.777,-0.9 5.606,0.304 3.795,0.315 2.851,-0.882 2.17,-1.745 2.16,-1.823 2.715,-1.935 3.045,-2.001 4.068,-2.563 4.987,-3.182 6.75,-4.369 7.745,-4.557 8.927,-3.924 M -30.342,6.399 c -0.22,0.22 -0.399,0.745 -0.399,1.167 0,0.615 0.434,0.982 2.17,1.838 2.411,1.19 3.231,1.067 3.421,-0.512 0.09,-0.761 -0.141,-0.99 -1.903,-1.879 -2.209,-1.115 -2.697,-1.206 -3.289,-0.614 m -9.71,-15.682 c 0,0.373 0.292,1.251 0.649,1.95 0.792,1.553 2.351,2.36 4.56,2.36 h 1.616 l 4.818,4.844 c 4.957,4.984 6.002,5.797 7.461,5.797 1.278,0 1.027,0.743 -0.649,1.924 -1.328,0.936 -1.496,1.198 -1.496,2.325 0,0.699 0.18,1.45 0.399,1.67 0.311,0.31 -0.21,0.399 -2.341,0.399 -2.084,0 -3.052,-0.16 -4.044,-0.665 -0.716,-0.366 -1.607,-0.665 -1.979,-0.665 -0.371,0 -0.862,0.299 -1.09,0.665 -0.757,1.211 -2.448,0.883 -4.28,-0.832 -0.88,-0.823 -1.826,-1.496 -2.102,-1.496 -0.276,0 -1.009,0.446 -1.63,0.991 l -1.129,0.992 -1.98,-2.073 c -1.96,-2.05 -4.138,-5.032 -5.234,-7.165 -0.55,-1.068 -0.539,-1.186 0.322,-3.824 1.12,-3.425 1.612,-4.217 2.623,-4.217 1.317,0 1.845,-0.352 2.525,-1.686 0.681,-1.335 1.427,-1.945 2.399,-1.962 0.367,-0.006 0.582,0.24 0.582,0.668 m 50.573,-21.036 c 3.565,6.216 5.014,14.163 3.921,21.508 l -0.372,2.507 h -1.748 c -0.962,0 -2.285,-0.223 -2.942,-0.498 -1.85,-0.773 -2.906,-0.607 -5.291,0.831 -2.051,1.238 -2.38,1.33 -4.696,1.33 -3.241,0 -3.88,-0.279 -5.142,-2.245 -1.538,-2.398 -1.479,-4.343 0.207,-6.76 l 1.258,-1.802 3.149,-0.167 c 3.209,-0.171 4.188,-0.53 5.137,-1.885 0.766,-1.094 1.503,-4.164 1.503,-6.264 0,-1.257 0.388,-3.439 1.011,-5.675 1.537,-5.525 1.298,-5.037 2.006,-4.104 0.336,0.442 1.235,1.893 1.999,3.224 m -32.778,-4.958 c 1.444,1.53 2.338,2.829 2.803,4.075 0.944,2.522 1.371,3.006 2.867,3.249 1.279,0.208 1.304,0.24 1.778,2.291 l 0.48,2.08 -1.122,1.157 c -0.959,0.989 -1.342,1.158 -2.643,1.158 -1.474,0 -1.614,0.093 -4.507,3.002 l -2.986,3.003 -2.965,-0.092 -2.965,-0.094 -0.584,-1.662 c -0.593,-1.69 -0.797,-4.012 -0.436,-4.954 0.109,-0.286 1.216,-1.273 2.46,-2.195 3.435,-2.547 3.455,-2.595 3.655,-8.813 0.146,-4.578 0.262,-5.456 0.829,-6.294 l 0.659,-0.975 0.279,1.408 c 0.213,1.078 0.778,1.938 2.398,3.656 M -4.669,8.124 c -0.097,0.253 -0.13,1.113 -0.073,1.912 0.096,1.324 0.189,1.461 1.066,1.561 0.546,0.062 1.083,-0.081 1.242,-0.332 0.418,-0.661 0.348,-2.746 -0.108,-3.202 -0.544,-0.544 -1.91,-0.505 -2.127,0.061 m -6.062,-54.712 c 3.641,0.961 7.226,2.527 10.139,4.429 2.856,1.864 6.097,4.79 6.097,5.504 0,0.261 -0.583,2.522 -1.295,5.022 -0.804,2.825 -1.357,5.556 -1.46,7.212 -0.22,3.568 -0.81,5.463 -1.818,5.846 -0.435,0.166 -1.958,0.301 -3.385,0.301 -3.091,0 -3.76,0.401 -5.722,3.437 -1.223,1.892 -1.284,2.115 -1.284,4.696 0,2.457 0.096,2.864 1.033,4.355 0.569,0.904 1.28,1.922 1.58,2.262 0.434,0.491 0.523,1.171 0.432,3.325 -0.138,3.324 0.381,4.191 3.028,5.053 2.559,0.833 2.812,1.159 2.962,3.814 0.111,1.964 0.264,2.438 1.054,3.264 l 0.925,0.964 -2.377,1.522 c -2.769,1.77 -6.306,3.305 -9.909,4.296 -2.119,0.583 -3.483,0.702 -8.039,0.702 -6.04,0 -8.175,-0.398 -13.081,-2.44 -2.878,-1.199 -7.507,-4.057 -6.898,-4.26 0.227,-0.076 0.812,0.243 1.301,0.709 0.488,0.466 1.309,1.006 1.824,1.2 1.275,0.481 3.88,0.426 4.836,-0.105 0.645,-0.358 1.001,-0.358 1.996,-0.003 0.784,0.28 3,0.437 6.296,0.447 4.966,0.014 5.106,-0.005 5.903,-0.802 0.448,-0.449 0.816,-1.129 0.816,-1.512 0,-0.993 -1.388,-2.246 -2.777,-2.505 l -1.188,-0.224 1.151,-1.085 c 0.994,-0.938 1.151,-1.298 1.151,-2.641 0,-1.938 -1.06,-3.187 -2.703,-3.187 -0.934,0 -1.7,-0.625 -6.001,-4.891 -3.827,-3.797 -4.93,-5.084 -4.93,-5.753 0,-1.744 -1.597,-2.243 -2.546,-0.796 -0.484,0.739 -0.737,0.838 -1.727,0.678 -1.299,-0.212 -1.703,-0.657 -1.698,-1.875 0.002,-0.696 0.366,-1.006 2.245,-1.912 2.159,-1.04 2.398,-1.081 6.355,-1.081 h 4.112 l 3.051,-2.992 c 2.898,-2.842 3.125,-2.993 4.498,-2.993 1.319,0 1.616,-0.17 3.388,-1.942 2.2,-2.2 2.236,-2.368 1.29,-6.011 -0.707,-2.722 -1.4,-3.645 -2.983,-3.969 -0.911,-0.186 -1.164,-0.486 -1.857,-2.19 -0.556,-1.368 -1.432,-2.609 -2.852,-4.042 l -2.049,-2.067 -0.169,-2.356 c -0.095,-1.33 -0.356,-2.511 -0.599,-2.713 -0.238,-0.197 -0.998,-0.311 -1.69,-0.253 -1.069,0.088 -1.45,0.356 -2.522,1.767 -2.405,3.168 -2.584,3.806 -2.584,9.209 v 4.843 l -2.486,1.871 c -1.368,1.03 -2.715,2.313 -2.993,2.851 -0.657,1.269 -0.663,5.14 -0.011,6.988 0.476,1.349 0.466,1.429 -0.249,2.031 -0.796,0.67 -1.606,0.927 -5.632,1.79 -2.166,0.464 -2.715,0.726 -3.574,1.705 -0.559,0.636 -1.016,1.282 -1.016,1.436 0,0.154 -0.428,0.365 -0.951,0.47 -1.483,0.296 -2.97,1.769 -3.612,3.577 -0.32,0.899 -0.686,1.636 -0.813,1.636 -0.127,0 -0.504,-1.16 -0.836,-2.577 -0.886,-3.776 -0.804,-11.921 0.155,-15.438 1.715,-6.287 4.831,-11.643 9.268,-15.928 5.073,-4.899 10.707,-7.858 17.375,-9.124 3.533,-0.67 10.668,-0.439 14.055,0.455 m -11.531,-3.56 c -15.624,1.342 -28.826,13.137 -32.14,28.714 -0.827,3.89 -0.889,10.236 -0.137,14.237 2.382,12.684 11.402,23.194 23.694,27.606 3.72,1.335 7.724,1.958 12.401,1.927 6.9,-0.045 12.49,-1.591 18.488,-5.113 4.14,-2.431 9.929,-8.22 12.36,-12.361 3.608,-6.143 5.081,-11.596 5.085,-18.813 0.003,-7.201 -1.472,-12.662 -5.085,-18.815 -2.431,-4.139 -8.22,-9.928 -12.36,-12.36 -6.912,-4.058 -14.265,-5.714 -22.306,-5.022" />
    </g>
    <g
       transform="matrix(0.47198758,0,0,-0.47198758,-56.39996,315.41503)"
       id="g8424">
      <g
         id="g8426" />
      <g
         id="g8438">
        <g
           style="opacity:0.97508198"
           id="g8436"
           clip-path="url(#clipPath8430)">
          <g
             id="g8434"
             transform="translate(204.168,103.132)">
            <path
               inkscape:connector-curvature="0"
               id="path8432"
               style="fill:#ffffff;fill-opacity:1;fill-rule:nonzero;stroke:none"
               d="m 0,0 c 3.092,0 5.599,-2.507 5.599,-5.599 0,-3.092 -2.507,-5.599 -5.599,-5.599 -3.093,0 -5.6,2.507 -5.6,5.599 C -5.6,-2.507 -3.093,0 0,0" />
          </g>
        </g>
      </g>
    </g>
    <g
       transform="matrix(0.47198758,0,0,-0.47198758,-56.39996,315.41503)"
       id="g8440">
      <g
         id="g8442" />
      <g
         id="g8454">
        <g
           style="opacity:0.97508198"
           id="g8452"
           clip-path="url(#clipPath8446)">
          <g
             id="g8450"
             transform="translate(183.9556,103.2629)">
            <path
               inkscape:connector-curvature="0"
               id="path8448"
               style="fill:#ffffff;fill-opacity:1;fill-rule:nonzero;stroke:none"
               d="m 0,0 c 3.092,0 5.6,-2.507 5.6,-5.6 0,-3.092 -2.508,-5.599 -5.6,-5.599 -3.092,0 -5.599,2.507 -5.599,5.599 0,3.093 2.507,5.6 5.599,5.6" />
          </g>
        </g>
      </g>
    </g>
    <g
       transform="matrix(0.47198758,0,0,-0.47198758,-56.39996,315.41503)"
       id="g8456">
      <g
         id="g8458" />
      <g
         id="g8470">
        <g
           style="opacity:0.97508198"
           id="g8468"
           clip-path="url(#clipPath8462)">
          <g
             id="g8466"
             transform="translate(164.5259,103.3928)">
            <path
               inkscape:connector-curvature="0"
               id="path8464"
               style="fill:#ffffff;fill-opacity:1;fill-rule:nonzero;stroke:none"
               d="m 0,0 c 3.092,0 5.599,-2.507 5.599,-5.599 0,-3.092 -2.507,-5.599 -5.599,-5.599 -3.092,0 -5.599,2.507 -5.599,5.599 C -5.599,-2.507 -3.092,0 0,0" />
          </g>
        </g>
      </g>
    </g>
    <g
       transform="matrix(0.47198758,0,0,-0.47198758,-56.39996,315.41503)"
       id="g8472">
      <g
         id="g8474" />
      <g
         id="g8486">
        <g
           style="opacity:0.97508198"
           id="g8484"
           clip-path="url(#clipPath8478)">
          <g
             id="g8482"
             transform="translate(145.3569,103.132)">
            <path
               inkscape:connector-curvature="0"
               id="path8480"
               style="fill:#ffffff;fill-opacity:1;fill-rule:nonzero;stroke:none"
               d="m 0,0 c 3.092,0 5.6,-2.507 5.6,-5.599 0,-3.092 -2.508,-5.599 -5.6,-5.599 -3.092,0 -5.599,2.507 -5.599,5.599 C -5.599,-2.507 -3.092,0 0,0" />
          </g>
        </g>
      </g>
    </g>
    <g
       transform="matrix(0.47198758,0,0,-0.47198758,13.278575,270.88862)"
       id="g8488">
      <path
         inkscape:connector-curvature="0"
         id="path8490"
         style="fill:#a91d22;fill-opacity:1;fill-rule:nonzero;stroke:none"
         d="M 0,0 C 1.85,1.127 2.411,3.709 1.201,5.525 -0.333,7.827 -3.014,8.163 -5.04,6.306 -7.005,4.505 -6.705,1.363 -4.436,-0.021 -3.169,-0.793 -1.286,-0.784 0,0 m -4.12,-4.316 c -1.606,0.409 -3.611,1.753 -4.462,2.989 -1.159,1.685 -1.447,2.644 -1.447,4.819 0,6.504 7.403,10.142 12.588,6.187 C 4.45,8.237 5.561,5.937 5.561,3.462 5.561,2.384 5.368,1.039 5.132,0.475 4.543,-0.935 2.628,-2.989 1.248,-3.693 -0.075,-4.368 -2.716,-4.675 -4.12,-4.316 m -12.158,-19.467 c -0.262,0.374 -0.476,0.828 -0.476,1.011 0,0.376 2.995,7.396 3.979,9.324 0.975,1.91 3.016,3.969 4.733,4.771 1.374,0.643 1.961,0.715 5.808,0.715 3.842,0 4.435,-0.072 5.808,-0.713 2.76,-1.289 4.245,-3.387 7.013,-9.913 1.579,-3.722 1.689,-4.129 1.326,-4.891 -0.305,-0.639 -0.648,-0.852 -1.49,-0.922 -0.631,-0.053 -1.233,0.076 -1.421,0.305 -0.18,0.219 -1.154,2.3 -2.165,4.624 -3.149,7.244 -3.854,7.851 -9.113,7.843 -5.264,-0.008 -6.031,-0.697 -9.281,-8.338 -0.873,-2.052 -1.806,-3.903 -2.075,-4.113 -0.783,-0.613 -2.113,-0.464 -2.646,0.297" />
    </g>
    <g
       transform="matrix(0.47198758,0,0,-0.47198758,31.464633,270.88862)"
       id="g8492">
      <path
         inkscape:connector-curvature="0"
         id="path8494"
         style="fill:#a91d22;fill-opacity:1;fill-rule:nonzero;stroke:none"
         d="M 0,0 C 1.85,1.127 2.411,3.709 1.2,5.525 -0.333,7.827 -3.014,8.163 -5.04,6.306 -7.005,4.505 -6.705,1.363 -4.436,-0.021 -3.169,-0.793 -1.286,-0.784 0,0 m -4.12,-4.316 c -1.606,0.409 -3.611,1.753 -4.462,2.989 -1.159,1.685 -1.447,2.644 -1.447,4.819 0,6.504 7.403,10.142 12.588,6.187 C 4.449,8.237 5.561,5.937 5.561,3.462 5.561,2.384 5.367,1.039 5.131,0.475 4.543,-0.935 2.628,-2.989 1.248,-3.693 -0.075,-4.368 -2.716,-4.675 -4.12,-4.316 m -12.158,-19.467 c -0.262,0.374 -0.476,0.828 -0.476,1.011 0,0.376 2.995,7.396 3.979,9.324 0.974,1.91 3.016,3.969 4.733,4.771 1.374,0.643 1.961,0.715 5.808,0.715 3.842,0 4.435,-0.072 5.807,-0.713 2.761,-1.289 4.246,-3.387 7.014,-9.913 1.579,-3.722 1.689,-4.129 1.326,-4.891 -0.305,-0.639 -0.648,-0.852 -1.49,-0.922 -0.631,-0.053 -1.233,0.076 -1.421,0.305 -0.18,0.219 -1.154,2.3 -2.165,4.624 -3.149,7.244 -3.854,7.851 -9.113,7.843 -5.264,-0.008 -6.031,-0.697 -9.281,-8.338 -0.873,-2.052 -1.807,-3.903 -2.075,-4.113 -0.783,-0.613 -2.113,-0.464 -2.646,0.297" />
    </g>
    <g
       transform="matrix(0.47198758,0,0,-0.47198758,22.371745,270.88862)"
       id="g8496">
      <path
         inkscape:connector-curvature="0"
         id="path8498"
         style="fill:#a91d22;fill-opacity:1;fill-rule:nonzero;stroke:none"
         d="M 0,0 C 1.85,1.127 2.41,3.709 1.2,5.525 -0.333,7.827 -3.014,8.163 -5.041,6.306 -7.005,4.505 -6.705,1.363 -4.436,-0.021 -3.169,-0.793 -1.286,-0.784 0,0 m -4.12,-4.316 c -1.606,0.409 -3.611,1.753 -4.462,2.989 -1.159,1.685 -1.447,2.644 -1.447,4.819 0,6.504 7.403,10.142 12.588,6.187 C 4.449,8.237 5.56,5.937 5.56,3.462 5.56,2.384 5.367,1.039 5.131,0.475 4.543,-0.935 2.628,-2.989 1.248,-3.693 -0.075,-4.368 -2.717,-4.675 -4.12,-4.316 m -12.158,-19.467 c -0.262,0.374 -0.476,0.828 -0.476,1.011 0,0.376 2.995,7.396 3.979,9.324 0.974,1.91 3.015,3.969 4.733,4.771 1.374,0.643 1.961,0.715 5.808,0.715 3.842,0 4.435,-0.072 5.807,-0.713 2.761,-1.289 4.245,-3.387 7.014,-9.913 1.579,-3.722 1.689,-4.129 1.326,-4.891 -0.305,-0.639 -0.648,-0.852 -1.49,-0.922 -0.631,-0.053 -1.233,0.076 -1.422,0.305 -0.179,0.219 -1.153,2.3 -2.164,4.624 -3.149,7.244 -3.854,7.851 -9.113,7.843 -5.264,-0.008 -6.031,-0.697 -9.281,-8.338 -0.873,-2.052 -1.807,-3.903 -2.075,-4.113 -0.783,-0.613 -2.114,-0.464 -2.646,0.297" />
    </g>
    <g
       transform="matrix(0.47198758,0,0,-0.47198758,40.821175,270.88862)"
       id="g8500">
      <path
         inkscape:connector-curvature="0"
         id="path8502"
         style="fill:#a91d22;fill-opacity:1;fill-rule:nonzero;stroke:none"
         d="M 0,0 C 1.85,1.127 2.411,3.709 1.2,5.525 -0.333,7.827 -3.014,8.163 -5.04,6.306 -7.005,4.505 -6.705,1.363 -4.436,-0.021 -3.169,-0.793 -1.286,-0.784 0,0 m -4.12,-4.316 c -1.606,0.409 -3.611,1.753 -4.462,2.989 -1.159,1.685 -1.447,2.644 -1.447,4.819 0,6.504 7.403,10.142 12.588,6.187 C 4.449,8.237 5.561,5.937 5.561,3.462 5.561,2.384 5.367,1.039 5.131,0.475 4.543,-0.935 2.628,-2.989 1.248,-3.693 -0.075,-4.368 -2.716,-4.675 -4.12,-4.316 m -12.158,-19.467 c -0.262,0.374 -0.476,0.828 -0.476,1.011 0,0.376 2.995,7.396 3.979,9.324 0.974,1.91 3.016,3.969 4.733,4.771 1.374,0.643 1.961,0.715 5.808,0.715 3.842,0 4.435,-0.072 5.807,-0.713 2.761,-1.289 4.246,-3.387 7.014,-9.913 1.579,-3.722 1.689,-4.129 1.326,-4.891 -0.305,-0.639 -0.648,-0.852 -1.49,-0.922 -0.631,-0.053 -1.233,0.076 -1.421,0.305 -0.18,0.219 -1.154,2.3 -2.165,4.624 -3.149,7.244 -3.854,7.851 -9.113,7.843 -5.264,-0.008 -6.031,-0.697 -9.281,-8.338 -0.873,-2.052 -1.807,-3.903 -2.075,-4.113 -0.783,-0.613 -2.113,-0.464 -2.646,0.297" />
    </g>
    <g
       transform="matrix(0.47198758,0,0,-0.47198758,-56.39996,315.41503)"
       id="g8504">
      <g
         id="g8506" />
      <g
         id="g8518">
        <g
           style="opacity:0.97508198"
           id="g8516"
           clip-path="url(#clipPath8510)">
          <g
             id="g8514"
             transform="translate(156.8325,90.8742)">
            <path
               inkscape:connector-curvature="0"
               id="path8512"
               style="fill:#ffffff;fill-opacity:1;fill-rule:nonzero;stroke:none"
               d="m 0,0 c 3.092,0 5.599,-2.507 5.599,-5.599 0,-3.092 -2.507,-5.599 -5.599,-5.599 -3.093,0 -5.6,2.507 -5.6,5.599 C -5.6,-2.507 -3.093,0 0,0" />
          </g>
        </g>
      </g>
    </g>
    <g
       transform="matrix(0.47198758,0,0,-0.47198758,-56.39996,315.41503)"
       id="g8520">
      <g
         id="g8522" />
      <g
         id="g8534">
        <g
           style="opacity:0.97508198"
           id="g8532"
           clip-path="url(#clipPath8526)">
          <g
             id="g8530"
             transform="translate(176.2622,90.7443)">
            <path
               inkscape:connector-curvature="0"
               id="path8528"
               style="fill:#ffffff;fill-opacity:1;fill-rule:nonzero;stroke:none"
               d="m 0,0 c 3.092,0 5.599,-2.507 5.599,-5.6 0,-3.091 -2.507,-5.598 -5.599,-5.598 -3.093,0 -5.6,2.507 -5.6,5.598 0,3.093 2.507,5.6 5.6,5.6" />
          </g>
        </g>
      </g>
    </g>
    <g
       transform="matrix(0.47198758,0,0,-0.47198758,-56.39996,315.41503)"
       id="g8536">
      <g
         id="g8538" />
      <g
         id="g8550">
        <g
           style="opacity:0.97508198"
           id="g8548"
           clip-path="url(#clipPath8542)">
          <g
             id="g8546"
             transform="translate(195.4312,90.7443)">
            <path
               inkscape:connector-curvature="0"
               id="path8544"
               style="fill:#ffffff;fill-opacity:1;fill-rule:nonzero;stroke:none"
               d="m 0,0 c 3.092,0 5.599,-2.507 5.599,-5.6 0,-3.091 -2.507,-5.599 -5.599,-5.599 -3.093,0 -5.6,2.508 -5.6,5.599 0,3.093 2.507,5.6 5.6,5.6" />
          </g>
        </g>
      </g>
    </g>
    <g
       transform="matrix(0.47198758,0,0,-0.47198758,18.754622,276.8281)"
       id="g8552">
      <path
         inkscape:connector-curvature="0"
         id="path8554"
         style="fill:#3a98ab;fill-opacity:1;fill-rule:nonzero;stroke:none"
         d="M 0,0 C 1.85,1.127 2.41,3.709 1.2,5.525 -0.333,7.828 -3.014,8.163 -5.041,6.306 -7.005,4.505 -6.705,1.363 -4.436,-0.021 -3.169,-0.793 -1.286,-0.784 0,0 m -4.12,-4.316 c -1.606,0.41 -3.611,1.753 -4.462,2.99 -1.159,1.684 -1.447,2.643 -1.447,4.818 0,6.504 7.403,10.143 12.588,6.188 C 4.449,8.237 5.56,5.937 5.56,3.463 5.56,2.384 5.367,1.039 5.131,0.475 4.543,-0.935 2.628,-2.989 1.248,-3.693 -0.075,-4.368 -2.717,-4.675 -4.12,-4.316 m -12.158,-19.467 c -0.262,0.374 -0.476,0.829 -0.476,1.011 0,0.376 2.995,7.396 3.979,9.324 0.974,1.91 3.015,3.969 4.733,4.771 1.373,0.643 1.961,0.715 5.807,0.715 3.843,0 4.436,-0.072 5.808,-0.713 2.761,-1.288 4.245,-3.387 7.014,-9.913 1.579,-3.721 1.689,-4.129 1.326,-4.891 -0.305,-0.639 -0.648,-0.852 -1.49,-0.922 -0.631,-0.053 -1.233,0.076 -1.422,0.305 -0.179,0.219 -1.153,2.3 -2.164,4.624 -3.149,7.244 -3.855,7.851 -9.113,7.843 -5.264,-0.008 -6.031,-0.697 -9.281,-8.337 -0.873,-2.053 -1.807,-3.904 -2.075,-4.114 -0.783,-0.613 -2.114,-0.464 -2.646,0.297" />
    </g>
    <g
       transform="matrix(0.47198758,0,0,-0.47198758,36.940636,276.8281)"
       id="g8556">
      <path
         inkscape:connector-curvature="0"
         id="path8558"
         style="fill:#3a98ab;fill-opacity:1;fill-rule:nonzero;stroke:none"
         d="M 0,0 C 1.849,1.127 2.41,3.709 1.2,5.525 -0.333,7.828 -3.014,8.163 -5.041,6.306 -7.005,4.505 -6.705,1.363 -4.436,-0.021 -3.169,-0.793 -1.286,-0.784 0,0 m -4.12,-4.316 c -1.606,0.41 -3.611,1.753 -4.462,2.99 -1.159,1.684 -1.448,2.643 -1.448,4.818 0,6.504 7.404,10.143 12.589,6.188 C 4.449,8.237 5.56,5.937 5.56,3.463 5.56,2.384 5.367,1.039 5.131,0.475 4.542,-0.935 2.628,-2.989 1.248,-3.693 -0.075,-4.368 -2.717,-4.675 -4.12,-4.316 m -12.159,-19.467 c -0.262,0.374 -0.475,0.829 -0.475,1.011 0,0.376 2.995,7.396 3.979,9.324 0.974,1.91 3.015,3.969 4.733,4.771 1.373,0.643 1.96,0.715 5.807,0.715 3.843,0 4.436,-0.072 5.808,-0.713 2.761,-1.288 4.245,-3.387 7.014,-9.913 1.578,-3.721 1.689,-4.129 1.326,-4.891 -0.306,-0.639 -0.648,-0.852 -1.491,-0.922 -0.63,-0.053 -1.232,0.076 -1.421,0.305 -0.18,0.219 -1.154,2.3 -2.164,4.624 -3.149,7.244 -3.855,7.851 -9.113,7.843 -5.264,-0.008 -6.031,-0.697 -9.281,-8.337 -0.873,-2.053 -1.807,-3.904 -2.075,-4.114 -0.783,-0.613 -2.114,-0.464 -2.647,0.297" />
    </g>
    <g
       transform="matrix(0.47198758,0,0,-0.47198758,27.84751,276.8281)"
       id="g8560">
      <path
         inkscape:connector-curvature="0"
         id="path8562"
         style="fill:#3a98ab;fill-opacity:1;fill-rule:nonzero;stroke:none"
         d="M 0,0 C 1.85,1.127 2.41,3.709 1.2,5.525 -0.333,7.828 -3.014,8.163 -5.041,6.306 -7.005,4.505 -6.705,1.363 -4.436,-0.021 -3.169,-0.793 -1.286,-0.784 0,0 m -4.12,-4.316 c -1.606,0.41 -3.611,1.753 -4.462,2.99 -1.159,1.684 -1.447,2.643 -1.447,4.818 0,6.504 7.403,10.143 12.588,6.188 C 4.449,8.237 5.561,5.937 5.561,3.463 5.561,2.384 5.367,1.039 5.131,0.475 4.543,-0.935 2.628,-2.989 1.248,-3.693 -0.075,-4.368 -2.717,-4.675 -4.12,-4.316 m -12.158,-19.467 c -0.262,0.374 -0.476,0.829 -0.476,1.011 0,0.376 2.995,7.396 3.979,9.324 0.974,1.91 3.016,3.969 4.733,4.771 1.374,0.643 1.961,0.715 5.808,0.715 3.842,0 4.435,-0.072 5.807,-0.713 2.761,-1.288 4.246,-3.387 7.014,-9.913 1.579,-3.721 1.689,-4.129 1.326,-4.891 -0.305,-0.639 -0.648,-0.852 -1.49,-0.922 -0.631,-0.053 -1.233,0.076 -1.422,0.305 -0.179,0.219 -1.153,2.3 -2.164,4.624 -3.149,7.244 -3.854,7.851 -9.113,7.843 -5.264,-0.008 -6.031,-0.697 -9.281,-8.337 -0.873,-2.053 -1.807,-3.904 -2.075,-4.114 -0.783,-0.613 -2.114,-0.464 -2.646,0.297" />
    </g>
  </g>
</svg>
