<?xml version="1.0" encoding="UTF-8" standalone="no"?>
<!-- Created with Inkscape (http://www.inkscape.org/) -->

<svg
   xmlns:dc="http://purl.org/dc/elements/1.1/"
   xmlns:cc="http://creativecommons.org/ns#"
   xmlns:rdf="http://www.w3.org/1999/02/22-rdf-syntax-ns#"
   xmlns:svg="http://www.w3.org/2000/svg"
   xmlns="http://www.w3.org/2000/svg"
   xmlns:sodipodi="http://sodipodi.sourceforge.net/DTD/sodipodi-0.dtd"
   xmlns:inkscape="http://www.inkscape.org/namespaces/inkscape"
   width="200"
   height="200"
   viewBox="0 0 52.916666 52.916668"
   version="1.1"
   id="svg3506"
   inkscape:version="0.92.2 (5c3e80d, 2017-08-06)"
   sodipodi:docname="houses-people.svg">
  <defs
     id="defs3500">
    <clipPath
       clipPathUnits="userSpaceOnUse"
       id="clipPath8806">
      <path
         d="m 217.174,529.313 h 7.516 v -7.393 h -7.516 z"
         id="path8804"
         inkscape:connector-curvature="0" />
    </clipPath>
    <clipPath
       clipPathUnits="userSpaceOnUse"
       id="clipPath8822">
      <path
         d="m 193.378,530.029 h 7.516 v -7.393 h -7.516 z"
         id="path8820"
         inkscape:connector-curvature="0" />
    </clipPath>
    <clipPath
       clipPathUnits="userSpaceOnUse"
       id="clipPath8838">
      <path
         d="m 239.785,536.821 h 7.516 v -7.393 h -7.516 z"
         id="path8836"
         inkscape:connector-curvature="0" />
    </clipPath>
  </defs>
  <sodipodi:namedview
     id="base"
     pagecolor="#ffffff"
     bordercolor="#666666"
     borderopacity="1.0"
     inkscape:pageopacity="0.0"
     inkscape:pageshadow="2"
     inkscape:zoom="1.4"
     inkscape:cx="95.602941"
     inkscape:cy="204.71975"
     inkscape:document-units="mm"
     inkscape:current-layer="layer1"
     showgrid="false"
     units="px"
     inkscape:window-width="958"
     inkscape:window-height="974"
     inkscape:window-x="950"
     inkscape:window-y="0"
     inkscape:window-maximized="0" />
  <metadata
     id="metadata3503">
    <rdf:RDF>
      <cc:Work
         rdf:about="">
        <dc:format>image/svg+xml</dc:format>
        <dc:type
           rdf:resource="http://purl.org/dc/dcmitype/StillImage" />
        <dc:title></dc:title>
      </cc:Work>
    </rdf:RDF>
  </metadata>
  <g
     inkscape:label="Calque 1"
     inkscape:groupmode="layer"
     id="layer1"
     transform="translate(0,-244.08332)">
    <g
       id="g7888"
       transform="matrix(0.44239238,0,0,-0.40934608,43.827426,264.16451)">
      <path
         d="M 0,0 -2.329,4.739 -14.057,4.658 -25.784,4.578 -28.113,0.241 c -1.205,-2.41 -2.249,-4.498 -2.249,-4.659 0,-0.161 7.39,-0.322 16.386,-0.322 H 2.41 Z m -46.828,-4.498 c 0,0.08 -0.964,2.249 -2.249,4.739 l -2.249,4.498 H -62.973 -74.62 L -77.11,0 -79.6,-4.739 h 16.386 c 9.076,0 16.386,0.08 16.386,0.241 m 33.816,-31.487 2.008,0.321 v 5.704 5.783 h -3.213 -3.213 v -6.025 -6.024 h 1.205 c 0.723,0 2.168,0.081 3.213,0.241 m -8.836,7.31 c 0.08,9.317 -0.321,8.835 7.791,8.835 4.097,0 6.185,-0.16 6.667,-0.562 0.643,-0.482 0.804,-1.526 0.884,-8.113 l 0.08,-7.55 5.061,-0.081 5.06,-0.16 v 13.655 13.574 H -14.217 -32.129 V -22.41 -35.744 l 1.607,-0.16 c 0.883,-0.161 3.212,-0.161 5.06,-0.161 h 3.454 z m -37.912,-1.527 v 6.025 h -3.213 -3.213 v -6.025 -6.024 h 3.213 3.213 z m -11.486,-5.381 c 0.562,0.562 0.723,1.928 0.723,7.791 0,6.506 0.08,7.068 0.803,7.47 0.482,0.241 3.454,0.482 6.667,0.482 8.032,0 7.55,0.482 7.711,-8.835 l 0.16,-7.39 h 4.9 4.98 l 0.16,13.494 0.081,13.494 h -17.912 -17.912 v -13.574 -13.575 h 4.498 c 3.534,0 4.658,0.161 5.14,0.643 z m -21.286,-4.418 c -1.285,0.643 -1.606,1.928 -0.723,3.133 0.563,0.722 1.125,0.803 4.257,0.883 h 3.535 l 0.24,15.101 0.242,15.1 3.373,6.667 c 1.847,3.695 3.695,6.989 4.097,7.471 0.562,0.642 1.847,0.722 14.538,0.722 12.691,0 13.976,-0.08 14.538,-0.722 0.402,-0.482 2.249,-3.937 4.177,-7.792 l 3.534,-6.988 v -14.94 -14.86 h 2.089 2.169 l 0.08,14.94 v 15.02 l 3.936,7.551 4.016,7.55 h 14.458 14.458 l 3.775,-7.309 3.775,-7.31 v -15.02 -14.94 l 1.848,-0.241 c 0.964,-0.161 2.811,-0.321 3.935,-0.401 1.928,-0.081 2.249,-0.241 2.571,-1.286 0.321,-0.964 0.321,-1.365 -0.322,-1.928 -0.723,-0.722 -4.096,-0.722 -54.137,-0.883 -42.41,-0.08 -53.656,0 -54.459,0.482"
         style="fill:#b0b2b0;fill-opacity:1;fill-rule:nonzero;stroke:none"
         id="path7890"
         inkscape:connector-curvature="0" />
    </g>
    <g
       id="g7892"
       transform="matrix(0.44239238,0,0,-0.40934608,16.806056,267.96676)">
      <path
         d="m 0,0 c 3.3,0 5.976,-2.675 5.976,-5.975 0,-3.3 -2.676,-5.976 -5.976,-5.976 -3.3,0 -5.976,2.676 -5.976,5.976 C -5.976,-2.675 -3.3,0 0,0"
         style="fill:#ffffff;fill-opacity:1;fill-rule:nonzero;stroke:none"
         id="path7894"
         inkscape:connector-curvature="0" />
    </g>
    <g
       id="g7896"
       transform="matrix(0.44239238,0,0,-0.40934608,17.952428,271.8831)"
       style="fill:#3a98ab;fill-opacity:1">
      <path
         d="M 0,0 C 2.175,1.326 2.834,4.362 1.412,6.498 -0.392,9.206 -3.544,9.6 -5.927,7.416 -8.238,5.298 -7.885,1.604 -5.216,-0.023 -3.727,-0.932 -1.512,-0.922 0,0 m -4.845,-5.076 c -1.888,0.482 -4.246,2.063 -5.247,3.516 -1.363,1.982 -1.702,3.11 -1.702,5.667 0,7.648 8.706,11.927 14.804,7.276 C 5.232,9.688 6.539,6.981 6.539,4.072 6.539,2.803 6.312,1.222 6.035,0.558 5.343,-1.098 3.091,-3.514 1.468,-4.342 -0.088,-5.136 -3.194,-5.497 -4.845,-5.076 m -14.298,-22.892 c -0.308,0.44 -0.56,0.974 -0.56,1.189 0,0.443 3.523,8.697 4.68,10.965 1.146,2.247 3.546,4.667 5.565,5.611 1.616,0.756 2.307,0.841 6.831,0.841 4.519,0 5.215,-0.086 6.829,-0.839 3.247,-1.515 4.993,-3.983 8.248,-11.657 1.857,-4.376 1.987,-4.856 1.56,-5.752 -0.359,-0.752 -0.762,-1.002 -1.753,-1.085 -0.741,-0.062 -1.449,0.09 -1.671,0.36 -0.211,0.256 -1.357,2.704 -2.545,5.437 -3.704,8.519 -4.533,9.232 -10.718,9.223 -6.189,-0.009 -7.092,-0.82 -10.913,-9.804 -1.027,-2.414 -2.125,-4.591 -2.441,-4.838 -0.921,-0.722 -2.485,-0.546 -3.112,0.349"
         style="fill:#3a98ab;fill-opacity:1;fill-rule:nonzero;stroke:none"
         id="path7898"
         inkscape:connector-curvature="0" />
    </g>
    <g
       id="g7900"
       transform="matrix(0.44239238,0,0,-0.40934608,27.170069,267.85023)">
      <path
         d="m 0,0 c 3.3,0 5.976,-2.675 5.976,-5.976 0,-3.299 -2.676,-5.975 -5.976,-5.975 -3.3,0 -5.975,2.676 -5.975,5.975 C -5.975,-2.675 -3.3,0 0,0"
         style="fill:#ffffff;fill-opacity:1;fill-rule:nonzero;stroke:none"
         id="path7902"
         inkscape:connector-curvature="0" />
    </g>
    <g
       id="g7904"
       transform="matrix(0.44239238,0,0,-0.40934608,36.988704,267.92775)">
      <path
         d="m 0,0 c 3.3,0 5.976,-2.675 5.976,-5.976 0,-3.3 -2.676,-5.975 -5.976,-5.975 -3.3,0 -5.975,2.675 -5.975,5.975 C -5.975,-2.675 -3.3,0 0,0"
         style="fill:#ffffff;fill-opacity:1;fill-rule:nonzero;stroke:none"
         id="path7906"
         inkscape:connector-curvature="0" />
    </g>
    <g
       id="g7908"
       transform="matrix(0.44239238,0,0,-0.40934608,37.997889,271.8831)"
       style="fill:#3a98ab;fill-opacity:1">
      <path
         d="M 0,0 C 2.175,1.326 2.834,4.362 1.412,6.498 -0.392,9.206 -3.544,9.6 -5.927,7.416 -8.238,5.298 -7.885,1.604 -5.216,-0.023 -3.727,-0.932 -1.512,-0.922 0,0 m -4.845,-5.076 c -1.888,0.482 -4.246,2.063 -5.247,3.516 -1.363,1.982 -1.702,3.11 -1.702,5.667 0,7.648 8.706,11.927 14.804,7.276 C 5.232,9.688 6.539,6.981 6.539,4.072 6.539,2.803 6.312,1.222 6.035,0.558 5.342,-1.098 3.091,-3.514 1.467,-4.342 -0.088,-5.136 -3.195,-5.497 -4.845,-5.076 m -14.298,-22.892 c -0.308,0.44 -0.56,0.974 -0.56,1.189 0,0.443 3.523,8.697 4.68,10.965 1.146,2.247 3.546,4.667 5.565,5.611 1.616,0.756 2.307,0.841 6.831,0.841 4.519,0 5.215,-0.086 6.829,-0.839 3.247,-1.515 4.993,-3.983 8.248,-11.657 1.857,-4.376 1.987,-4.856 1.559,-5.752 -0.358,-0.752 -0.762,-1.002 -1.752,-1.085 -0.741,-0.062 -1.449,0.09 -1.671,0.36 -0.211,0.256 -1.357,2.704 -2.546,5.437 -3.704,8.519 -4.532,9.232 -10.717,9.223 -6.189,-0.009 -7.092,-0.82 -10.913,-9.804 -1.027,-2.414 -2.125,-4.591 -2.441,-4.838 -0.921,-0.722 -2.485,-0.546 -3.112,0.349"
         style="fill:#3a98ab;fill-opacity:1;fill-rule:nonzero;stroke:none"
         id="path7910"
         inkscape:connector-curvature="0" />
    </g>
    <g
       id="g7912"
       transform="matrix(0.44239238,0,0,-0.40934608,27.975181,271.8831)"
       style="fill:#3a98ab;fill-opacity:1">
      <path
         d="M 0,0 C 2.175,1.326 2.834,4.362 1.412,6.498 -0.392,9.206 -3.544,9.6 -5.927,7.416 -8.238,5.298 -7.885,1.604 -5.216,-0.023 -3.727,-0.932 -1.512,-0.922 0,0 m -4.845,-5.076 c -1.888,0.482 -4.246,2.063 -5.247,3.516 -1.363,1.982 -1.702,3.11 -1.702,5.667 0,7.648 8.706,11.927 14.804,7.276 C 5.232,9.688 6.539,6.981 6.539,4.072 6.539,2.803 6.312,1.222 6.035,0.558 5.342,-1.098 3.091,-3.514 1.468,-4.342 -0.088,-5.136 -3.195,-5.497 -4.845,-5.076 m -14.298,-22.892 c -0.308,0.44 -0.56,0.974 -0.56,1.189 0,0.443 3.523,8.697 4.68,10.965 1.146,2.247 3.546,4.667 5.565,5.611 1.616,0.756 2.307,0.841 6.831,0.841 4.519,0 5.215,-0.086 6.829,-0.839 3.247,-1.515 4.993,-3.983 8.248,-11.657 1.857,-4.376 1.987,-4.856 1.559,-5.752 -0.358,-0.752 -0.762,-1.002 -1.752,-1.085 -0.741,-0.062 -1.449,0.09 -1.671,0.36 -0.211,0.256 -1.357,2.704 -2.545,5.437 -3.704,8.519 -4.533,9.232 -10.718,9.223 -6.189,-0.009 -7.092,-0.82 -10.913,-9.804 -1.027,-2.414 -2.125,-4.591 -2.441,-4.838 -0.921,-0.722 -2.485,-0.546 -3.112,0.349"
         style="fill:#3a98ab;fill-opacity:1;fill-rule:nonzero;stroke:none"
         id="path7914"
         inkscape:connector-curvature="0" />
    </g>
  </g>
</svg>
