<?xml version="1.0" encoding="UTF-8" standalone="no"?>
<!-- Created with Inkscape (http://www.inkscape.org/) -->

<svg
   xmlns:dc="http://purl.org/dc/elements/1.1/"
   xmlns:cc="http://creativecommons.org/ns#"
   xmlns:rdf="http://www.w3.org/1999/02/22-rdf-syntax-ns#"
   xmlns:svg="http://www.w3.org/2000/svg"
   xmlns="http://www.w3.org/2000/svg"
   xmlns:sodipodi="http://sodipodi.sourceforge.net/DTD/sodipodi-0.dtd"
   xmlns:inkscape="http://www.inkscape.org/namespaces/inkscape"
   width="200"
   height="200"
   viewBox="0 0 52.916666 52.916668"
   version="1.1"
   id="svg3506"
   inkscape:version="0.92.2 (5c3e80d, 2017-08-06)"
   sodipodi:docname="house.svg">
  <defs
     id="defs3500">
    <clipPath
       clipPathUnits="userSpaceOnUse"
       id="clipPath8806">
      <path
         d="m 217.174,529.313 h 7.516 v -7.393 h -7.516 z"
         id="path8804"
         inkscape:connector-curvature="0" />
    </clipPath>
    <clipPath
       clipPathUnits="userSpaceOnUse"
       id="clipPath8822">
      <path
         d="m 193.378,530.029 h 7.516 v -7.393 h -7.516 z"
         id="path8820"
         inkscape:connector-curvature="0" />
    </clipPath>
    <clipPath
       clipPathUnits="userSpaceOnUse"
       id="clipPath8838">
      <path
         d="m 239.785,536.821 h 7.516 v -7.393 h -7.516 z"
         id="path8836"
         inkscape:connector-curvature="0" />
    </clipPath>
  </defs>
  <sodipodi:namedview
     id="base"
     pagecolor="#ffffff"
     bordercolor="#666666"
     borderopacity="1.0"
     inkscape:pageopacity="0.0"
     inkscape:pageshadow="2"
     inkscape:zoom="1.4"
     inkscape:cx="95.602941"
     inkscape:cy="204.71975"
     inkscape:document-units="mm"
     inkscape:current-layer="layer1"
     showgrid="false"
     units="px"
     inkscape:window-width="958"
     inkscape:window-height="974"
     inkscape:window-x="950"
     inkscape:window-y="0"
     inkscape:window-maximized="0" />
  <metadata
     id="metadata3503">
    <rdf:RDF>
      <cc:Work
         rdf:about="">
        <dc:format>image/svg+xml</dc:format>
        <dc:type
           rdf:resource="http://purl.org/dc/dcmitype/StillImage" />
        <dc:title></dc:title>
      </cc:Work>
    </rdf:RDF>
  </metadata>
  <g
     inkscape:label="Calque 1"
     inkscape:groupmode="layer"
     id="layer1"
     transform="translate(0,-244.08332)">
    <g
       id="g7916"
       transform="matrix(0.47378645,0,0,-0.47378645,45.411378,274.75846)">
      <path
         d="M 0,0 C -0.269,0.097 -9.008,8.768 -19.42,19.269 L -38.353,38.36 -57.519,19.236 C -78.273,-1.473 -77.526,-0.844 -79.28,0.91 c -1.771,1.77 -2.501,0.912 19.467,22.881 19.01,19.009 20.337,20.266 21.396,20.266 1.045,0 1.722,-0.606 9.178,-8.219 l 8.05,-8.22 0.015,4.432 c 0.013,3.978 0.084,4.52 0.69,5.29 0.856,1.089 2.519,1.173 3.425,0.173 0.562,-0.621 0.629,-1.337 0.716,-7.731 l 0.096,-7.047 9.751,-9.778 C 3.83,2.603 4.005,2.372 2.686,0.812 2.078,0.095 0.804,-0.291 0,0 m -68.035,-24.353 c -0.635,0.635 -0.651,1.085 -0.651,18.57 v 17.918 l 0.799,0.8 c 0.975,0.975 1.774,1.01 2.898,0.126 l 0.854,-0.672 0.085,-16.337 0.084,-16.336 8.545,-0.087 8.545,-0.087 v 7.095 c 0,5.894 0.086,7.217 0.507,7.818 0.498,0.712 0.627,0.724 7.957,0.724 7.329,0 7.458,-0.012 7.957,-0.724 0.421,-0.601 0.506,-1.924 0.506,-7.818 v -7.095 l 8.546,0.087 8.545,0.087 0.084,16.905 c 0.093,18.703 0.021,18.095 2.164,18.084 2.528,-0.013 2.472,0.442 2.472,-19.95 0,-17.761 -0.011,-18.057 -0.675,-18.901 l -0.675,-0.858 h -11.858 c -11.424,0 -11.882,0.024 -12.509,0.651 -0.611,0.611 -0.651,1.085 -0.651,7.812 v 7.162 h -3.906 -3.906 v -7.162 c 0,-6.727 -0.04,-7.201 -0.652,-7.812 -0.627,-0.627 -1.085,-0.651 -12.532,-0.651 -11.448,0 -11.906,0.024 -12.533,0.651"
         style="fill:#3a98ab;fill-opacity:1;fill-rule:nonzero;stroke:none"
         id="path7918"
         inkscape:connector-curvature="0" />
    </g>
    <g
       id="g7920"
       transform="matrix(0.47378645,0,0,-0.47378645,45.411378,274.75846)">
      <path
         d="M 0,0 C -0.269,0.097 -9.008,8.768 -19.42,19.269 L -38.353,38.36 -57.519,19.236 C -78.273,-1.473 -77.526,-0.844 -79.28,0.91 c -1.771,1.77 -2.501,0.912 19.467,22.881 19.01,19.009 20.337,20.266 21.396,20.266 1.045,0 1.722,-0.606 9.178,-8.219 l 8.05,-8.22 0.015,4.432 c 0.013,3.978 0.084,4.52 0.69,5.29 0.856,1.089 2.519,1.173 3.425,0.173 0.562,-0.621 0.629,-1.337 0.716,-7.731 l 0.096,-7.047 9.751,-9.778 C 3.83,2.603 4.005,2.372 2.686,0.812 2.078,0.095 0.804,-0.291 0,0 Z m -68.035,-24.353 c -0.635,0.635 -0.651,1.085 -0.651,18.57 v 17.918 l 0.799,0.8 c 0.975,0.975 1.774,1.01 2.898,0.126 l 0.854,-0.672 0.085,-16.337 0.084,-16.336 8.545,-0.087 8.545,-0.087 v 7.095 c 0,5.894 0.086,7.217 0.507,7.818 0.498,0.712 0.627,0.724 7.957,0.724 7.329,0 7.458,-0.012 7.957,-0.724 0.421,-0.601 0.506,-1.924 0.506,-7.818 v -7.095 l 8.546,0.087 8.545,0.087 0.084,16.905 c 0.093,18.703 0.021,18.095 2.164,18.084 2.528,-0.013 2.472,0.442 2.472,-19.95 0,-17.761 -0.011,-18.057 -0.675,-18.901 l -0.675,-0.858 h -11.858 c -11.424,0 -11.882,0.024 -12.509,0.651 -0.611,0.611 -0.651,1.085 -0.651,7.812 v 7.162 h -3.906 -3.906 v -7.162 c 0,-6.727 -0.04,-7.201 -0.652,-7.812 -0.627,-0.627 -1.085,-0.651 -12.532,-0.651 -11.448,0 -11.906,0.024 -12.533,0.651 z"
         style="fill:none;stroke:#3a98ab;stroke-width:1;stroke-linecap:butt;stroke-linejoin:miter;stroke-miterlimit:10;stroke-dasharray:none;stroke-opacity:1"
         id="path7922"
         inkscape:connector-curvature="0" />
    </g>
  </g>
</svg>
