<?xml version="1.0" encoding="UTF-8" standalone="no"?>
<!-- Created with Inkscape (http://www.inkscape.org/) -->

<svg
   xmlns:dc="http://purl.org/dc/elements/1.1/"
   xmlns:cc="http://creativecommons.org/ns#"
   xmlns:rdf="http://www.w3.org/1999/02/22-rdf-syntax-ns#"
   xmlns:svg="http://www.w3.org/2000/svg"
   xmlns="http://www.w3.org/2000/svg"
   xmlns:sodipodi="http://sodipodi.sourceforge.net/DTD/sodipodi-0.dtd"
   xmlns:inkscape="http://www.inkscape.org/namespaces/inkscape"
   width="200"
   height="200"
   viewBox="0 0 52.916666 52.916668"
   version="1.1"
   id="svg3506"
   inkscape:version="0.92.2 (5c3e80d, 2017-08-06)"
   sodipodi:docname="job-search-evolution.svg">
  <defs
     id="defs3500">
    <clipPath
       clipPathUnits="userSpaceOnUse"
       id="clipPath8806">
      <path
         d="m 217.174,529.313 h 7.516 v -7.393 h -7.516 z"
         id="path8804"
         inkscape:connector-curvature="0" />
    </clipPath>
    <clipPath
       clipPathUnits="userSpaceOnUse"
       id="clipPath8822">
      <path
         d="m 193.378,530.029 h 7.516 v -7.393 h -7.516 z"
         id="path8820"
         inkscape:connector-curvature="0" />
    </clipPath>
    <clipPath
       clipPathUnits="userSpaceOnUse"
       id="clipPath8838">
      <path
         d="m 239.785,536.821 h 7.516 v -7.393 h -7.516 z"
         id="path8836"
         inkscape:connector-curvature="0" />
    </clipPath>
    <clipPath
       clipPathUnits="userSpaceOnUse"
       id="clipPath8586">
      <path
         d="m 376.612,193.18 h 17.074 v -17.075 h -17.074 z"
         id="path8584"
         inkscape:connector-curvature="0" />
    </clipPath>
    <clipPath
       clipPathUnits="userSpaceOnUse"
       id="clipPath8702">
      <path
         d="m 792.929,209.492 h 8.097 v -7.964 h -8.097 z"
         id="path8700"
         inkscape:connector-curvature="0" />
    </clipPath>
    <clipPath
       clipPathUnits="userSpaceOnUse"
       id="clipPath8686">
      <path
         d="m 742.939,202.176 h 8.097 v -7.964 h -8.097 z"
         id="path8684"
         inkscape:connector-curvature="0" />
    </clipPath>
    <clipPath
       clipPathUnits="userSpaceOnUse"
       id="clipPath8670">
      <path
         d="m 768.573,201.405 h 8.096 v -7.964 h -8.096 z"
         id="path8668"
         inkscape:connector-curvature="0" />
    </clipPath>
    <clipPath
       clipPathUnits="userSpaceOnUse"
       id="clipPath8390">
      <path
         d="M 88.1177,87.0158 H 100.08 V 75.0535 H 88.1177 Z"
         id="path8388"
         inkscape:connector-curvature="0" />
    </clipPath>
    <clipPath
       clipPathUnits="userSpaceOnUse"
       id="clipPath8374">
      <path
         d="M 67.5484,86.7241 H 79.5107 V 74.7618 H 67.5484 Z"
         id="path8372"
         inkscape:connector-curvature="0" />
    </clipPath>
    <clipPath
       clipPathUnits="userSpaceOnUse"
       id="clipPath8358">
      <path
         d="M 46.8331,86.8699 H 58.7954 V 74.9076 H 46.8331 Z"
         id="path8356"
         inkscape:connector-curvature="0" />
    </clipPath>
    <clipPath
       clipPathUnits="userSpaceOnUse"
       id="clipPath8542">
      <path
         d="M 189.832,90.7442 H 201.03 V 79.5456 h -11.198 z"
         id="path8540"
         inkscape:connector-curvature="0" />
    </clipPath>
    <clipPath
       clipPathUnits="userSpaceOnUse"
       id="clipPath8526">
      <path
         d="m 170.663,90.7442 h 11.198 V 79.5456 h -11.198 z"
         id="path8524"
         inkscape:connector-curvature="0" />
    </clipPath>
    <clipPath
       clipPathUnits="userSpaceOnUse"
       id="clipPath8510">
      <path
         d="m 151.233,90.8746 h 11.199 V 79.676 h -11.199 z"
         id="path8508"
         inkscape:connector-curvature="0" />
    </clipPath>
    <clipPath
       clipPathUnits="userSpaceOnUse"
       id="clipPath8478">
      <path
         d="m 139.758,103.132 h 11.198 V 91.9337 h -11.198 z"
         id="path8476"
         inkscape:connector-curvature="0" />
    </clipPath>
    <clipPath
       clipPathUnits="userSpaceOnUse"
       id="clipPath8462">
      <path
         d="m 158.927,103.393 h 11.198 V 92.1945 h -11.198 z"
         id="path8460"
         inkscape:connector-curvature="0" />
    </clipPath>
    <clipPath
       clipPathUnits="userSpaceOnUse"
       id="clipPath8446">
      <path
         d="m 178.356,103.263 h 11.199 V 92.0641 h -11.199 z"
         id="path8444"
         inkscape:connector-curvature="0" />
    </clipPath>
    <clipPath
       clipPathUnits="userSpaceOnUse"
       id="clipPath8430">
      <path
         d="m 198.568,103.132 h 11.199 V 91.9337 h -11.199 z"
         id="path8428"
         inkscape:connector-curvature="0" />
    </clipPath>
    <clipPath
       clipPathUnits="userSpaceOnUse"
       id="clipPath8318">
      <path
         d="m 792.405,95.1114 h 9.528 v -9.3722 h -9.528 z"
         id="path8316"
         inkscape:connector-curvature="0" />
    </clipPath>
    <clipPath
       clipPathUnits="userSpaceOnUse"
       id="clipPath8302">
      <path
         d="m 733.576,86.5021 h 9.528 v -9.3722 h -9.528 z"
         id="path8300"
         inkscape:connector-curvature="0" />
    </clipPath>
    <clipPath
       clipPathUnits="userSpaceOnUse"
       id="clipPath8286">
      <path
         d="m 763.741,85.5939 h 9.528 v -9.3722 h -9.528 z"
         id="path8284"
         inkscape:connector-curvature="0" />
    </clipPath>
  </defs>
  <sodipodi:namedview
     id="base"
     pagecolor="#ffffff"
     bordercolor="#666666"
     borderopacity="1.0"
     inkscape:pageopacity="0.0"
     inkscape:pageshadow="2"
     inkscape:zoom="1.4"
     inkscape:cx="95.602941"
     inkscape:cy="204.71975"
     inkscape:document-units="mm"
     inkscape:current-layer="layer1"
     showgrid="false"
     units="px"
     inkscape:window-width="958"
     inkscape:window-height="974"
     inkscape:window-x="950"
     inkscape:window-y="0"
     inkscape:window-maximized="0" />
  <metadata
     id="metadata3503">
    <rdf:RDF>
      <cc:Work
         rdf:about="">
        <dc:format>image/svg+xml</dc:format>
        <dc:type
           rdf:resource="http://purl.org/dc/dcmitype/StillImage" />
        <dc:title></dc:title>
      </cc:Work>
    </rdf:RDF>
  </metadata>
  <g
     inkscape:label="Calque 1"
     inkscape:groupmode="layer"
     id="layer1"
     transform="translate(0,-244.08332)">
    <g
       transform="matrix(0.37399233,0,0,-0.37399233,29.122818,265.86418)"
       id="g8232">
      <path
         inkscape:connector-curvature="0"
         id="path8234"
         style="fill:#b0b2b0;fill-opacity:1;fill-rule:nonzero;stroke:none"
         d="M 0,0 C -0.947,0.947 -1.017,1.385 -0.402,2.532 -0.079,3.138 0.478,3.34 1.811,3.34 3.803,3.34 4.594,2.789 4.594,1.401 4.594,-0.58 1.519,-1.519 0,0 m -15.774,-0.186 c -1.043,0.731 -1.227,2.341 -0.35,3.069 0.393,0.326 2.508,0.443 6.567,0.365 l 5.989,-0.116 0.419,-1.193 c 0.36,-1.025 0.282,-1.302 -0.559,-1.983 -0.84,-0.68 -1.693,-0.792 -6.058,-0.792 -3.922,0 -5.293,0.149 -6.008,0.65 m -0.273,-8.345 c -0.36,0.361 -0.656,1.006 -0.656,1.431 0,0.427 0.296,1.072 0.656,1.432 0.568,0.568 2.365,0.656 13.333,0.656 10.968,0 12.765,-0.088 13.333,-0.656 0.36,-0.36 0.656,-1.005 0.656,-1.432 0,-0.425 -0.296,-1.07 -0.656,-1.431 -0.568,-0.568 -2.365,-0.657 -13.333,-0.657 -10.968,0 -12.765,0.089 -13.333,0.657 m 0,-8.352 c -0.763,0.763 -0.83,1.579 -0.224,2.712 0.414,0.773 1.008,0.808 13.489,0.808 13.784,0 14.057,-0.037 14.057,-1.933 0,-2.196 -0.293,-2.243 -13.989,-2.243 -10.968,0 -12.765,0.089 -13.333,0.656 M 1.992,-27.349 c 3.681,0.868 6.552,2.437 9.358,5.114 4.639,4.424 6.704,9.097 6.686,15.135 -0.033,11.869 -9.102,20.947 -20.959,20.981 -6.01,0.016 -10.708,-2.066 -15.136,-6.708 -7.83,-8.208 -7.603,-20.764 0.521,-28.888 5.3,-5.3 12.337,-7.33 19.53,-5.634 m -38.338,-17.13 10.665,10.642 -1.887,1.888 -1.887,1.888 -10.536,-10.565 c -8.569,-8.593 -10.536,-10.776 -10.536,-11.695 0,-1.367 1.328,-2.8 2.593,-2.8 0.649,0 4.088,3.158 11.588,10.642 m 59.523,-11.477 4.997,5.011 h -5.109 -5.109 v -5.011 c 0,-2.757 0.051,-5.012 0.111,-5.012 0.061,0 2.361,2.255 5.11,5.012 m -9.397,-0.239 c 0,6.819 0.106,8.217 0.657,8.769 0.551,0.552 1.951,0.656 8.769,0.656 h 8.113 V -6.264 34.241 H -3.132 -37.582 V 0.948 -32.346 l 3.662,3.646 c 2.07,2.06 4.013,3.644 4.469,3.644 0.444,0 1.388,-0.562 2.097,-1.25 l 1.292,-1.251 1.995,2.026 1.995,2.026 -1.687,2.609 c -3.183,4.926 -4.451,9.741 -4.088,15.527 0.681,10.832 8.251,20.039 18.712,22.753 3.135,0.813 8.945,0.891 12.124,0.162 5.716,-1.311 11.946,-5.763 15.373,-10.987 4.67,-7.118 5.187,-17.163 1.282,-24.899 -6.717,-13.306 -23.64,-17.818 -36.254,-9.665 l -2.501,1.615 -2.013,-2.044 -2.013,-2.043 1.338,-1.38 c 0.736,-0.76 1.338,-1.738 1.338,-2.173 0,-0.474 -3.451,-4.258 -8.56,-9.389 l -8.561,-8.596 v -6.146 -6.148 H -11.9 13.78 Z m -54.882,-11.633 c -0.528,0.529 -0.656,1.703 -0.656,6.047 v 5.389 l -1.847,-1.301 c -4.366,-3.078 -10.152,-1.009 -10.951,3.916 -0.566,3.491 -0.11,4.255 6.57,10.991 l 6.228,6.281 V 0.3 c 0,32.902 0.07,36.875 0.656,37.461 0.587,0.587 4.606,0.656 37.97,0.656 33.365,0 37.384,-0.069 37.971,-0.656 0.588,-0.588 0.656,-5.167 0.656,-44.149 v -43.493 l -9.302,-9.302 -9.301,-9.301 h -28.668 c -25.506,0 -28.742,0.073 -29.326,0.656" />
    </g>
    <g
       transform="matrix(0.37399233,0,0,-0.37399233,29.182357,265.84773)"
       id="g8236">
      <path
         inkscape:connector-curvature="0"
         id="path8238"
         style="fill:#3a98ab;fill-opacity:1;fill-rule:nonzero;stroke:none"
         d="m 0,0 c -0.947,0.947 -1.017,1.386 -0.403,2.533 0.324,0.605 0.88,0.808 2.214,0.808 1.991,0 2.783,-0.551 2.783,-1.939 C 4.594,-0.579 1.518,-1.518 0,0 m -15.775,-0.185 c -1.043,0.731 -1.226,2.341 -0.349,3.069 0.393,0.326 2.507,0.443 6.567,0.364 L -3.568,3.132 -3.149,1.94 c 0.36,-1.026 0.282,-1.302 -0.559,-1.983 -0.84,-0.681 -1.693,-0.792 -6.059,-0.792 -3.921,0 -5.292,0.148 -6.008,0.65 m -0.272,-8.345 c -0.361,0.361 -0.656,1.005 -0.656,1.431 0,0.427 0.295,1.072 0.656,1.432 0.568,0.567 2.365,0.656 13.333,0.656 10.967,0 12.765,-0.088 13.332,-0.656 0.361,-0.36 0.656,-1.005 0.656,-1.432 0,-0.426 -0.295,-1.07 -0.656,-1.431 -0.567,-0.568 -2.365,-0.657 -13.332,-0.657 -10.968,0 -12.765,0.089 -13.333,0.657 m 0,-8.352 c -0.763,0.763 -0.83,1.579 -0.224,2.712 0.414,0.773 1.007,0.808 13.488,0.808 13.785,0 14.057,-0.037 14.057,-1.933 0,-2.196 -0.292,-2.243 -13.988,-2.243 -10.968,0 -12.765,0.089 -13.333,0.656 M 1.991,-27.348 c 3.682,0.868 6.552,2.437 9.359,5.113 4.638,4.424 6.703,9.098 6.686,15.136 -0.034,11.868 -9.103,20.947 -20.959,20.98 -6.011,0.017 -10.708,-2.065 -15.137,-6.707 -7.829,-8.208 -7.602,-20.764 0.522,-28.888 5.3,-5.3 12.337,-7.33 19.529,-5.634 m -38.338,-17.131 10.665,10.643 -1.886,1.888 -1.888,1.887 -10.535,-10.565 c -8.57,-8.593 -10.536,-10.776 -10.536,-11.694 0,-1.367 1.328,-2.8 2.592,-2.8 0.65,0 4.088,3.158 11.588,10.641 m -1.235,12.134 3.662,3.645 c 2.07,2.061 4.013,3.645 4.469,3.645 0.444,0 1.388,-0.562 2.097,-1.251 l 1.291,-1.25 1.995,2.026 1.996,2.026 -1.687,2.608 c -3.183,4.927 -4.451,9.742 -4.088,15.528 0.68,10.832 8.251,20.039 18.712,22.753 3.135,0.813 8.945,0.89 12.123,0.162 5.717,-1.312 11.946,-5.763 15.373,-10.987 4.671,-7.118 5.188,-17.163 1.283,-24.9 -6.717,-13.306 -23.641,-17.817 -36.255,-9.665 l -2.5,1.616 -2.013,-2.044 -2.014,-2.044 1.338,-1.379 c 0.737,-0.76 1.338,-1.738 1.338,-2.173 0,-0.474 -3.45,-4.258 -8.559,-9.389 l -8.561,-8.596 -4.264,-4.352 c -12.711,2.589 0.088,19.862 4.264,24.021 m -4.176,-24.046 -1.847,-1.301 c -4.367,-3.078 -10.152,-1.009 -10.952,3.915 -0.566,3.492 -0.11,4.256 6.571,10.992 l 6.228,6.28 z" />
    </g>
    <g
       transform="matrix(0.37399233,0,0,-0.37399233,18.36504,276.08069)"
       id="g8240">
      <path
         inkscape:connector-curvature="0"
         id="path8242"
         style="fill:#3a98ab;fill-opacity:1;fill-rule:evenodd;stroke:none"
         d="m 0,0 5.481,-6.577 -19.952,-20.829 -3.727,-1.535 -6.139,2.85 2.192,5.7 z" />
    </g>
    <g
       transform="matrix(0.37399233,0,0,-0.37399233,20.331417,280.66793)"
       id="g8244">
      <path
         inkscape:connector-curvature="0"
         id="path8246"
         style="fill:#3a98ab;fill-opacity:1;fill-rule:nonzero;stroke:none"
         d="m 0,0 c 0,-0.844 0.693,-1.518 1.536,-1.518 0.862,0 1.536,0.674 1.536,1.518 0,0.861 -0.674,1.555 -1.536,1.555 C 0.693,1.555 0,0.861 0,0 m 0.3,-12.815 c 0,-0.675 -0.281,-1.087 -1.03,-1.087 -0.357,0 -0.6,0.056 -0.769,0.093 v -2.079 c 0.132,-0.056 0.675,-0.206 1.405,-0.206 1.781,0 2.886,1.255 2.886,3.035 V -3.035 H 0.3 Z" />
    </g>
    <g
       transform="matrix(0.37399233,0,0,-0.37399233,23.92163,281.69786)"
       id="g8248">
      <path
         inkscape:connector-curvature="0"
         id="path8250"
         style="fill:#3a98ab;fill-opacity:1;fill-rule:nonzero;stroke:none"
         d="m 0,0 c -2.754,0 -4.833,-2.043 -4.833,-4.891 0,-2.829 2.079,-4.889 4.833,-4.889 2.755,0 4.834,2.06 4.834,4.889 C 4.834,-2.043 2.755,0 0,0 m 0,-7.514 c -1.218,0 -2.342,0.9 -2.342,2.623 0,1.743 1.124,2.623 2.342,2.623 1.218,0 2.343,-0.88 2.343,-2.623 0,-1.742 -1.125,-2.623 -2.343,-2.623" />
    </g>
    <g
       transform="matrix(0.37399233,0,0,-0.37399233,29.085941,283.51999)"
       id="g8252">
      <path
         inkscape:connector-curvature="0"
         id="path8254"
         style="fill:#3a98ab;fill-opacity:1;fill-rule:nonzero;stroke:none"
         d="m 0,0 c 0,-1.686 -1.012,-2.623 -2.286,-2.623 -1.255,0 -2.305,0.956 -2.305,2.623 0,1.687 1.05,2.604 2.305,2.604 C -1.012,2.604 0,1.687 0,0 m -4.591,-4.627 v 1.124 c 0.487,-0.787 1.462,-1.35 2.736,-1.35 2.623,0 4.346,2.081 4.346,4.873 0,2.735 -1.554,4.814 -4.253,4.814 -1.367,0 -2.379,-0.6 -2.791,-1.255 V 8.938 H -7.008 V -4.627 Z" />
    </g>
    <g
       id="g6630"
       transform="translate(5.8363257,34.345228)">
      <g
         id="g8280"
         transform="matrix(0.35277777,0,0,-0.35277777,-247.64313,264.38643)">
        <g
           id="g8282" />
        <g
           id="g8294">
          <g
             clip-path="url(#clipPath8286)"
             id="g8292"
             style="opacity:0.97508198">
            <g
               transform="translate(768.5059,85.5939)"
               id="g8290">
              <path
                 d="m 0,0 c 2.631,0 4.764,-2.098 4.764,-4.687 0,-2.587 -2.133,-4.685 -4.764,-4.685 -2.632,0 -4.765,2.098 -4.765,4.685 C -4.765,-2.098 -2.632,0 0,0"
                 style="fill:#ffffff;fill-opacity:1;fill-rule:nonzero;stroke:none"
                 id="path8288"
                 inkscape:connector-curvature="0" />
            </g>
          </g>
        </g>
      </g>
      <g
         id="g8296"
         transform="matrix(0.35277777,0,0,-0.35277777,-247.64313,264.38643)">
        <g
           id="g8298" />
        <g
           id="g8310">
          <g
             clip-path="url(#clipPath8302)"
             id="g8308"
             style="opacity:0.97508198">
            <g
               transform="translate(738.3398,86.5022)"
               id="g8306">
              <path
                 d="m 0,0 c 2.631,0 4.764,-2.098 4.764,-4.687 0,-2.587 -2.133,-4.685 -4.764,-4.685 -2.631,0 -4.765,2.098 -4.765,4.685 C -4.765,-2.098 -2.631,0 0,0"
                 style="fill:#ffffff;fill-opacity:1;fill-rule:nonzero;stroke:none"
                 id="path8304"
                 inkscape:connector-curvature="0" />
            </g>
          </g>
        </g>
      </g>
      <g
         id="g8312"
         transform="matrix(0.35277777,0,0,-0.35277777,-247.64313,264.38643)">
        <g
           id="g8314" />
        <g
           id="g8326">
          <g
             clip-path="url(#clipPath8318)"
             id="g8324"
             style="opacity:0.97508198">
            <g
               transform="translate(797.1689,95.1115)"
               id="g8322">
              <path
                 d="m 0,0 c 2.631,0 4.764,-2.099 4.764,-4.687 0,-2.587 -2.133,-4.685 -4.764,-4.685 -2.632,0 -4.765,2.098 -4.765,4.685 C -4.765,-2.099 -2.632,0 0,0"
                 style="fill:#ffffff;fill-opacity:1;fill-rule:nonzero;stroke:none"
                 id="path8320"
                 inkscape:connector-curvature="0" />
            </g>
          </g>
        </g>
      </g>
      <g
         id="g8328"
         transform="matrix(0.35277777,0,0,-0.35277777,33.73537,233.2527)"
         style="fill:#a91d22;fill-opacity:1">
        <path
           d="M 0,0 C 2.156,0.747 2.332,3.717 0.277,4.685 -0.296,4.954 -1.026,4.977 -1.698,4.743 -2.371,4.51 -2.927,4.043 -3.201,3.479 -3.476,2.916 -3.497,2.198 -3.261,1.536 -3.023,0.875 -2.549,0.328 -1.976,0.059 -1.403,-0.211 -0.673,-0.232 0,0 m -27.824,-9.641 c 2.156,0.748 2.332,3.717 0.277,4.685 -0.572,0.27 -1.303,0.292 -1.975,0.059 -0.673,-0.233 -1.228,-0.701 -1.502,-1.263 -0.275,-0.564 -0.297,-1.282 -0.06,-1.944 0.236,-0.662 0.712,-1.208 1.284,-1.478 0.573,-0.27 1.303,-0.291 1.976,-0.059 m -31.499,0.624 c 0.673,0.233 1.228,0.7 1.503,1.263 0.274,0.564 0.296,1.282 0.059,1.943 -0.237,0.663 -0.712,1.208 -1.285,1.479 -0.572,0.27 -1.303,0.291 -1.975,0.058 -0.672,-0.233 -1.228,-0.701 -1.502,-1.263 -0.275,-0.564 -0.296,-1.282 -0.06,-1.943 0.237,-0.663 0.712,-1.208 1.284,-1.479 0.573,-0.27 1.304,-0.291 1.976,-0.058 M -86.83,-21.65 c -0.216,0.601 -0.212,1.386 0.009,1.838 0.261,0.539 3.312,2.527 9.566,6.234 5.518,3.271 9.212,5.654 9.256,5.971 0.041,0.29 0.139,1.215 0.219,2.058 0.255,2.691 2.462,5.279 5.217,6.121 2.119,0.648 3.625,0.531 5.69,-0.442 2.054,-0.968 3.109,-2.063 3.893,-4.036 l 0.439,-1.109 5.736,0.432 c 11.486,0.864 10.889,0.77 11.903,1.888 1.878,2.069 3.737,2.967 6.331,3.057 1.677,0.058 4.841,-1.396 5.777,-2.656 l 0.669,-0.901 6.617,3.246 6.616,3.247 0.737,1.763 c 1.682,4.029 6.004,5.854 10.288,4.344 L 3.835,8.807 11.592,13.4 c 4.265,2.528 8.016,4.575 8.335,4.549 1.818,-0.143 3.107,-2.155 2.362,-3.684 -0.234,-0.481 -3.078,-2.336 -7.963,-5.197 L 6.728,4.618 6.85,2.808 C 6.949,1.332 6.801,0.65 6.047,-0.878 4.661,-3.684 2.326,-5.146 -0.952,-5.26 c -1.677,-0.057 -4.841,1.398 -5.777,2.657 l -0.669,0.901 -6.608,-3.235 -6.608,-3.236 -1.042,-2.111 c -1.125,-2.275 -2.155,-3.257 -4.281,-4.083 -2.012,-0.782 -3.9,-0.681 -6.035,0.324 -2.054,0.967 -3.109,2.06 -3.892,4.035 l -0.44,1.109 -5.736,-0.433 c -11.486,-0.864 -10.889,-0.77 -11.902,-1.887 -2.805,-3.092 -6.042,-3.836 -9.564,-2.198 l -1.945,0.905 -8.622,-5.166 c -4.742,-2.841 -9.085,-5.313 -9.65,-5.495 -1.358,-0.437 -2.628,0.185 -3.107,1.522 z"
           style="fill:#a91d22;fill-opacity:1;fill-rule:nonzero;stroke:none"
           id="path8330"
           inkscape:connector-curvature="0" />
      </g>
      <g
         id="g8332"
         transform="matrix(0.35277777,0,0,-0.35277777,39.038758,225.40304)"
         style="fill:#a91d22;fill-opacity:1">
        <path
           d="m 0,0 c -1.832,0.061 -3.368,-1.375 -3.429,-3.208 -0.046,-1.369 0.753,-2.625 2.013,-3.164 l 4.991,-2.218 0.133,-4.087 c 0.004,-1.834 1.493,-3.317 3.326,-3.314 1.834,0.004 3.319,1.493 3.315,3.326 0,0.068 -0.002,0.137 -0.006,0.204 l -0.2,6.166 c -0.041,1.272 -0.806,2.408 -1.969,2.926 l -6.89,3.066 C 0.881,-0.117 0.444,-0.015 0,0"
           style="fill:#a91d22;fill-opacity:1;fill-rule:evenodd;stroke:none"
           id="path8334"
           inkscape:connector-curvature="0" />
      </g>
      <g
         id="g8336"
         transform="matrix(0.35277777,0,0,-0.35277777,2.4339389,238.01414)"
         style="fill:#a91d22;fill-opacity:1">
        <path
           d="m 0,0 c -1.703,-0.073 -3.074,-1.425 -3.173,-3.126 l -0.442,-6.155 c -0.092,-1.273 0.552,-2.485 1.659,-3.119 l 6.534,-3.746 c 1.592,-0.912 3.621,-0.362 4.534,1.229 0.912,1.591 0.363,3.62 -1.228,4.533 -0.001,0 -0.002,0.001 -0.003,0.002 l -4.723,2.706 0.293,4.071 C 3.61,-1.778 2.258,-0.168 0.431,-0.01 0.287,0.003 0.144,0.006 0,0"
           style="fill:#a91d22;fill-opacity:1;fill-rule:evenodd;stroke:none"
           id="path8338"
           inkscape:connector-curvature="0" />
      </g>
    </g>
  </g>
</svg>
