<?xml version="1.0" encoding="UTF-8" standalone="no"?>
<!-- Created with Inkscape (http://www.inkscape.org/) -->

<svg
   xmlns:dc="http://purl.org/dc/elements/1.1/"
   xmlns:cc="http://creativecommons.org/ns#"
   xmlns:rdf="http://www.w3.org/1999/02/22-rdf-syntax-ns#"
   xmlns:svg="http://www.w3.org/2000/svg"
   xmlns="http://www.w3.org/2000/svg"
   xmlns:sodipodi="http://sodipodi.sourceforge.net/DTD/sodipodi-0.dtd"
   xmlns:inkscape="http://www.inkscape.org/namespaces/inkscape"
   width="200"
   height="200"
   viewBox="0 0 52.916666 52.916668"
   version="1.1"
   id="svg3506"
   inkscape:version="0.92.2 (5c3e80d, 2017-08-06)"
   sodipodi:docname="key-figures.svg">
  <defs
     id="defs3500">
    <clipPath
       clipPathUnits="userSpaceOnUse"
       id="clipPath8806">
      <path
         d="m 217.174,529.313 h 7.516 v -7.393 h -7.516 z"
         id="path8804"
         inkscape:connector-curvature="0" />
    </clipPath>
    <clipPath
       clipPathUnits="userSpaceOnUse"
       id="clipPath8822">
      <path
         d="m 193.378,530.029 h 7.516 v -7.393 h -7.516 z"
         id="path8820"
         inkscape:connector-curvature="0" />
    </clipPath>
    <clipPath
       clipPathUnits="userSpaceOnUse"
       id="clipPath8838">
      <path
         d="m 239.785,536.821 h 7.516 v -7.393 h -7.516 z"
         id="path8836"
         inkscape:connector-curvature="0" />
    </clipPath>
    <clipPath
       clipPathUnits="userSpaceOnUse"
       id="clipPath8586">
      <path
         d="m 376.612,193.18 h 17.074 v -17.075 h -17.074 z"
         id="path8584"
         inkscape:connector-curvature="0" />
    </clipPath>
    <clipPath
       clipPathUnits="userSpaceOnUse"
       id="clipPath8702">
      <path
         d="m 792.929,209.492 h 8.097 v -7.964 h -8.097 z"
         id="path8700"
         inkscape:connector-curvature="0" />
    </clipPath>
    <clipPath
       clipPathUnits="userSpaceOnUse"
       id="clipPath8686">
      <path
         d="m 742.939,202.176 h 8.097 v -7.964 h -8.097 z"
         id="path8684"
         inkscape:connector-curvature="0" />
    </clipPath>
    <clipPath
       clipPathUnits="userSpaceOnUse"
       id="clipPath8670">
      <path
         d="m 768.573,201.405 h 8.096 v -7.964 h -8.096 z"
         id="path8668"
         inkscape:connector-curvature="0" />
    </clipPath>
    <clipPath
       clipPathUnits="userSpaceOnUse"
       id="clipPath8390">
      <path
         d="M 88.1177,87.0158 H 100.08 V 75.0535 H 88.1177 Z"
         id="path8388"
         inkscape:connector-curvature="0" />
    </clipPath>
    <clipPath
       clipPathUnits="userSpaceOnUse"
       id="clipPath8374">
      <path
         d="M 67.5484,86.7241 H 79.5107 V 74.7618 H 67.5484 Z"
         id="path8372"
         inkscape:connector-curvature="0" />
    </clipPath>
    <clipPath
       clipPathUnits="userSpaceOnUse"
       id="clipPath8358">
      <path
         d="M 46.8331,86.8699 H 58.7954 V 74.9076 H 46.8331 Z"
         id="path8356"
         inkscape:connector-curvature="0" />
    </clipPath>
    <clipPath
       clipPathUnits="userSpaceOnUse"
       id="clipPath8542">
      <path
         d="M 189.832,90.7442 H 201.03 V 79.5456 h -11.198 z"
         id="path8540"
         inkscape:connector-curvature="0" />
    </clipPath>
    <clipPath
       clipPathUnits="userSpaceOnUse"
       id="clipPath8526">
      <path
         d="m 170.663,90.7442 h 11.198 V 79.5456 h -11.198 z"
         id="path8524"
         inkscape:connector-curvature="0" />
    </clipPath>
    <clipPath
       clipPathUnits="userSpaceOnUse"
       id="clipPath8510">
      <path
         d="m 151.233,90.8746 h 11.199 V 79.676 h -11.199 z"
         id="path8508"
         inkscape:connector-curvature="0" />
    </clipPath>
    <clipPath
       clipPathUnits="userSpaceOnUse"
       id="clipPath8478">
      <path
         d="m 139.758,103.132 h 11.198 V 91.9337 h -11.198 z"
         id="path8476"
         inkscape:connector-curvature="0" />
    </clipPath>
    <clipPath
       clipPathUnits="userSpaceOnUse"
       id="clipPath8462">
      <path
         d="m 158.927,103.393 h 11.198 V 92.1945 h -11.198 z"
         id="path8460"
         inkscape:connector-curvature="0" />
    </clipPath>
    <clipPath
       clipPathUnits="userSpaceOnUse"
       id="clipPath8446">
      <path
         d="m 178.356,103.263 h 11.199 V 92.0641 h -11.199 z"
         id="path8444"
         inkscape:connector-curvature="0" />
    </clipPath>
    <clipPath
       clipPathUnits="userSpaceOnUse"
       id="clipPath8430">
      <path
         d="m 198.568,103.132 h 11.199 V 91.9337 h -11.199 z"
         id="path8428"
         inkscape:connector-curvature="0" />
    </clipPath>
    <clipPath
       clipPathUnits="userSpaceOnUse"
       id="clipPath8318">
      <path
         d="m 792.405,95.1114 h 9.528 v -9.3722 h -9.528 z"
         id="path8316"
         inkscape:connector-curvature="0" />
    </clipPath>
    <clipPath
       clipPathUnits="userSpaceOnUse"
       id="clipPath8302">
      <path
         d="m 733.576,86.5021 h 9.528 v -9.3722 h -9.528 z"
         id="path8300"
         inkscape:connector-curvature="0" />
    </clipPath>
    <clipPath
       clipPathUnits="userSpaceOnUse"
       id="clipPath8286">
      <path
         d="m 763.741,85.5939 h 9.528 v -9.3722 h -9.528 z"
         id="path8284"
         inkscape:connector-curvature="0" />
    </clipPath>
  </defs>
  <sodipodi:namedview
     id="base"
     pagecolor="#ffffff"
     bordercolor="#666666"
     borderopacity="1.0"
     inkscape:pageopacity="0.0"
     inkscape:pageshadow="2"
     inkscape:zoom="1.4"
     inkscape:cx="95.602941"
     inkscape:cy="204.71975"
     inkscape:document-units="mm"
     inkscape:current-layer="layer1"
     showgrid="false"
     units="px"
     inkscape:window-width="958"
     inkscape:window-height="974"
     inkscape:window-x="950"
     inkscape:window-y="0"
     inkscape:window-maximized="0" />
  <metadata
     id="metadata3503">
    <rdf:RDF>
      <cc:Work
         rdf:about="">
        <dc:format>image/svg+xml</dc:format>
        <dc:type
           rdf:resource="http://purl.org/dc/dcmitype/StillImage" />
        <dc:title></dc:title>
      </cc:Work>
    </rdf:RDF>
  </metadata>
  <g
     inkscape:label="Calque 1"
     inkscape:groupmode="layer"
     id="layer1"
     transform="translate(0,-244.08332)">
    <g
       transform="matrix(0.28005101,0,0,-0.28005101,-79.184297,307.98226)"
       id="g11419">
      <path
         inkscape:connector-curvature="0"
         d="m 315.91032,186.72668 c -2.33306,0 -4.22314,-1.88862 -4.22314,-4.22168 V 93.826289 c 0,-4.663485 3.7828,-8.44482 8.44629,-8.444828 h 122.45947 c 2.33306,0 4.22168,1.89009 4.22168,4.223146 v 4.221682 c 0,2.333063 -1.88862,4.223145 -4.22168,4.223145 H 324.35514 V 182.505 c 0,2.33306 -1.88862,4.22168 -4.22167,4.22168 z M 415.9445,142.67444 c -0.008,-0.007 -0.0156,-0.0137 -0.0234,-0.0205 0.007,-0.0509 0.0143,-0.10148 0.0205,-0.15235 4.2e-4,0.0576 0.002,0.11524 0.003,0.17286 z m 5.18848,-9.93897 c -0.0358,-0.40374 -0.0283,-0.79973 0.0366,-1.17187 0.18383,0.27079 0.3817,0.52324 0.66064,0.67969 0.005,0.002 0.009,0.003 0.0132,0.006 -0.2607,0.1638 -0.49296,0.32565 -0.71045,0.48633 z m -81.79834,-3.0293 c -0.16514,-0.0622 -0.30951,-0.14554 -0.29737,-0.38378 0.33182,0.25264 -0.0385,-0.0602 0.26368,0.3208 0.0109,0.0139 0.0214,0.0286 0.0322,0.0425 5.8e-4,0.007 5.6e-4,0.0135 0.002,0.0205 z m -2.31006,-3.35449 v -0.8877 c 0.19234,0.17285 0.38014,0.34391 0.59033,0.52149 -0.21127,0.10505 -0.40612,0.23051 -0.59033,0.36621 z m 79.72266,-4.99365 c -0.082,-0.001 -0.16411,-0.001 -0.2461,-0.003 -0.0131,-0.027 -0.0319,-0.0495 -0.0455,-0.0762 0.14502,-0.005 0.29006,-0.01 0.43506,-0.0146 -0.0475,0.0318 -0.0963,0.0618 -0.14355,0.0937 z m -79.69483,-5.58985 c -0.0122,0.006 0.0468,-0.0442 0.0659,-0.0601 0.006,0.007 0.0127,0.0136 0.019,0.0205 -0.0283,0.0133 -0.0568,0.0261 -0.085,0.0395 z m 86.2749,-4.84277 c -0.58883,-0.0677 -1.17787,-0.13711 -1.7666,-0.208 h 0.76319 c 0.34064,0 0.67663,0.0845 1.00341,0.208 z"
         style="fill:#afb1af;fill-opacity:0.50196078;stroke-width:0.26392099"
         id="path11321" />
      <path
         inkscape:connector-curvature="0"
         d="m 419.2978,178.14048 c -1.68909,0 -3.37793,-1.68884 -3.37793,-3.37793 v -60.80713 c 0,-1.68911 1.68884,-3.37794 3.37793,-3.37794 h 5.91211 c 1.68909,0 3.37792,1.68883 3.37792,3.37794 v 60.80713 c 0,1.68909 -1.68883,3.37793 -3.37792,3.37793 z m -50.67335,-8.44483 c -1.68909,0 -3.37792,-1.68884 -3.37792,-3.37793 v -52.3623 c 0,-1.68911 1.68883,-3.37794 3.37792,-3.37794 h 5.91212 c 1.68909,0 3.37792,1.68883 3.37792,3.37794 v 52.3623 c 0,1.68909 -1.68883,3.37793 -3.37792,3.37793 z m 25.33741,-16.89111 c -1.6891,0 -3.37939,-1.68884 -3.37939,-3.37793 v -35.47119 c 0,-1.68911 1.69029,-3.37794 3.37939,-3.37794 h 5.91064 c 1.68911,0 3.37793,1.68883 3.37793,3.37794 v 35.47119 c 0,1.68909 -1.68882,3.37793 -3.37793,3.37793 z m -50.67335,-16.89112 c -1.68909,0 -3.37792,-1.68883 -3.37792,-3.37792 v -18.58008 c 0,-1.68911 1.68883,-3.37794 3.37792,-3.37794 h 5.91211 c 1.68911,0 3.37793,1.68883 3.37793,3.37794 v 18.58008 c 0,1.68909 -1.68882,3.37792 -3.37793,3.37792 z"
         style="fill:none;fill-opacity:1;stroke:#3a98ab;stroke-width:5.25;stroke-miterlimit:4;stroke-dasharray:none;stroke-opacity:0.79583335"
         id="path11321-0" />
    </g>
  </g>
</svg>
