<?xml version="1.0" encoding="UTF-8" standalone="no"?>
<!-- Created with Inkscape (http://www.inkscape.org/) -->

<svg
   xmlns:dc="http://purl.org/dc/elements/1.1/"
   xmlns:cc="http://creativecommons.org/ns#"
   xmlns:rdf="http://www.w3.org/1999/02/22-rdf-syntax-ns#"
   xmlns:svg="http://www.w3.org/2000/svg"
   xmlns="http://www.w3.org/2000/svg"
   xmlns:sodipodi="http://sodipodi.sourceforge.net/DTD/sodipodi-0.dtd"
   xmlns:inkscape="http://www.inkscape.org/namespaces/inkscape"
   width="200"
   height="200"
   viewBox="0 0 52.916666 52.916668"
   version="1.1"
   id="svg3506"
   inkscape:version="0.92.2 (5c3e80d, 2017-08-06)"
   sodipodi:docname="male.svg">
  <defs
     id="defs3500">
    <clipPath
       clipPathUnits="userSpaceOnUse"
       id="clipPath8806">
      <path
         d="m 217.174,529.313 h 7.516 v -7.393 h -7.516 z"
         id="path8804"
         inkscape:connector-curvature="0" />
    </clipPath>
    <clipPath
       clipPathUnits="userSpaceOnUse"
       id="clipPath8822">
      <path
         d="m 193.378,530.029 h 7.516 v -7.393 h -7.516 z"
         id="path8820"
         inkscape:connector-curvature="0" />
    </clipPath>
    <clipPath
       clipPathUnits="userSpaceOnUse"
       id="clipPath8838">
      <path
         d="m 239.785,536.821 h 7.516 v -7.393 h -7.516 z"
         id="path8836"
         inkscape:connector-curvature="0" />
    </clipPath>
  </defs>
  <sodipodi:namedview
     id="base"
     pagecolor="#ffffff"
     bordercolor="#666666"
     borderopacity="1.0"
     inkscape:pageopacity="0.0"
     inkscape:pageshadow="2"
     inkscape:zoom="1.4"
     inkscape:cx="96.226203"
     inkscape:cy="50.162868"
     inkscape:document-units="mm"
     inkscape:current-layer="layer1"
     showgrid="false"
     units="px"
     inkscape:window-width="958"
     inkscape:window-height="974"
     inkscape:window-x="950"
     inkscape:window-y="0"
     inkscape:window-maximized="0" />
  <metadata
     id="metadata3503">
    <rdf:RDF>
      <cc:Work
         rdf:about="">
        <dc:format>image/svg+xml</dc:format>
        <dc:type
           rdf:resource="http://purl.org/dc/dcmitype/StillImage" />
        <dc:title />
      </cc:Work>
    </rdf:RDF>
  </metadata>
  <g
     inkscape:label="Calque 1"
     inkscape:groupmode="layer"
     id="layer1"
     transform="translate(0,-244.08332)">
    <g
       id="g4346"
       transform="matrix(0.70164941,0,0,-0.65973787,-513.26841,594.32192)">
      <path
         inkscape:connector-curvature="0"
         id="path4287"
         d="m 760.66022,509.7166 c 0,0 1.83533,-16.68595 1.83533,-16.68595 h 13.2555 l 1.821,16.68024 z"
         style="fill:#ffffff;fill-opacity:1;stroke:none;stroke-width:0.75px;stroke-linecap:butt;stroke-linejoin:miter;stroke-opacity:1" />
      <g
         transform="matrix(0.28586515,0,0,-0.28586515,734.80658,525.94516)"
         id="g4261">
        <polygon
           points="95.17,99.79 144.9,99.79 145.46,94.67 94.61,94.67 "
           id="polygon2"
           style="fill:#0094ab;fill-opacity:1" />
        <polygon
           points="96.3,110.02 143.79,110.02 144.34,104.91 95.73,104.91 "
           id="polygon4"
           style="fill:#0094ab;fill-opacity:1" />
        <polygon
           points="91.79,69.07 148.26,69.07 149.6,56.79 90.44,56.77 "
           id="polygon6"
           style="fill:#0094ab;fill-opacity:1" />
        <polygon
           points="122.01,230 135.92,230 141.96,126.72 143.23,115.14 96.86,115.14 98.13,126.68 104.21,230 118.12,230 118.12,126.76 122.01,126.75 "
           id="polygon8"
           style="fill:#0094ab;fill-opacity:1" />
        <polygon
           points="92.92,79.31 147.14,79.31 147.7,74.19 92.35,74.19 "
           id="polygon10"
           style="fill:#0094ab;fill-opacity:1" />
        <polygon
           points="94.04,89.55 146.02,89.55 146.58,84.43 93.48,84.43 "
           id="polygon12"
           style="fill:#0094ab;fill-opacity:1" />
        <rect
           x="150.87"
           y="56.790001"
           width="8.1899996"
           height="75.809998"
           id="rect14"
           style="fill:#0094ab;fill-opacity:1" />
        <rect
           x="80.940002"
           y="56.77"
           width="8.1899996"
           height="75.809998"
           id="rect16"
           style="fill:#0094ab;fill-opacity:1" />
        <g
           id="g20"
           style="fill:#0094ab;fill-opacity:1">
          <path
             inkscape:connector-curvature="0"
             d="m 119.84,50.45 c 9.02,0 16.32,-8.45 16.32,-18.86 0,-3.56 -0.87,-6.86 -2.35,-9.7 0.96,-2.1 1.85,-4.44 2.45,-6.93 0,0 -1.86,0.56 -4.5,1 0.59,-1.89 1.12,-3.86 1.41,-5.96 -3.26,1.46 -6.87,2.61 -10.51,3.02 -0.92,-0.19 -1.86,-0.3 -2.82,-0.3 -0.94,0 -1.86,0.11 -2.76,0.29 -0.24,0.05 -0.48,0.09 -0.71,0.15 -7.34,1.84 -12.84,9.39 -12.84,18.43 -0.01,10.41 7.29,18.86 16.31,18.86"
             id="path18"
             style="fill:#0094ab;fill-opacity:1" />
        </g>
      </g>
    </g>
  </g>
</svg>
