<?xml version="1.0" encoding="UTF-8" standalone="no"?>
<!-- Created with Inkscape (http://www.inkscape.org/) -->

<svg
   xmlns:dc="http://purl.org/dc/elements/1.1/"
   xmlns:cc="http://creativecommons.org/ns#"
   xmlns:rdf="http://www.w3.org/1999/02/22-rdf-syntax-ns#"
   xmlns:svg="http://www.w3.org/2000/svg"
   xmlns="http://www.w3.org/2000/svg"
   xmlns:sodipodi="http://sodipodi.sourceforge.net/DTD/sodipodi-0.dtd"
   xmlns:inkscape="http://www.inkscape.org/namespaces/inkscape"
   width="200"
   height="200"
   viewBox="0 0 52.916666 52.916668"
   version="1.1"
   id="svg3506"
   inkscape:version="0.92.2 (5c3e80d, 2017-08-06)"
   sodipodi:docname="people-evolution.svg">
  <defs
     id="defs3500">
    <clipPath
       clipPathUnits="userSpaceOnUse"
       id="clipPath8806">
      <path
         d="m 217.174,529.313 h 7.516 v -7.393 h -7.516 z"
         id="path8804"
         inkscape:connector-curvature="0" />
    </clipPath>
    <clipPath
       clipPathUnits="userSpaceOnUse"
       id="clipPath8822">
      <path
         d="m 193.378,530.029 h 7.516 v -7.393 h -7.516 z"
         id="path8820"
         inkscape:connector-curvature="0" />
    </clipPath>
    <clipPath
       clipPathUnits="userSpaceOnUse"
       id="clipPath8838">
      <path
         d="m 239.785,536.821 h 7.516 v -7.393 h -7.516 z"
         id="path8836"
         inkscape:connector-curvature="0" />
    </clipPath>
  </defs>
  <sodipodi:namedview
     id="base"
     pagecolor="#ffffff"
     bordercolor="#666666"
     borderopacity="1.0"
     inkscape:pageopacity="0.0"
     inkscape:pageshadow="2"
     inkscape:zoom="3.959798"
     inkscape:cx="58.749935"
     inkscape:cy="47.321274"
     inkscape:document-units="mm"
     inkscape:current-layer="layer1"
     showgrid="false"
     units="px"
     inkscape:window-width="958"
     inkscape:window-height="974"
     inkscape:window-x="950"
     inkscape:window-y="0"
     inkscape:window-maximized="0" />
  <metadata
     id="metadata3503">
    <rdf:RDF>
      <cc:Work
         rdf:about="">
        <dc:format>image/svg+xml</dc:format>
        <dc:type
           rdf:resource="http://purl.org/dc/dcmitype/StillImage" />
        <dc:title />
      </cc:Work>
    </rdf:RDF>
  </metadata>
  <g
     inkscape:label="Calque 1"
     inkscape:groupmode="layer"
     id="layer1"
     transform="translate(0,-244.08332)">
    <g
       transform="matrix(0.48324282,0,0,-0.48324282,-78.210936,533.65453)"
       id="g10684">
      <g
         transform="translate(192.1304,554.6569)"
         id="g8788">
        <path
           inkscape:connector-curvature="0"
           id="path8790"
           style="fill:#b0b2b0;fill-opacity:1;fill-rule:nonzero;stroke:none"
           d="M 0,0 C 2.569,1.566 3.348,5.152 1.667,7.676 -0.463,10.874 -4.187,11.34 -7.001,8.76 -9.731,6.259 -9.313,1.894 -6.162,-0.028 -4.402,-1.101 -1.786,-1.089 0,0 m -5.723,-5.996 c -2.231,0.569 -5.016,2.436 -6.198,4.154 -1.611,2.34 -2.011,3.673 -2.011,6.694 0,9.034 10.284,14.088 17.487,8.594 C 6.181,11.443 7.724,8.247 7.724,4.81 7.724,3.311 7.456,1.443 7.128,0.659 6.311,-1.297 3.651,-4.151 1.733,-5.13 -0.104,-6.067 -3.773,-6.494 -5.723,-5.996 m -16.89,-27.041 c -0.363,0.519 -0.66,1.15 -0.66,1.404 0,0.523 4.16,10.274 5.526,12.952 1.354,2.654 4.19,5.513 6.575,6.628 1.908,0.893 2.725,0.993 8.068,0.993 5.338,0 6.162,-0.101 8.068,-0.99 3.835,-1.79 5.897,-4.704 9.743,-13.77 2.192,-5.17 2.346,-5.737 1.842,-6.794 -0.424,-0.889 -0.901,-1.184 -2.07,-1.282 -0.876,-0.074 -1.712,0.106 -1.975,0.424 -0.25,0.304 -1.603,3.195 -3.006,6.424 -4.375,10.063 -5.354,10.905 -12.66,10.894 -7.312,-0.011 -8.377,-0.968 -12.892,-11.581 -1.213,-2.851 -2.51,-5.423 -2.883,-5.715 -1.087,-0.852 -2.936,-0.644 -3.676,0.413" />
      </g>
      <g
         transform="translate(245.6548,554.6569)"
         id="g8792">
        <path
           inkscape:connector-curvature="0"
           id="path8794"
           style="fill:#b0b2b0;fill-opacity:1;fill-rule:nonzero;stroke:none"
           d="M 0,0 C 2.569,1.566 3.348,5.152 1.667,7.676 -0.463,10.874 -4.187,11.34 -7.002,8.76 -9.731,6.259 -9.314,1.894 -6.162,-0.028 -4.403,-1.101 -1.786,-1.089 0,0 m -5.724,-5.996 c -2.23,0.569 -5.016,2.436 -6.197,4.154 -1.611,2.34 -2.011,3.673 -2.011,6.694 0,9.034 10.284,14.088 17.487,8.594 C 6.18,11.443 7.724,8.247 7.724,4.81 7.724,3.311 7.456,1.443 7.128,0.659 6.311,-1.297 3.65,-4.151 1.733,-5.13 -0.104,-6.067 -3.774,-6.494 -5.723,-5.996 Z m -16.889,-27.041 c -0.364,0.519 -0.661,1.15 -0.661,1.404 0,0.523 4.161,10.274 5.527,12.952 1.354,2.654 4.189,5.513 6.575,6.628 1.908,0.893 2.724,0.993 8.068,0.993 5.338,0 6.161,-0.101 8.067,-0.99 3.836,-1.79 5.898,-4.704 9.744,-13.77 2.192,-5.17 2.346,-5.737 1.841,-6.794 -0.423,-0.889 -0.9,-1.184 -2.069,-1.282 -0.876,-0.074 -1.713,0.106 -1.975,0.424 -0.25,0.304 -1.603,3.195 -3.007,6.424 -4.375,10.063 -5.354,10.905 -12.659,10.894 -7.312,-0.011 -8.378,-0.968 -12.892,-11.581 -1.213,-2.851 -2.51,-5.423 -2.883,-5.715 -1.087,-0.852 -2.936,-0.644 -3.676,0.413" />
      </g>
      <g
         transform="translate(218.8926,554.6569)"
         id="g8796">
        <path
           inkscape:connector-curvature="0"
           id="path8798"
           style="fill:#b0b2b0;fill-opacity:1;fill-rule:nonzero;stroke:none"
           d="M 0,0 C 2.569,1.566 3.348,5.152 1.667,7.676 -0.463,10.874 -4.187,11.34 -7.002,8.76 -9.731,6.259 -9.314,1.894 -6.162,-0.028 -4.403,-1.101 -1.786,-1.089 0,0 m -5.723,-5.996 c -2.231,0.569 -5.017,2.436 -6.198,4.154 -1.611,2.34 -2.011,3.673 -2.011,6.694 0,9.034 10.284,14.088 17.487,8.594 C 6.181,11.443 7.724,8.247 7.724,4.81 7.724,3.311 7.456,1.443 7.128,0.659 6.311,-1.297 3.651,-4.151 1.733,-5.13 -0.104,-6.067 -3.774,-6.494 -5.723,-5.996 m -16.89,-27.041 c -0.364,0.519 -0.661,1.15 -0.661,1.404 0,0.523 4.161,10.274 5.527,12.952 1.354,2.654 4.19,5.513 6.575,6.628 1.908,0.893 2.724,0.993 8.068,0.993 5.338,0 6.161,-0.101 8.068,-0.99 3.835,-1.79 5.897,-4.704 9.743,-13.77 2.192,-5.17 2.346,-5.737 1.841,-6.794 -0.423,-0.889 -0.9,-1.184 -2.069,-1.282 -0.876,-0.074 -1.712,0.106 -1.975,0.424 -0.25,0.304 -1.603,3.195 -3.006,6.424 -4.375,10.063 -5.354,10.905 -12.66,10.894 -7.312,-0.011 -8.378,-0.968 -12.892,-11.581 -1.213,-2.851 -2.51,-5.423 -2.883,-5.715 -1.087,-0.852 -2.936,-0.644 -3.676,0.413" />
      </g>
      <g
         id="g8800">
        <g
           id="g8802" />
        <g
           id="g8814">
          <g
             style="opacity:0.97508198"
             id="g8812"
             clip-path="url(#clipPath8806)">
            <g
               id="g8810"
               transform="translate(220.9326,529.3132)">
              <path
                 inkscape:connector-curvature="0"
                 id="path8808"
                 style="fill:#ffffff;fill-opacity:1;fill-rule:nonzero;stroke:none"
                 d="m 0,0 c 2.075,0 3.758,-1.655 3.758,-3.697 0,-2.041 -1.683,-3.697 -3.758,-3.697 -2.076,0 -3.758,1.656 -3.758,3.697 C -3.758,-1.655 -2.076,0 0,0" />
            </g>
          </g>
        </g>
      </g>
      <g
         id="g8816">
        <g
           id="g8818" />
        <g
           id="g8830">
          <g
             style="opacity:0.97508198"
             id="g8828"
             clip-path="url(#clipPath8822)">
            <g
               id="g8826"
               transform="translate(197.1362,530.0295)">
              <path
                 inkscape:connector-curvature="0"
                 id="path8824"
                 style="fill:#ffffff;fill-opacity:1;fill-rule:nonzero;stroke:none"
                 d="m 0,0 c 2.076,0 3.758,-1.655 3.758,-3.697 0,-2.041 -1.682,-3.696 -3.758,-3.696 -2.075,0 -3.758,1.655 -3.758,3.696 C -3.758,-1.655 -2.075,0 0,0" />
            </g>
          </g>
        </g>
      </g>
      <g
         id="g8832">
        <g
           id="g8834" />
        <g
           id="g8846">
          <g
             style="opacity:0.97508198"
             id="g8844"
             clip-path="url(#clipPath8838)">
            <g
               id="g8842"
               transform="translate(243.543,536.821)">
              <path
                 inkscape:connector-curvature="0"
                 id="path8840"
                 style="fill:#ffffff;fill-opacity:1;fill-rule:nonzero;stroke:none"
                 d="m 0,0 c 2.076,0 3.758,-1.655 3.758,-3.697 0,-2.041 -1.682,-3.697 -3.758,-3.697 -2.075,0 -3.758,1.656 -3.758,3.697 C -3.758,-1.655 -2.075,0 0,0" />
            </g>
          </g>
        </g>
      </g>
      <g
         transform="translate(243.8896,531.4108)"
         id="g8848">
        <path
           inkscape:connector-curvature="0"
           id="path8850"
           style="fill:#3a98ab;fill-opacity:1;fill-rule:nonzero;stroke:none"
           d="M 0,0 C 1.701,0.589 1.84,2.932 0.219,3.695 -0.233,3.908 -0.809,3.925 -1.34,3.741 -1.87,3.558 -2.308,3.189 -2.525,2.745 -2.741,2.3 -2.758,1.734 -2.572,1.212 -2.385,0.69 -2.01,0.259 -1.559,0.046 -1.106,-0.167 -0.531,-0.184 0,0 m -21.948,-7.604 c 1.701,0.589 1.839,2.931 0.219,3.695 -0.453,0.213 -1.028,0.23 -1.559,0.046 -0.531,-0.184 -0.969,-0.553 -1.185,-0.997 -0.216,-0.444 -0.234,-1.011 -0.047,-1.533 0.187,-0.522 0.562,-0.953 1.013,-1.166 0.452,-0.212 1.028,-0.23 1.559,-0.046 z m -24.848,0.491 c 0.531,0.184 0.969,0.552 1.185,0.996 0.216,0.445 0.234,1.012 0.047,1.534 -0.187,0.521 -0.561,0.952 -1.013,1.165 -0.452,0.213 -1.028,0.23 -1.559,0.046 -0.53,-0.184 -0.968,-0.552 -1.185,-0.996 -0.216,-0.444 -0.234,-1.011 -0.047,-1.533 0.187,-0.522 0.562,-0.953 1.014,-1.166 0.451,-0.213 1.027,-0.23 1.558,-0.046 m -21.699,-9.966 c -0.17,0.475 -0.167,1.094 0.007,1.451 0.207,0.424 2.613,1.992 7.547,4.917 4.352,2.581 7.266,4.461 7.301,4.71 0.032,0.229 0.11,0.959 0.173,1.624 0.2,2.122 1.941,4.164 4.115,4.828 1.671,0.511 2.86,0.419 4.489,-0.349 1.62,-0.763 2.452,-1.627 3.07,-3.184 l 0.347,-0.874 4.525,0.341 c 9.06,0.681 8.589,0.607 9.389,1.489 1.481,1.632 2.949,2.341 4.994,2.412 1.324,0.046 3.819,-1.102 4.558,-2.096 l 0.527,-0.711 5.22,2.561 5.219,2.561 0.581,1.391 c 1.328,3.178 4.736,4.618 8.116,3.427 l 1.342,-0.473 6.119,3.625 c 3.365,1.993 6.324,3.608 6.576,3.588 1.434,-0.114 2.45,-1.7 1.863,-2.907 C 17.398,10.874 15.155,9.41 11.301,7.153 L 5.307,3.643 5.403,2.215 C 5.482,1.05 5.365,0.513 4.77,-0.692 3.677,-2.906 1.835,-4.06 -0.75,-4.149 c -1.324,-0.045 -3.819,1.102 -4.558,2.096 l -0.527,0.71 -5.213,-2.552 -5.213,-2.552 -0.822,-1.665 c -0.887,-1.795 -1.7,-2.57 -3.377,-3.221 -1.587,-0.617 -3.076,-0.538 -4.76,0.255 -1.621,0.763 -2.453,1.625 -3.071,3.183 l -0.347,0.874 -4.525,-0.34 c -9.06,-0.682 -8.589,-0.607 -9.389,-1.489 -2.212,-2.439 -4.765,-3.025 -7.544,-1.733 l -1.534,0.713 -6.802,-4.075 c -3.741,-2.241 -7.166,-4.192 -7.611,-4.335 -1.072,-0.345 -2.074,0.146 -2.452,1.201" />
      </g>
      <g
         transform="translate(255.749,548.9631)"
         id="g8852">
        <path
           inkscape:connector-curvature="0"
           id="path8854"
           style="fill:#3a98ab;fill-opacity:1;fill-rule:evenodd;stroke:none"
           d="m 0,0 c -1.446,0.048 -2.657,-1.084 -2.705,-2.53 -0.036,-1.08 0.594,-2.071 1.588,-2.496 L 2.82,-6.776 2.925,-10 c 0.003,-1.446 1.178,-2.617 2.624,-2.614 1.447,0.002 2.617,1.177 2.615,2.624 0,0.053 -0.002,0.107 -0.006,0.161 L 8.001,-4.966 C 7.968,-3.962 7.365,-3.065 6.448,-2.657 L 1.013,-0.239 C 0.694,-0.092 0.35,-0.011 0,0" />
      </g>
    </g>
    <g
       id="g8856"
       transform="matrix(0.35277777,0,0,-0.35277777,5.6681229,282.97166)">
      <path
         d="m 0,0 c -1.343,-0.058 -2.425,-1.124 -2.502,-2.466 l -0.35,-4.855 c -0.072,-1.004 0.437,-1.96 1.31,-2.461 l 5.154,-2.954 c 1.255,-0.72 2.856,-0.286 3.576,0.969 0.72,1.255 0.287,2.856 -0.968,3.576 l -0.003,0.002 -3.725,2.135 0.231,3.21 C 2.848,-1.402 1.781,-0.132 0.34,-0.007 0.227,0.002 0.113,0.005 0,0"
         style="fill:#3a98ab;fill-opacity:1;fill-rule:evenodd;stroke:none"
         id="path8858"
         inkscape:connector-curvature="0" />
    </g>
  </g>
</svg>
