<?xml version="1.0" encoding="UTF-8" standalone="no"?>
<!-- Created with Inkscape (http://www.inkscape.org/) -->

<svg
   xmlns:dc="http://purl.org/dc/elements/1.1/"
   xmlns:cc="http://creativecommons.org/ns#"
   xmlns:rdf="http://www.w3.org/1999/02/22-rdf-syntax-ns#"
   xmlns:svg="http://www.w3.org/2000/svg"
   xmlns="http://www.w3.org/2000/svg"
   xmlns:sodipodi="http://sodipodi.sourceforge.net/DTD/sodipodi-0.dtd"
   xmlns:inkscape="http://www.inkscape.org/namespaces/inkscape"
   width="200"
   height="200"
   viewBox="0 0 52.916666 52.916668"
   version="1.1"
   id="svg3506"
   inkscape:version="0.92.2 (5c3e80d, 2017-08-06)"
   sodipodi:docname="people.svg">
  <defs
     id="defs3500" />
  <sodipodi:namedview
     id="base"
     pagecolor="#ffffff"
     bordercolor="#666666"
     borderopacity="1.0"
     inkscape:pageopacity="0.0"
     inkscape:pageshadow="2"
     inkscape:zoom="1.979899"
     inkscape:cx="92.216979"
     inkscape:cy="87.98374"
     inkscape:document-units="mm"
     inkscape:current-layer="layer1"
     showgrid="false"
     units="px"
     inkscape:window-width="958"
     inkscape:window-height="974"
     inkscape:window-x="950"
     inkscape:window-y="0"
     inkscape:window-maximized="0" />
  <metadata
     id="metadata3503">
    <rdf:RDF>
      <cc:Work
         rdf:about="">
        <dc:format>image/svg+xml</dc:format>
        <dc:type
           rdf:resource="http://purl.org/dc/dcmitype/StillImage" />
        <dc:title></dc:title>
      </cc:Work>
    </rdf:RDF>
  </metadata>
  <g
     inkscape:label="Calque 1"
     inkscape:groupmode="layer"
     id="layer1"
     transform="translate(0,-244.08332)">
    <g
       transform="matrix(0.51637957,0,0,-0.51637957,-14.32398,552.37373)"
       id="g10654">
      <g
         transform="translate(56.2368,555.9704)"
         id="g7804">
        <path
           inkscape:connector-curvature="0"
           id="path7806"
           style="fill:#b0b2b0;fill-opacity:1;fill-rule:nonzero;stroke:none"
           d="m 0,0 c 2.478,1.51 3.229,4.968 1.608,7.402 -2.054,3.084 -5.646,3.533 -8.36,1.045 -2.632,-2.412 -2.23,-6.621 0.81,-8.474 C -4.246,-1.062 -1.722,-1.05 0,0 m -5.519,-5.782 c -2.151,0.549 -4.837,2.349 -5.977,4.005 -1.553,2.257 -1.939,3.542 -1.939,6.455 0,8.713 9.917,13.587 16.863,8.288 C 5.96,11.035 7.448,7.952 7.448,4.638 7.448,3.193 7.19,1.392 6.874,0.636 6.085,-1.251 3.521,-4.004 1.671,-4.947 c -1.772,-0.904 -5.31,-1.315 -7.19,-0.835 m -16.288,-26.077 c -0.35,0.5 -0.637,1.109 -0.637,1.353 0,0.506 4.012,9.908 5.33,12.491 1.306,2.559 4.04,5.316 6.341,6.392 1.84,0.861 2.627,0.957 7.779,0.957 5.148,0 5.942,-0.097 7.781,-0.955 3.698,-1.726 5.687,-4.536 9.395,-13.279 2.115,-4.985 2.263,-5.532 1.776,-6.552 -0.408,-0.857 -0.868,-1.141 -1.996,-1.236 -0.844,-0.071 -1.651,0.103 -1.903,0.41 -0.242,0.293 -1.546,3.08 -2.9,6.194 -4.219,9.704 -5.163,10.517 -12.208,10.506 -7.051,-0.01 -8.079,-0.934 -12.432,-11.169 -1.17,-2.749 -2.421,-5.229 -2.78,-5.511 -1.049,-0.821 -2.832,-0.62 -3.546,0.399" />
      </g>
      <g
         transform="translate(107.8525,555.9704)"
         id="g7808">
        <path
           inkscape:connector-curvature="0"
           id="path7810"
           style="fill:#b0b2b0;fill-opacity:1;fill-rule:nonzero;stroke:none"
           d="m 0,0 c 2.478,1.51 3.229,4.968 1.608,7.402 -2.055,3.084 -5.646,3.533 -8.36,1.045 -2.632,-2.412 -2.23,-6.621 0.81,-8.474 C -4.246,-1.062 -1.723,-1.05 0,0 m -5.519,-5.782 c -2.151,0.549 -4.838,2.349 -5.977,4.005 -1.553,2.257 -1.94,3.542 -1.94,6.455 0,8.713 9.917,13.587 16.864,8.288 C 5.96,11.035 7.448,7.952 7.448,4.638 7.448,3.193 7.19,1.392 6.874,0.636 6.085,-1.251 3.521,-4.004 1.671,-4.947 -0.101,-5.851 -3.64,-6.262 -5.519,-5.782 m -16.288,-26.077 c -0.35,0.5 -0.637,1.109 -0.637,1.353 0,0.506 4.012,9.908 5.33,12.491 1.305,2.559 4.04,5.316 6.34,6.392 1.84,0.861 2.628,0.957 7.78,0.957 5.148,0 5.942,-0.097 7.781,-0.955 3.698,-1.726 5.687,-4.536 9.395,-13.279 2.114,-4.985 2.263,-5.532 1.776,-6.552 -0.408,-0.857 -0.868,-1.141 -1.996,-1.236 -0.845,-0.071 -1.651,0.103 -1.903,0.41 -0.242,0.293 -1.547,3.08 -2.9,6.194 -4.22,9.704 -5.163,10.517 -12.208,10.506 -7.051,-0.01 -8.079,-0.934 -12.432,-11.169 -1.17,-2.749 -2.421,-5.229 -2.781,-5.511 -1.048,-0.821 -2.831,-0.62 -3.545,0.399" />
      </g>
      <g
         transform="translate(82.0444,555.9704)"
         id="g7812">
        <path
           inkscape:connector-curvature="0"
           id="path7814"
           style="fill:#a91d22;fill-opacity:1;fill-rule:nonzero;stroke:none"
           d="m 0,0 c 2.478,1.51 3.229,4.968 1.608,7.402 -2.054,3.084 -5.645,3.533 -8.36,1.045 C -9.384,6.035 -8.981,1.826 -5.942,-0.027 -4.246,-1.062 -1.722,-1.05 0,0 m -5.519,-5.782 c -2.151,0.549 -4.837,2.349 -5.977,4.005 -1.553,2.257 -1.939,3.542 -1.939,6.455 0,8.713 9.917,13.587 16.863,8.288 C 5.96,11.035 7.449,7.952 7.449,4.638 7.449,3.193 7.19,1.392 6.874,0.636 6.086,-1.251 3.521,-4.004 1.672,-4.947 -0.101,-5.851 -3.639,-6.262 -5.519,-5.782 m -16.287,-26.077 c -0.351,0.5 -0.638,1.109 -0.638,1.353 0,0.506 4.012,9.908 5.33,12.491 1.306,2.559 4.04,5.316 6.341,6.392 1.84,0.861 2.627,0.957 7.78,0.957 5.147,0 5.941,-0.097 7.78,-0.955 3.698,-1.726 5.687,-4.536 9.396,-13.279 2.114,-4.985 2.262,-5.532 1.775,-6.552 -0.408,-0.857 -0.868,-1.141 -1.996,-1.236 -0.844,-0.071 -1.65,0.103 -1.903,0.41 -0.241,0.293 -1.546,3.08 -2.9,6.194 -4.219,9.704 -5.163,10.517 -12.208,10.506 -7.051,-0.01 -8.079,-0.934 -12.432,-11.169 -1.17,-2.749 -2.421,-5.229 -2.78,-5.511 -1.049,-0.821 -2.831,-0.62 -3.545,0.399" />
      </g>
    </g>
  </g>
</svg>
