<?xml version="1.0" encoding="UTF-8" standalone="no"?>
<!-- Created with Inkscape (http://www.inkscape.org/) -->

<svg
   xmlns:dc="http://purl.org/dc/elements/1.1/"
   xmlns:cc="http://creativecommons.org/ns#"
   xmlns:rdf="http://www.w3.org/1999/02/22-rdf-syntax-ns#"
   xmlns:svg="http://www.w3.org/2000/svg"
   xmlns="http://www.w3.org/2000/svg"
   xmlns:sodipodi="http://sodipodi.sourceforge.net/DTD/sodipodi-0.dtd"
   xmlns:inkscape="http://www.inkscape.org/namespaces/inkscape"
   width="200"
   height="200"
   viewBox="0 0 52.916666 52.916668"
   version="1.1"
   id="svg3506"
   inkscape:version="0.92.2 (5c3e80d, 2017-08-06)"
   sodipodi:docname="person-growth.svg">
  <defs
     id="defs3500">
    <clipPath
       clipPathUnits="userSpaceOnUse"
       id="clipPath8806">
      <path
         d="m 217.174,529.313 h 7.516 v -7.393 h -7.516 z"
         id="path8804"
         inkscape:connector-curvature="0" />
    </clipPath>
    <clipPath
       clipPathUnits="userSpaceOnUse"
       id="clipPath8822">
      <path
         d="m 193.378,530.029 h 7.516 v -7.393 h -7.516 z"
         id="path8820"
         inkscape:connector-curvature="0" />
    </clipPath>
    <clipPath
       clipPathUnits="userSpaceOnUse"
       id="clipPath8838">
      <path
         d="m 239.785,536.821 h 7.516 v -7.393 h -7.516 z"
         id="path8836"
         inkscape:connector-curvature="0" />
    </clipPath>
  </defs>
  <sodipodi:namedview
     id="base"
     pagecolor="#ffffff"
     bordercolor="#666666"
     borderopacity="1.0"
     inkscape:pageopacity="0.0"
     inkscape:pageshadow="2"
     inkscape:zoom="1.4"
     inkscape:cx="95.602941"
     inkscape:cy="204.71975"
     inkscape:document-units="mm"
     inkscape:current-layer="layer1"
     showgrid="false"
     units="px"
     inkscape:window-width="958"
     inkscape:window-height="974"
     inkscape:window-x="950"
     inkscape:window-y="0"
     inkscape:window-maximized="0" />
  <metadata
     id="metadata3503">
    <rdf:RDF>
      <cc:Work
         rdf:about="">
        <dc:format>image/svg+xml</dc:format>
        <dc:type
           rdf:resource="http://purl.org/dc/dcmitype/StillImage" />
        <dc:title></dc:title>
      </cc:Work>
    </rdf:RDF>
  </metadata>
  <g
     inkscape:label="Calque 1"
     inkscape:groupmode="layer"
     id="layer1"
     transform="translate(0,-244.08332)">
    <g
       transform="matrix(0.59566281,0,0,-0.59566281,28.570013,265.00932)"
       id="g7984">
      <path
         inkscape:connector-curvature="0"
         id="path7986"
         style="fill:#b0b2b0;fill-opacity:1;fill-rule:nonzero;stroke:none"
         d="M 0,0 C 3.017,1.839 3.931,6.049 1.958,9.012 -0.543,12.767 -4.916,13.314 -8.221,10.285 -11.425,7.348 -10.936,2.223 -7.235,-0.033 -5.169,-1.292 -2.097,-1.279 0,0 m -6.72,-7.04 c -2.618,0.668 -5.889,2.86 -7.277,4.877 -1.891,2.748 -2.361,4.312 -2.361,7.859 0,10.608 12.074,16.542 20.532,10.091 C 7.257,13.436 9.069,9.682 9.069,5.647 9.069,3.888 8.754,1.695 8.369,0.774 7.41,-1.523 4.287,-4.875 2.035,-6.023 -0.123,-7.124 -4.431,-7.625 -6.72,-7.04 m -19.83,-31.75 c -0.427,0.61 -0.776,1.352 -0.776,1.649 0,0.615 4.885,12.063 6.49,15.207 1.589,3.117 4.919,6.473 7.719,7.783 2.241,1.048 3.199,1.166 9.472,1.166 6.268,0 7.235,-0.119 9.473,-1.163 4.503,-2.102 6.924,-5.523 11.44,-16.168 2.574,-6.069 2.754,-6.735 2.162,-7.977 -0.498,-1.043 -1.057,-1.39 -2.43,-1.505 -1.029,-0.086 -2.011,0.125 -2.318,0.499 -0.294,0.356 -1.883,3.75 -3.531,7.541 -5.136,11.816 -6.286,12.805 -14.863,12.792 -8.585,-0.013 -9.836,-1.138 -15.137,-13.598 -1.424,-3.348 -2.947,-6.368 -3.385,-6.71 -1.277,-1 -3.447,-0.756 -4.316,0.484" />
    </g>
    <g
       transform="matrix(0.59566281,0,0,-0.59566281,34.393686,269.26623)"
       id="g7988">
      <path
         inkscape:connector-curvature="0"
         id="path7990"
         style="fill:#3a98ab;fill-opacity:1;fill-rule:nonzero;stroke:none"
         d="m 0,0 c 7.292,0 13.205,-5.912 13.205,-13.205 0,-7.292 -5.913,-13.204 -13.205,-13.204 -7.293,0 -13.205,5.912 -13.205,13.204 C -13.205,-5.912 -7.293,0 0,0" />
    </g>
    <g
       transform="matrix(0.59566281,0,0,-0.59566281,33.602291,280.40495)"
       id="g7992">
      <path
         inkscape:connector-curvature="0"
         id="path7994"
         style="fill:#ffffff;fill-opacity:1;fill-rule:nonzero;stroke:none"
         d="m 0,0 v 10.99 c 0,0.512 0.415,0.927 0.927,0.927 h 0.71 c 0.512,0 0.927,-0.415 0.927,-0.927 V 0 c 0,-0.512 -0.415,-0.927 -0.927,-0.927 H 0.927 C 0.415,-0.927 0,-0.512 0,0" />
    </g>
    <g
       transform="matrix(0.59566281,0,0,-0.59566281,31.896133,274.69259)"
       id="g7996">
      <path
         inkscape:connector-curvature="0"
         id="path7998"
         style="fill:#ffffff;fill-opacity:1;fill-rule:nonzero;stroke:none"
         d="M 0,0 3.434,3.792 C 3.721,4.108 4.211,4.133 4.529,3.846 L 4.969,3.447 C 5.286,3.16 5.311,2.669 5.023,2.352 L 1.589,-1.439 C 1.302,-1.757 0.812,-1.781 0.494,-1.494 l -0.44,0.399 C -0.263,-0.808 -0.288,-0.317 0,0" />
    </g>
    <g
       transform="matrix(0.59566281,0,0,-0.59566281,36.835963,274.69259)"
       id="g8000">
      <path
         inkscape:connector-curvature="0"
         id="path8002"
         style="fill:#ffffff;fill-opacity:1;fill-rule:nonzero;stroke:none"
         d="M 0,0 -3.434,3.792 C -3.721,4.108 -4.211,4.133 -4.529,3.846 L -4.969,3.447 C -5.286,3.16 -5.311,2.669 -5.023,2.352 l 3.434,-3.791 c 0.287,-0.318 0.777,-0.342 1.095,-0.055 l 0.44,0.399 C 0.263,-0.808 0.288,-0.317 0,0" />
    </g>
    <g
       transform="matrix(0.59566281,0,0,-0.59566281,31.896133,279.61641)"
       id="g8004">
      <path
         inkscape:connector-curvature="0"
         id="path8006"
         style="fill:#ffffff;fill-opacity:1;fill-rule:nonzero;stroke:none"
         d="m 0,0 3.434,-3.792 c 0.287,-0.317 0.777,-0.341 1.095,-0.054 l 0.44,0.399 c 0.317,0.287 0.342,0.778 0.054,1.095 L 1.589,1.439 C 1.302,1.756 0.812,1.781 0.494,1.493 L 0.054,1.095 C -0.263,0.807 -0.288,0.317 0,0" />
    </g>
    <g
       transform="matrix(0.59566281,0,0,-0.59566281,36.835963,279.61641)"
       id="g8008">
      <path
         inkscape:connector-curvature="0"
         id="path8010"
         style="fill:#ffffff;fill-opacity:1;fill-rule:nonzero;stroke:none"
         d="m 0,0 -3.434,-3.792 c -0.287,-0.317 -0.777,-0.341 -1.095,-0.054 l -0.44,0.399 c -0.317,0.287 -0.342,0.778 -0.054,1.095 l 3.434,3.791 c 0.287,0.317 0.777,0.342 1.095,0.054 l 0.44,-0.398 C 0.263,0.807 0.288,0.317 0,0" />
    </g>
  </g>
</svg>
