<?xml version="1.0" encoding="UTF-8" standalone="no"?>
<!-- Created with Inkscape (http://www.inkscape.org/) -->

<svg
   xmlns:dc="http://purl.org/dc/elements/1.1/"
   xmlns:cc="http://creativecommons.org/ns#"
   xmlns:rdf="http://www.w3.org/1999/02/22-rdf-syntax-ns#"
   xmlns:svg="http://www.w3.org/2000/svg"
   xmlns="http://www.w3.org/2000/svg"
   xmlns:sodipodi="http://sodipodi.sourceforge.net/DTD/sodipodi-0.dtd"
   xmlns:inkscape="http://www.inkscape.org/namespaces/inkscape"
   width="200"
   height="200"
   viewBox="0 0 52.916666 52.916668"
   version="1.1"
   id="svg3506"
   inkscape:version="0.92.2 (5c3e80d, 2017-08-06)"
   sodipodi:docname="pie-chart.svg">
  <defs
     id="defs3500">
    <clipPath
       clipPathUnits="userSpaceOnUse"
       id="clipPath8806">
      <path
         d="m 217.174,529.313 h 7.516 v -7.393 h -7.516 z"
         id="path8804"
         inkscape:connector-curvature="0" />
    </clipPath>
    <clipPath
       clipPathUnits="userSpaceOnUse"
       id="clipPath8822">
      <path
         d="m 193.378,530.029 h 7.516 v -7.393 h -7.516 z"
         id="path8820"
         inkscape:connector-curvature="0" />
    </clipPath>
    <clipPath
       clipPathUnits="userSpaceOnUse"
       id="clipPath8838">
      <path
         d="m 239.785,536.821 h 7.516 v -7.393 h -7.516 z"
         id="path8836"
         inkscape:connector-curvature="0" />
    </clipPath>
    <clipPath
       clipPathUnits="userSpaceOnUse"
       id="clipPath8586">
      <path
         d="m 376.612,193.18 h 17.074 v -17.075 h -17.074 z"
         id="path8584"
         inkscape:connector-curvature="0" />
    </clipPath>
    <clipPath
       clipPathUnits="userSpaceOnUse"
       id="clipPath8702">
      <path
         d="m 792.929,209.492 h 8.097 v -7.964 h -8.097 z"
         id="path8700"
         inkscape:connector-curvature="0" />
    </clipPath>
    <clipPath
       clipPathUnits="userSpaceOnUse"
       id="clipPath8686">
      <path
         d="m 742.939,202.176 h 8.097 v -7.964 h -8.097 z"
         id="path8684"
         inkscape:connector-curvature="0" />
    </clipPath>
    <clipPath
       clipPathUnits="userSpaceOnUse"
       id="clipPath8670">
      <path
         d="m 768.573,201.405 h 8.096 v -7.964 h -8.096 z"
         id="path8668"
         inkscape:connector-curvature="0" />
    </clipPath>
  </defs>
  <sodipodi:namedview
     id="base"
     pagecolor="#ffffff"
     bordercolor="#666666"
     borderopacity="1.0"
     inkscape:pageopacity="0.0"
     inkscape:pageshadow="2"
     inkscape:zoom="1.4"
     inkscape:cx="95.602941"
     inkscape:cy="204.71975"
     inkscape:document-units="mm"
     inkscape:current-layer="layer1"
     showgrid="false"
     units="px"
     inkscape:window-width="958"
     inkscape:window-height="974"
     inkscape:window-x="950"
     inkscape:window-y="0"
     inkscape:window-maximized="0" />
  <metadata
     id="metadata3503">
    <rdf:RDF>
      <cc:Work
         rdf:about="">
        <dc:format>image/svg+xml</dc:format>
        <dc:type
           rdf:resource="http://purl.org/dc/dcmitype/StillImage" />
        <dc:title></dc:title>
      </cc:Work>
    </rdf:RDF>
  </metadata>
  <g
     inkscape:label="Calque 1"
     inkscape:groupmode="layer"
     id="layer1"
     transform="translate(0,-244.08332)">
    <g
       transform="matrix(0.4750774,0,0,-0.4750774,-2.1287246,367.73771)"
       id="g553">
      <g
         id="g1381">
        <g
           transform="translate(64.8662,239.9016)"
           id="g7944">
          <path
             inkscape:connector-curvature="0"
             id="path7946"
             style="fill:#3a98ab;fill-opacity:1;fill-rule:evenodd;stroke:none"
             d="m 0,0 -1.669,-29.067 h 27.545 l -3.339,13.726 -12.52,11.304 z" />
        </g>
        <g
           transform="translate(89.2515,213.5656)"
           id="g7948"
           style="fill:#3a98ab;fill-opacity:1;stroke:#3a98ab;stroke-opacity:1">
          <path
             inkscape:connector-curvature="0"
             id="path7950"
             style="fill:#3a98ab;fill-opacity:1;fill-rule:nonzero;stroke:#3a98ab;stroke-opacity:1"
             d="m 0,0 c -0.575,4.848 -3.028,10.303 -6.375,14.175 -2.943,3.402 -7.578,6.452 -11.871,7.808 -2.076,0.657 -4.811,1.241 -5.804,1.241 -0.463,0 -0.487,-0.594 -0.487,-12.315 V -1.406 h 12.352 12.352 z m -27.842,-4.664 c -0.401,0.443 -0.443,1.919 -0.443,15.661 0,18.105 -0.392,16.42 3.757,16.134 C -9.841,26.119 2.027,14.897 3.812,0.334 4.238,-3.143 4.197,-3.995 3.573,-4.618 3.05,-5.142 2.681,-5.153 -12.181,-5.153 c -14.402,0 -15.241,0.025 -15.661,0.489" />
        </g>
        <g
           transform="translate(58.7271,177.3605)"
           id="g7952">
          <path
             inkscape:connector-curvature="0"
             id="path7954"
             style="fill:#b0b2b0;fill-opacity:1;fill-rule:nonzero;stroke:none"
             d="m 0,0 c 4.535,0.483 8.619,1.928 12.141,4.293 6.277,4.215 10.261,10.235 11.663,17.626 0.233,1.229 0.424,2.343 0.424,2.474 0,0.135 -5.865,0.238 -13.666,0.238 H -3.103 l -0.657,0.657 -0.657,0.656 V 39.61 c 0,7.801 -0.103,13.665 -0.239,13.665 -0.786,0 -4.788,-0.905 -6.35,-1.437 -4.184,-1.424 -7.382,-3.47 -10.575,-6.766 -7.791,-8.042 -9.777,-19.669 -5.074,-29.705 1.407,-3.002 2.979,-5.237 5.358,-7.616 4.318,-4.317 9.876,-7.028 15.824,-7.717 C -2.701,-0.287 -2.693,-0.287 0,0 m -6.961,-3.624 c -3.249,0.513 -5.352,1.157 -8.333,2.557 -3.445,1.616 -5.539,3.043 -8.196,5.58 -2.692,2.572 -4.419,4.869 -6.069,8.071 -7.806,15.145 -1.846,33.596 13.316,41.223 4.207,2.116 8.526,3.216 12.622,3.216 1.657,0 2.153,-0.096 2.506,-0.486 0.395,-0.436 0.448,-1.912 0.51,-14.256 l 0.069,-13.768 13.769,-0.07 c 12.344,-0.062 13.819,-0.115 14.256,-0.51 0.983,-0.89 0.454,-6.847 -0.983,-11.066 C 21.728,2.84 7.458,-5.896 -6.961,-3.624" />
        </g>
      </g>
    </g>
  </g>
</svg>
