<?xml version="1.0" encoding="UTF-8" standalone="no"?>
<!-- Created with Inkscape (http://www.inkscape.org/) -->

<svg
   xmlns:dc="http://purl.org/dc/elements/1.1/"
   xmlns:cc="http://creativecommons.org/ns#"
   xmlns:rdf="http://www.w3.org/1999/02/22-rdf-syntax-ns#"
   xmlns:svg="http://www.w3.org/2000/svg"
   xmlns="http://www.w3.org/2000/svg"
   xmlns:sodipodi="http://sodipodi.sourceforge.net/DTD/sodipodi-0.dtd"
   xmlns:inkscape="http://www.inkscape.org/namespaces/inkscape"
   width="200"
   height="200"
   viewBox="0 0 52.916666 52.916668"
   version="1.1"
   id="svg3506"
   inkscape:version="0.92.2 (5c3e80d, 2017-08-06)"
   sodipodi:docname="pie-chart-section.svg">
  <defs
     id="defs3500">
    <clipPath
       clipPathUnits="userSpaceOnUse"
       id="clipPath8806">
      <path
         d="m 217.174,529.313 h 7.516 v -7.393 h -7.516 z"
         id="path8804"
         inkscape:connector-curvature="0" />
    </clipPath>
    <clipPath
       clipPathUnits="userSpaceOnUse"
       id="clipPath8822">
      <path
         d="m 193.378,530.029 h 7.516 v -7.393 h -7.516 z"
         id="path8820"
         inkscape:connector-curvature="0" />
    </clipPath>
    <clipPath
       clipPathUnits="userSpaceOnUse"
       id="clipPath8838">
      <path
         d="m 239.785,536.821 h 7.516 v -7.393 h -7.516 z"
         id="path8836"
         inkscape:connector-curvature="0" />
    </clipPath>
    <clipPath
       clipPathUnits="userSpaceOnUse"
       id="clipPath8586">
      <path
         d="m 376.612,193.18 h 17.074 v -17.075 h -17.074 z"
         id="path8584"
         inkscape:connector-curvature="0" />
    </clipPath>
    <clipPath
       clipPathUnits="userSpaceOnUse"
       id="clipPath8702">
      <path
         d="m 792.929,209.492 h 8.097 v -7.964 h -8.097 z"
         id="path8700"
         inkscape:connector-curvature="0" />
    </clipPath>
    <clipPath
       clipPathUnits="userSpaceOnUse"
       id="clipPath8686">
      <path
         d="m 742.939,202.176 h 8.097 v -7.964 h -8.097 z"
         id="path8684"
         inkscape:connector-curvature="0" />
    </clipPath>
    <clipPath
       clipPathUnits="userSpaceOnUse"
       id="clipPath8670">
      <path
         d="m 768.573,201.405 h 8.096 v -7.964 h -8.096 z"
         id="path8668"
         inkscape:connector-curvature="0" />
    </clipPath>
  </defs>
  <sodipodi:namedview
     id="base"
     pagecolor="#ffffff"
     bordercolor="#666666"
     borderopacity="1.0"
     inkscape:pageopacity="0.0"
     inkscape:pageshadow="2"
     inkscape:zoom="1.4"
     inkscape:cx="95.602941"
     inkscape:cy="204.71975"
     inkscape:document-units="mm"
     inkscape:current-layer="layer1"
     showgrid="false"
     units="px"
     inkscape:window-width="958"
     inkscape:window-height="974"
     inkscape:window-x="950"
     inkscape:window-y="0"
     inkscape:window-maximized="0" />
  <metadata
     id="metadata3503">
    <rdf:RDF>
      <cc:Work
         rdf:about="">
        <dc:format>image/svg+xml</dc:format>
        <dc:type
           rdf:resource="http://purl.org/dc/dcmitype/StillImage" />
        <dc:title></dc:title>
      </cc:Work>
    </rdf:RDF>
  </metadata>
  <g
     inkscape:label="Calque 1"
     inkscape:groupmode="layer"
     id="layer1"
     transform="translate(0,-244.08332)">
    <g
       transform="matrix(0.49021402,0,0,-0.49021402,29.834997,253.28341)"
       id="g7956">
      <path
         inkscape:connector-curvature="0"
         id="path7958"
         style="fill:#3a98ab;fill-opacity:1;fill-rule:evenodd;stroke:none"
         d="M 0,0 -1.803,-31.391 H 27.943 L 24.337,-16.567 10.816,-4.359 Z" />
    </g>
    <g
       style="fill:#3a98ab;fill-opacity:1"
       transform="matrix(0.49021402,0,0,-0.49021402,42.743804,267.2253)"
       id="g7960">
      <path
         inkscape:connector-curvature="0"
         id="path7962"
         style="fill:#3a98ab;fill-opacity:1;fill-rule:nonzero;stroke:none"
         d="m 0,0 c -0.621,5.235 -3.27,11.126 -6.885,15.307 -3.177,3.674 -8.183,6.967 -12.818,8.432 -2.242,0.709 -5.196,1.34 -6.269,1.34 -0.5,0 -0.525,-0.641 -0.525,-13.299 V -1.518 H -13.159 0.18 Z m -30.066,-5.037 c -0.434,0.479 -0.478,2.073 -0.478,16.913 0,19.551 -0.424,17.731 4.057,17.423 C -10.628,28.206 2.189,16.087 4.116,0.361 4.576,-3.394 4.532,-4.313 3.858,-4.987 3.294,-5.552 2.895,-5.565 -13.154,-5.565 c -15.554,0 -16.459,0.028 -16.912,0.528" />
    </g>
    <g
       transform="matrix(0.49021402,0,0,-0.49021402,26.584683,286.39153)"
       id="g7964">
      <path
         inkscape:connector-curvature="0"
         id="path7966"
         style="fill:#b0b2b0;fill-opacity:1;fill-rule:nonzero;stroke:none"
         d="m 0,0 c 4.897,0.522 9.308,2.082 13.111,4.636 6.779,4.552 11.081,11.053 12.595,19.035 0.252,1.327 0.458,2.529 0.458,2.67 0,0.147 -6.334,0.258 -14.758,0.258 H -3.351 l -0.71,0.709 -0.709,0.71 v 14.756 c 0,8.424 -0.11,14.758 -0.257,14.758 -0.85,0 -5.172,-0.978 -6.858,-1.553 -4.518,-1.538 -7.972,-3.747 -11.42,-7.306 -8.413,-8.685 -10.558,-21.239 -5.479,-32.077 1.519,-3.242 3.217,-5.657 5.786,-8.225 C -18.335,3.708 -12.333,0.781 -5.91,0.036 -2.916,-0.311 -2.908,-0.311 0,0 m -7.517,-3.913 c -3.508,0.553 -5.779,1.25 -8.999,2.761 -3.72,1.745 -5.982,3.285 -8.85,6.026 -2.907,2.776 -4.772,5.257 -6.554,8.715 -8.43,16.355 -1.994,36.28 14.379,44.516 4.544,2.286 9.208,3.474 13.631,3.474 1.789,0 2.325,-0.103 2.706,-0.525 0.427,-0.472 0.484,-2.065 0.551,-15.395 L -0.578,30.79 14.291,30.716 c 13.33,-0.068 14.923,-0.125 15.394,-0.551 1.062,-0.961 0.491,-7.394 -1.061,-11.95 C 23.464,3.067 8.054,-6.368 -7.517,-3.913" />
    </g>
    <g
       transform="matrix(0.49021402,0,0,-0.49021402,20.586523,277.38385)"
       id="g7968">
      <path
         inkscape:connector-curvature="0"
         id="path7970"
         style="fill:#b0b2b0;fill-opacity:1;fill-rule:nonzero;stroke:none"
         d="m 0,0 h -0.008 l -1.361,-4.091 h 2.73 z M 4.418,-7.06 C 4.478,-7.237 4.515,-7.379 4.53,-7.483 4.545,-7.588 4.525,-7.667 4.471,-7.722 4.416,-7.771 4.319,-7.801 4.181,-7.811 4.042,-7.825 3.851,-7.833 3.607,-7.833 c -0.253,0 -0.451,0.005 -0.594,0.015 -0.139,0.005 -0.246,0.017 -0.32,0.037 -0.075,0.025 -0.127,0.057 -0.156,0.096 -0.03,0.04 -0.055,0.092 -0.075,0.157 L 1.815,-5.594 H -1.8 l -0.61,-1.882 c -0.02,-0.069 -0.048,-0.128 -0.082,-0.178 -0.03,-0.045 -0.082,-0.082 -0.156,-0.112 -0.07,-0.025 -0.171,-0.042 -0.306,-0.052 -0.129,-0.01 -0.299,-0.015 -0.513,-0.015 -0.228,0 -0.407,0.008 -0.535,0.022 -0.129,0.015 -0.219,0.05 -0.268,0.105 -0.05,0.06 -0.067,0.141 -0.052,0.245 0.015,0.105 0.052,0.243 0.112,0.417 l 2.967,8.539 c 0.03,0.085 0.065,0.151 0.105,0.201 0.039,0.055 0.101,0.094 0.186,0.119 0.089,0.03 0.21,0.047 0.364,0.052 0.154,0.01 0.357,0.015 0.61,0.015 0.293,0 0.526,-0.005 0.699,-0.015 C 0.895,1.862 1.029,1.845 1.123,1.815 1.222,1.79 1.292,1.751 1.332,1.696 1.376,1.642 1.413,1.567 1.443,1.473 Z" />
    </g>
    <g
       transform="matrix(0.49021402,0,0,-0.49021402,25.830197,279.81958)"
       id="g7972">
      <path
         inkscape:connector-curvature="0"
         id="path7974"
         style="fill:#b0b2b0;fill-opacity:1;fill-rule:nonzero;stroke:none"
         d="M 0,0 C 0,0.223 -0.037,0.421 -0.111,0.595 -0.186,0.773 -0.295,0.922 -0.439,1.041 -0.583,1.16 -0.766,1.252 -0.989,1.316 -1.212,1.381 -1.502,1.413 -1.86,1.413 h -1.16 v -2.737 h 1.413 c 0.273,0 0.501,0.027 0.685,0.082 0.188,0.059 0.349,0.143 0.483,0.253 0.139,0.113 0.246,0.253 0.32,0.416 C -0.04,-0.404 0,-0.214 0,0 m -0.499,4.121 c 0,0.193 -0.029,0.367 -0.088,0.521 -0.06,0.153 -0.149,0.28 -0.268,0.379 -0.12,0.104 -0.27,0.183 -0.454,0.238 -0.179,0.054 -0.419,0.082 -0.722,0.082 H -3.02 V 2.842 h 1.093 c 0.283,0 0.509,0.032 0.677,0.096 0.169,0.07 0.308,0.162 0.417,0.275 0.114,0.119 0.198,0.256 0.253,0.409 0.055,0.159 0.081,0.325 0.081,0.499 M 2.031,0.066 C 2.031,-0.275 1.984,-0.585 1.89,-0.863 1.795,-1.141 1.664,-1.387 1.495,-1.6 1.332,-1.812 1.133,-1.996 0.9,-2.15 0.672,-2.304 0.419,-2.431 0.142,-2.529 -0.136,-2.629 -0.434,-2.703 -0.751,-2.753 -1.063,-2.797 -1.413,-2.819 -1.8,-2.819 h -2.559 c -0.164,0 -0.303,0.047 -0.417,0.141 -0.109,0.099 -0.163,0.258 -0.163,0.476 v 8.39 c 0,0.219 0.054,0.375 0.163,0.469 0.114,0.1 0.253,0.15 0.417,0.15 h 2.418 c 0.59,0 1.088,-0.05 1.495,-0.15 C -0.035,6.559 0.31,6.407 0.588,6.204 0.871,6.006 1.086,5.753 1.235,5.445 1.384,5.138 1.458,4.775 1.458,4.359 1.458,4.126 1.428,3.905 1.369,3.697 1.309,3.493 1.223,3.308 1.108,3.139 0.995,2.971 0.853,2.821 0.685,2.692 0.521,2.563 0.333,2.46 0.119,2.38 0.392,2.331 0.642,2.244 0.871,2.12 1.104,1.996 1.304,1.835 1.473,1.637 1.646,1.443 1.783,1.215 1.882,0.952 1.981,0.689 2.031,0.395 2.031,0.066" />
    </g>
    <g
       transform="matrix(0.49021402,0,0,-0.49021402,30.858957,280.48691)"
       id="g7976">
      <path
         inkscape:connector-curvature="0"
         id="path7978"
         style="fill:#b0b2b0;fill-opacity:1;fill-rule:nonzero;stroke:none"
         d="M 0,0 C 0,-0.124 -0.005,-0.23 -0.015,-0.32 -0.02,-0.404 -0.03,-0.479 -0.045,-0.543 -0.06,-0.603 -0.08,-0.655 -0.104,-0.699 -0.129,-0.744 -0.168,-0.796 -0.223,-0.855 -0.278,-0.91 -0.384,-0.982 -0.543,-1.071 -0.697,-1.16 -0.888,-1.247 -1.116,-1.332 c -0.223,-0.079 -0.481,-0.146 -0.774,-0.2 -0.287,-0.055 -0.6,-0.082 -0.937,-0.082 -0.659,0 -1.255,0.101 -1.785,0.304 -0.531,0.204 -0.982,0.506 -1.354,0.908 -0.372,0.407 -0.657,0.913 -0.855,1.517 -0.199,0.606 -0.298,1.31 -0.298,2.114 0,0.818 0.109,1.544 0.327,2.179 0.218,0.635 0.523,1.168 0.915,1.599 0.392,0.431 0.861,0.759 1.406,0.982 0.551,0.223 1.156,0.335 1.815,0.335 0.268,0 0.526,-0.022 0.774,-0.067 0.248,-0.045 0.476,-0.105 0.684,-0.179 0.214,-0.069 0.405,-0.151 0.573,-0.245 0.168,-0.095 0.285,-0.176 0.35,-0.245 0.069,-0.066 0.116,-0.119 0.141,-0.164 0.025,-0.045 0.045,-0.102 0.059,-0.171 0.015,-0.069 0.025,-0.151 0.03,-0.246 0.01,-0.094 0.015,-0.21 0.015,-0.35 0,-0.148 -0.005,-0.274 -0.015,-0.379 C -0.055,6.174 -0.072,6.09 -0.097,6.025 -0.122,5.961 -0.151,5.914 -0.186,5.884 -0.221,5.854 -0.26,5.839 -0.305,5.839 c -0.074,0 -0.169,0.043 -0.283,0.127 -0.114,0.089 -0.263,0.185 -0.446,0.29 -0.178,0.109 -0.394,0.206 -0.647,0.29 C -1.929,6.635 -2.227,6.68 -2.574,6.68 -2.956,6.68 -3.298,6.601 -3.601,6.441 -3.898,6.288 -4.153,6.064 -4.367,5.772 -4.575,5.484 -4.734,5.135 -4.843,4.724 -4.952,4.312 -5.006,3.849 -5.006,3.332 c 0,-0.565 0.057,-1.056 0.171,-1.473 0.119,-0.411 0.285,-0.751 0.498,-1.018 0.218,-0.269 0.479,-0.469 0.781,-0.603 0.307,-0.129 0.652,-0.193 1.034,-0.193 0.347,0 0.647,0.039 0.9,0.118 0.253,0.085 0.469,0.177 0.647,0.275 0.184,0.1 0.333,0.189 0.447,0.268 0.119,0.08 0.211,0.119 0.275,0.119 0.049,0 0.089,-0.01 0.119,-0.029 0.03,-0.02 0.054,-0.06 0.074,-0.119 0.02,-0.06 0.035,-0.144 0.045,-0.253 C -0.005,0.319 0,0.179 0,0" />
    </g>
    <g
       transform="matrix(0.49021402,0,0,-0.49021402,35.46241,261.14786)"
       id="g7980">
      <path
         inkscape:connector-curvature="0"
         id="path7982"
         style="fill:#ffffff;fill-opacity:1;fill-rule:nonzero;stroke:none"
         d="m 0,0 h -0.007 l -1.362,-4.092 h 2.73 z M 4.419,-7.06 C 4.479,-7.238 4.516,-7.38 4.53,-7.483 4.545,-7.588 4.525,-7.667 4.471,-7.722 4.417,-7.771 4.32,-7.801 4.181,-7.811 4.042,-7.826 3.851,-7.833 3.608,-7.833 c -0.253,0 -0.451,0.005 -0.595,0.015 -0.139,0.005 -0.245,0.017 -0.32,0.037 -0.074,0.024 -0.127,0.056 -0.156,0.096 -0.03,0.04 -0.055,0.092 -0.075,0.157 L 1.815,-5.595 H -1.8 l -0.61,-1.882 c -0.02,-0.069 -0.047,-0.128 -0.082,-0.178 -0.029,-0.044 -0.082,-0.081 -0.156,-0.112 -0.069,-0.024 -0.171,-0.042 -0.305,-0.051 -0.129,-0.01 -0.3,-0.015 -0.513,-0.015 -0.228,0 -0.407,0.007 -0.536,0.022 -0.129,0.015 -0.218,0.049 -0.268,0.104 -0.049,0.06 -0.067,0.142 -0.052,0.246 0.015,0.104 0.052,0.242 0.112,0.416 l 2.968,8.54 c 0.03,0.084 0.064,0.151 0.104,0.201 0.04,0.054 0.102,0.094 0.186,0.118 0.089,0.031 0.211,0.048 0.365,0.053 0.153,0.01 0.357,0.015 0.609,0.015 0.293,0 0.526,-0.005 0.7,-0.015 C 0.896,1.862 1.029,1.845 1.124,1.814 1.223,1.79 1.292,1.75 1.332,1.696 1.376,1.642 1.414,1.566 1.443,1.473 Z" />
    </g>
  </g>
</svg>
