<?xml version="1.0" encoding="UTF-8" standalone="no"?>
<!-- Created with Inkscape (http://www.inkscape.org/) -->

<svg
   xmlns:dc="http://purl.org/dc/elements/1.1/"
   xmlns:cc="http://creativecommons.org/ns#"
   xmlns:rdf="http://www.w3.org/1999/02/22-rdf-syntax-ns#"
   xmlns:svg="http://www.w3.org/2000/svg"
   xmlns="http://www.w3.org/2000/svg"
   xmlns:sodipodi="http://sodipodi.sourceforge.net/DTD/sodipodi-0.dtd"
   xmlns:inkscape="http://www.inkscape.org/namespaces/inkscape"
   width="200"
   height="200"
   viewBox="0 0 52.916666 52.916668"
   version="1.1"
   id="svg3506"
   inkscape:version="0.92.2 (5c3e80d, 2017-08-06)"
   sodipodi:docname="revenu.svg">
  <defs
     id="defs3500">
    <clipPath
       clipPathUnits="userSpaceOnUse"
       id="clipPath8806">
      <path
         d="m 217.174,529.313 h 7.516 v -7.393 h -7.516 z"
         id="path8804"
         inkscape:connector-curvature="0" />
    </clipPath>
    <clipPath
       clipPathUnits="userSpaceOnUse"
       id="clipPath8822">
      <path
         d="m 193.378,530.029 h 7.516 v -7.393 h -7.516 z"
         id="path8820"
         inkscape:connector-curvature="0" />
    </clipPath>
    <clipPath
       clipPathUnits="userSpaceOnUse"
       id="clipPath8838">
      <path
         d="m 239.785,536.821 h 7.516 v -7.393 h -7.516 z"
         id="path8836"
         inkscape:connector-curvature="0" />
    </clipPath>
    <clipPath
       clipPathUnits="userSpaceOnUse"
       id="clipPath8586">
      <path
         d="m 376.612,193.18 h 17.074 v -17.075 h -17.074 z"
         id="path8584"
         inkscape:connector-curvature="0" />
    </clipPath>
    <clipPath
       clipPathUnits="userSpaceOnUse"
       id="clipPath8702">
      <path
         d="m 792.929,209.492 h 8.097 v -7.964 h -8.097 z"
         id="path8700"
         inkscape:connector-curvature="0" />
    </clipPath>
    <clipPath
       clipPathUnits="userSpaceOnUse"
       id="clipPath8686">
      <path
         d="m 742.939,202.176 h 8.097 v -7.964 h -8.097 z"
         id="path8684"
         inkscape:connector-curvature="0" />
    </clipPath>
    <clipPath
       clipPathUnits="userSpaceOnUse"
       id="clipPath8670">
      <path
         d="m 768.573,201.405 h 8.096 v -7.964 h -8.096 z"
         id="path8668"
         inkscape:connector-curvature="0" />
    </clipPath>
  </defs>
  <sodipodi:namedview
     id="base"
     pagecolor="#ffffff"
     bordercolor="#666666"
     borderopacity="1.0"
     inkscape:pageopacity="0.0"
     inkscape:pageshadow="2"
     inkscape:zoom="1.4"
     inkscape:cx="95.602941"
     inkscape:cy="204.71975"
     inkscape:document-units="mm"
     inkscape:current-layer="layer1"
     showgrid="false"
     units="px"
     inkscape:window-width="958"
     inkscape:window-height="974"
     inkscape:window-x="950"
     inkscape:window-y="0"
     inkscape:window-maximized="0" />
  <metadata
     id="metadata3503">
    <rdf:RDF>
      <cc:Work
         rdf:about="">
        <dc:format>image/svg+xml</dc:format>
        <dc:type
           rdf:resource="http://purl.org/dc/dcmitype/StillImage" />
        <dc:title></dc:title>
      </cc:Work>
    </rdf:RDF>
  </metadata>
  <g
     inkscape:label="Calque 1"
     inkscape:groupmode="layer"
     id="layer1"
     transform="translate(0,-244.08332)">
    <g
       transform="matrix(0.58852413,0,0,-0.58852413,-125.67156,389.90406)"
       id="g1399">
      <g
         id="g8012"
         transform="translate(242.0605,175.2346)">
        <path
           d="m 0,0 c -0.948,0.646 -1.292,1.378 -1.292,2.628 -0.043,1.379 -0.69,3.792 -1.422,4.998 -0.345,0.561 -1.078,1.595 -1.724,2.283 -2.241,2.586 -4.352,6.291 -5.429,9.653 -0.69,2.111 -1.034,4.782 -0.862,7.324 0.129,2.543 0.474,3.318 1.465,3.318 1.25,0 1.293,-0.13 1.293,-3.749 0.043,-3.878 0.43,-5.687 1.852,-8.747 1.164,-2.412 2.112,-3.921 4.008,-6.118 2.24,-2.628 3.49,-5.645 3.49,-8.273 V 2.412 h 4.308 4.31 v 1.25 c 0,2.025 0.043,2.068 4.825,2.025 C 17.537,5.644 18.959,5.515 19.174,5.343 19.39,5.17 19.476,4.61 19.476,3.748 V 2.412 h 4.309 4.266 v 1.121 c 0,3.275 0.948,5.213 4.093,8.488 3.146,3.275 4.007,4.567 5.602,8.532 0.301,0.775 1.077,1.077 2.542,1.077 1.68,0 1.809,0.301 1.809,4.308 0,4.136 -0.086,4.266 -2.111,4.266 -0.776,0 -1.594,0.129 -1.81,0.302 -0.215,0.172 -0.689,1.033 -1.077,1.981 -1.034,2.413 -2.499,4.568 -4.653,6.722 -1.638,1.638 -1.896,1.982 -2.026,2.887 -0.258,1.896 0,4.008 0.776,5.515 l 0.689,1.379 h -0.646 c -0.819,0 -2.93,-0.732 -3.964,-1.422 -0.517,-0.301 -1.379,-1.077 -1.982,-1.723 -1.121,-1.207 -1.724,-1.422 -2.973,-0.949 -0.345,0.13 -1.508,0.388 -2.586,0.604 -2.111,0.345 -2.499,0.646 -2.499,1.724 0,0.43 0.173,0.732 0.56,0.991 0.56,0.344 0.733,0.344 2.888,-0.044 l 2.283,-0.474 1.25,1.12 c 1.939,1.681 5.343,3.103 7.583,3.103 1.422,0 2.844,-1.422 2.844,-2.887 0,-0.387 -0.345,-1.379 -0.732,-2.241 -0.474,-0.947 -0.776,-1.981 -0.819,-2.8 l -0.086,-1.293 1.896,-2.025 c 2.068,-2.154 3.145,-3.662 4.265,-5.989 l 0.733,-1.508 1.163,-0.129 c 1.508,-0.216 2.672,-0.991 3.275,-2.198 0.431,-0.905 0.474,-1.378 0.474,-4.869 0,-4.05 -0.172,-4.998 -1.077,-6.032 -0.56,-0.603 -2.068,-1.25 -2.93,-1.25 -0.69,0 -0.776,-0.129 -1.509,-1.68 -1.12,-2.413 -2.455,-4.266 -4.911,-6.808 C 31.541,7.281 31.196,6.592 30.98,3.662 30.851,1.12 30.636,0.56 29.602,-0.087 c -0.689,-0.388 -1.206,-0.431 -5.731,-0.431 -4.524,0 -4.998,0.043 -5.688,0.431 -0.818,0.518 -1.422,1.508 -1.422,2.37 V 2.887 L 14.779,2.843 12.84,2.757 12.668,1.981 C 12.323,-0.302 11.72,-0.518 5.645,-0.518 0.948,-0.518 0.775,-0.518 0,0"
           style="fill:#b0b2b0;fill-opacity:1;fill-rule:nonzero;stroke:none"
           id="path8014"
           inkscape:connector-curvature="0" />
      </g>
      <g
         id="g8016"
         transform="translate(242.0605,175.2346)">
        <path
           d="m 0,0 c -0.948,0.646 -1.292,1.378 -1.292,2.628 -0.043,1.379 -0.69,3.792 -1.422,4.998 -0.345,0.561 -1.078,1.595 -1.724,2.283 -2.241,2.586 -4.352,6.291 -5.429,9.653 -0.69,2.111 -1.034,4.782 -0.862,7.324 0.129,2.543 0.474,3.318 1.465,3.318 1.25,0 1.293,-0.13 1.293,-3.749 0.043,-3.878 0.43,-5.687 1.852,-8.747 1.164,-2.412 2.112,-3.921 4.008,-6.118 2.24,-2.628 3.49,-5.645 3.49,-8.273 V 2.412 h 4.308 4.31 v 1.25 c 0,2.025 0.043,2.068 4.825,2.025 C 17.537,5.644 18.959,5.515 19.174,5.343 19.39,5.17 19.476,4.61 19.476,3.748 V 2.412 h 4.309 4.266 v 1.121 c 0,3.275 0.948,5.213 4.093,8.488 3.146,3.275 4.007,4.567 5.602,8.532 0.301,0.775 1.077,1.077 2.542,1.077 1.68,0 1.809,0.301 1.809,4.308 0,4.136 -0.086,4.266 -2.111,4.266 -0.776,0 -1.594,0.129 -1.81,0.302 -0.215,0.172 -0.689,1.033 -1.077,1.981 -1.034,2.413 -2.499,4.568 -4.653,6.722 -1.638,1.638 -1.896,1.982 -2.026,2.887 -0.258,1.896 0,4.008 0.776,5.515 l 0.689,1.379 h -0.646 c -0.819,0 -2.93,-0.732 -3.964,-1.422 -0.517,-0.301 -1.379,-1.077 -1.982,-1.723 -1.121,-1.207 -1.724,-1.422 -2.973,-0.949 -0.345,0.13 -1.508,0.388 -2.586,0.604 -2.111,0.345 -2.499,0.646 -2.499,1.724 0,0.43 0.173,0.732 0.56,0.991 0.56,0.344 0.733,0.344 2.888,-0.044 l 2.283,-0.474 1.25,1.12 c 1.939,1.681 5.343,3.103 7.583,3.103 1.422,0 2.844,-1.422 2.844,-2.887 0,-0.387 -0.345,-1.379 -0.732,-2.241 -0.474,-0.947 -0.776,-1.981 -0.819,-2.8 l -0.086,-1.293 1.896,-2.025 c 2.068,-2.154 3.145,-3.662 4.265,-5.989 l 0.733,-1.508 1.163,-0.129 c 1.508,-0.216 2.672,-0.991 3.275,-2.198 0.431,-0.905 0.474,-1.378 0.474,-4.869 0,-4.05 -0.172,-4.998 -1.077,-6.032 -0.56,-0.603 -2.068,-1.25 -2.93,-1.25 -0.69,0 -0.776,-0.129 -1.509,-1.68 -1.12,-2.413 -2.455,-4.266 -4.911,-6.808 C 31.541,7.281 31.196,6.592 30.98,3.662 30.851,1.12 30.636,0.56 29.602,-0.087 c -0.689,-0.388 -1.206,-0.431 -5.731,-0.431 -4.524,0 -4.998,0.043 -5.688,0.431 -0.818,0.518 -1.422,1.508 -1.422,2.37 V 2.887 L 14.779,2.843 12.84,2.757 12.668,1.981 C 12.323,-0.302 11.72,-0.518 5.645,-0.518 0.948,-0.518 0.775,-0.518 0,0 Z"
           style="fill:none;stroke:#b0b1af;stroke-width:2;stroke-linecap:butt;stroke-linejoin:miter;stroke-miterlimit:10;stroke-dasharray:none;stroke-opacity:1"
           id="path8018"
           inkscape:connector-curvature="0" />
      </g>
      <g
         id="g8020"
         transform="translate(246.0039,207.7893)">
        <path
           d="M 0,0 C 2.025,0.517 3.533,1.379 5.042,2.887 9.35,7.195 9.437,13.788 5.214,18.226 1.465,22.104 -4.223,22.75 -8.79,19.777 -14.176,16.33 -15.339,8.617 -11.246,3.705 -10.255,2.542 -8.402,1.077 -7.282,0.604 -4.998,-0.388 -2.241,-0.604 0,0 m -4.653,-3.06 c -3.016,0.431 -5.99,1.983 -8.187,4.352 -5.041,5.43 -4.869,13.788 0.387,19.131 6.55,6.55 17.667,4.869 21.975,-3.318 1.121,-2.154 1.509,-3.834 1.552,-6.376 0,-2.671 -0.302,-3.878 -1.465,-6.334 C 7.066,-0.819 1.293,-3.835 -4.653,-3.06"
           style="fill:#3a98ab;fill-opacity:1;fill-rule:nonzero;stroke:none"
           id="path8022"
           inkscape:connector-curvature="0" />
      </g>
      <g
         id="g8024"
         transform="translate(245.918,214.9416)">
        <path
           d="m 0,0 c -0.517,-0.259 -1.077,-0.431 -1.638,-0.431 -0.947,0 -1.852,0.388 -2.499,1.077 -0.172,0.172 -0.301,0.388 -0.474,0.56 h 2.887 v 1.336 h -3.447 c -0.043,0.259 -0.086,0.561 -0.086,0.818 0,0.13 0,0.259 0.043,0.389 h 3.49 v 1.378 h -3.102 c 0.172,0.345 0.388,0.646 0.689,0.948 0.647,0.69 1.552,1.077 2.499,1.077 0.517,0 1.034,-0.129 1.509,-0.344 L 1.379,8.704 C 0.474,9.221 -0.56,9.522 -1.638,9.522 -4.352,9.522 -6.636,7.67 -7.368,5.127 H -8.489 V 3.749 h 0.906 L -7.627,3.36 c 0,-0.257 0.044,-0.559 0.044,-0.818 H -8.489 V 1.206 h 1.25 c 0.862,-2.369 3.059,-4.007 5.601,-4.007 1.164,0 2.241,0.345 3.146,0.905 z"
           style="fill:#3a98ab;fill-opacity:1;fill-rule:nonzero;stroke:none"
           id="path8026"
           inkscape:connector-curvature="0" />
      </g>
    </g>
  </g>
</svg>
