<?xml version="1.0" encoding="UTF-8" standalone="no"?>
<!-- Created with Inkscape (http://www.inkscape.org/) -->

<svg
   xmlns:dc="http://purl.org/dc/elements/1.1/"
   xmlns:cc="http://creativecommons.org/ns#"
   xmlns:rdf="http://www.w3.org/1999/02/22-rdf-syntax-ns#"
   xmlns:svg="http://www.w3.org/2000/svg"
   xmlns="http://www.w3.org/2000/svg"
   xmlns:sodipodi="http://sodipodi.sourceforge.net/DTD/sodipodi-0.dtd"
   xmlns:inkscape="http://www.inkscape.org/namespaces/inkscape"
   width="200"
   height="200"
   viewBox="0 0 52.916666 52.916668"
   version="1.1"
   id="svg3506"
   inkscape:version="0.92.2 (5c3e80d, 2017-08-06)"
   sodipodi:docname="worker-evolution.svg">
  <defs
     id="defs3500">
    <clipPath
       clipPathUnits="userSpaceOnUse"
       id="clipPath8806">
      <path
         d="m 217.174,529.313 h 7.516 v -7.393 h -7.516 z"
         id="path8804"
         inkscape:connector-curvature="0" />
    </clipPath>
    <clipPath
       clipPathUnits="userSpaceOnUse"
       id="clipPath8822">
      <path
         d="m 193.378,530.029 h 7.516 v -7.393 h -7.516 z"
         id="path8820"
         inkscape:connector-curvature="0" />
    </clipPath>
    <clipPath
       clipPathUnits="userSpaceOnUse"
       id="clipPath8838">
      <path
         d="m 239.785,536.821 h 7.516 v -7.393 h -7.516 z"
         id="path8836"
         inkscape:connector-curvature="0" />
    </clipPath>
    <clipPath
       clipPathUnits="userSpaceOnUse"
       id="clipPath8586">
      <path
         d="m 376.612,193.18 h 17.074 v -17.075 h -17.074 z"
         id="path8584"
         inkscape:connector-curvature="0" />
    </clipPath>
    <clipPath
       clipPathUnits="userSpaceOnUse"
       id="clipPath8702">
      <path
         d="m 792.929,209.492 h 8.097 v -7.964 h -8.097 z"
         id="path8700"
         inkscape:connector-curvature="0" />
    </clipPath>
    <clipPath
       clipPathUnits="userSpaceOnUse"
       id="clipPath8686">
      <path
         d="m 742.939,202.176 h 8.097 v -7.964 h -8.097 z"
         id="path8684"
         inkscape:connector-curvature="0" />
    </clipPath>
    <clipPath
       clipPathUnits="userSpaceOnUse"
       id="clipPath8670">
      <path
         d="m 768.573,201.405 h 8.096 v -7.964 h -8.096 z"
         id="path8668"
         inkscape:connector-curvature="0" />
    </clipPath>
  </defs>
  <sodipodi:namedview
     id="base"
     pagecolor="#ffffff"
     bordercolor="#666666"
     borderopacity="1.0"
     inkscape:pageopacity="0.0"
     inkscape:pageshadow="2"
     inkscape:zoom="1.4"
     inkscape:cx="76.67437"
     inkscape:cy="134.71975"
     inkscape:document-units="mm"
     inkscape:current-layer="layer1"
     showgrid="false"
     units="px"
     inkscape:window-width="958"
     inkscape:window-height="974"
     inkscape:window-x="950"
     inkscape:window-y="0"
     inkscape:window-maximized="0" />
  <metadata
     id="metadata3503">
    <rdf:RDF>
      <cc:Work
         rdf:about="">
        <dc:format>image/svg+xml</dc:format>
        <dc:type
           rdf:resource="http://purl.org/dc/dcmitype/StillImage" />
        <dc:title />
      </cc:Work>
    </rdf:RDF>
  </metadata>
  <g
     inkscape:label="Calque 1"
     inkscape:groupmode="layer"
     id="layer1"
     transform="translate(0,-244.08332)">
    <g
       transform="matrix(0.43631774,0,0,-0.43631774,25.206021,257.33991)"
       id="g8656">
      <path
         inkscape:connector-curvature="0"
         id="path8658"
         style="fill:#b0b2b0;fill-opacity:1;fill-rule:nonzero;stroke:none"
         d="M 0,0 C 1.663,0.951 2.531,2.854 2.357,5.169 2.116,8.384 -0.277,10.316 -3.619,9.995 -5.215,9.842 -5.69,9.596 -6.903,8.295 -8.281,6.818 -8.52,6.058 -8.323,3.772 -7.995,-0.05 -3.583,-2.05 0,0 m -6.557,-5.361 c -5.901,2.106 -8.648,8.999 -5.832,14.634 2.006,4.014 4.91,5.798 9.457,5.811 2.598,0.008 3.224,-0.129 4.953,-1.079 C 4.027,12.902 5.508,11.334 6.77,8.977 7.284,8.015 7.465,6.9 7.464,4.702 7.462,2.197 7.304,1.427 6.462,-0.182 4.032,-4.82 -1.69,-7.098 -6.557,-5.361 m -19.151,-42.326 c -0.567,0.398 -0.826,0.96 -0.826,1.795 0,1.347 8.385,22.369 10.615,26.613 1.848,3.516 4.269,6.032 7.04,7.317 2.065,0.957 2.646,1.044 7.806,1.173 9.125,0.227 11.697,-0.586 16.169,-5.112 2.793,-2.828 3.522,-3.952 11.96,-18.425 l 2.383,-4.089 2.131,-0.231 c 2.545,-0.275 3.597,-1.078 3.597,-2.743 0,-1.744 -0.96,-2.416 -3.453,-2.416 -2.254,0 -5.55,-1.046 -7.075,-2.245 -1.85,-1.455 -4.339,-0.552 -4.339,1.574 0,1.214 1.069,2.56 2.754,3.467 0.734,0.396 1.334,0.815 1.334,0.931 0,0.319 -8.292,14.53 -9.913,16.988 -1.908,2.893 -4.618,5.56 -6.536,6.43 -1.342,0.609 -2.457,0.718 -7.469,0.724 -6.801,0.01 -7.572,-0.214 -9.929,-2.893 -1.906,-2.165 -2.693,-3.845 -8.138,-17.359 -2.47,-6.131 -4.77,-11.357 -5.112,-11.612 -0.842,-0.629 -2.002,-0.585 -2.999,0.114 z m 63.17,-7.404 c 2.52,1.97 4.624,3.615 4.677,3.657 0.051,0.041 -0.082,0.58 -0.297,1.198 l -0.392,1.123 -10.297,-3.336 c -5.663,-1.835 -10.355,-3.39 -10.427,-3.455 -0.073,-0.066 0.024,-0.59 0.215,-1.165 l 0.348,-1.045 4.802,-0.203 c 2.64,-0.112 5.249,-0.238 5.796,-0.28 0.753,-0.056 2.104,0.793 5.575,3.506 m 7.994,-7.878 c 0.312,0.117 0.154,1.03 -0.544,3.16 -0.54,1.648 -1.072,2.995 -1.182,2.994 -0.11,0 -2.124,-1.512 -4.474,-3.359 l -4.275,-3.357 -5.854,0.106 c -3.714,0.068 -5.855,-0.029 -5.855,-0.263 0,-0.205 0.427,-1.653 0.95,-3.218 l 0.947,-2.848 9.925,3.311 c 5.458,1.82 10.121,3.383 10.362,3.474 M 21.838,-74.707 c -0.384,0.384 -2.127,5.103 -3.917,10.605 -2.925,8.987 -3.182,10.005 -2.747,10.896 0.43,0.883 1.819,1.43 13.671,5.378 7.255,2.418 13.621,4.395 14.146,4.395 0.525,0 1.238,-0.209 1.583,-0.464 0.739,-0.545 6.947,-18.867 6.947,-20.499 0,-0.602 -0.275,-1.399 -0.612,-1.771 -0.633,-0.699 -26.141,-9.231 -27.597,-9.231 -0.43,0 -1.093,0.311 -1.474,0.691 M 3.742,-78.946 c -0.502,0.502 -0.912,1.261 -0.912,1.689 0,0.428 0.41,1.188 0.912,1.69 0.748,0.748 1.281,0.912 2.962,0.912 h 2.05 l -4.169,12.272 c -4,11.778 -4.146,12.314 -3.601,13.288 0.651,1.163 2.702,1.572 3.783,0.754 0.733,-0.555 9.957,-27.427 9.957,-29.009 0,-0.562 -0.334,-1.357 -0.744,-1.765 -0.657,-0.658 -1.238,-0.743 -5.034,-0.743 -4.061,0 -4.341,0.048 -5.204,0.912 m -21.005,-0.227 c -0.572,0.463 -0.846,1.083 -0.846,1.916 0,1.942 1.127,2.602 4.439,2.602 1.511,0 2.747,0.126 2.748,0.279 0.003,0.668 5.953,47.195 6.131,47.943 0.479,2.008 3.31,2.465 4.453,0.72 0.51,-0.777 0.264,-3.172 -2.749,-26.837 -3.088,-24.254 -3.363,-26.028 -4.127,-26.646 -1.223,-0.991 -8.818,-0.974 -10.049,0.023" />
    </g>
    <g
       transform="matrix(0.43631774,0,0,-0.43631774,41.539403,281.33865)"
       id="g8660">
      <path
         inkscape:connector-curvature="0"
         id="path8662"
         style="fill:#3a98ab;fill-opacity:1;fill-rule:nonzero;stroke:none"
         d="M 0,0 C 2.52,1.97 4.624,3.615 4.676,3.657 4.729,3.698 4.595,4.237 4.379,4.855 L 3.988,5.979 -6.309,2.642 c -5.663,-1.835 -10.355,-3.39 -10.427,-3.455 -0.074,-0.066 0.024,-0.59 0.215,-1.166 l 0.347,-1.044 4.803,-0.204 C -8.73,-3.338 -6.122,-3.464 -5.575,-3.505 -4.822,-3.563 -3.471,-2.713 0,0 M 7.993,-7.878 C 8.306,-7.761 8.148,-6.849 7.45,-4.718 6.91,-3.07 6.378,-1.724 6.269,-1.724 6.158,-1.725 4.145,-3.236 1.794,-5.083 L -2.48,-8.44 -8.335,-8.334 c -3.714,0.067 -5.854,-0.029 -5.854,-0.264 0,-0.204 0.426,-1.652 0.948,-3.217 l 0.948,-2.848 9.924,3.31 c 5.459,1.821 10.122,3.384 10.362,3.475 m -23.617,-11.738 c -0.384,0.384 -2.127,5.102 -3.917,10.605 -2.925,8.987 -3.182,10.005 -2.747,10.896 0.431,0.883 1.819,1.429 13.671,5.378 7.255,2.418 13.621,4.395 14.145,4.395 0.526,0 1.239,-0.209 1.584,-0.465 0.739,-0.545 6.948,-18.866 6.948,-20.498 0,-0.601 -0.276,-1.399 -0.614,-1.771 -0.632,-0.699 -26.14,-9.232 -27.596,-9.232 -0.43,0 -1.093,0.312 -1.474,0.692" />
    </g>
    <g
       transform="matrix(0.43631774,0,0,-0.43631774,-307.87016,359.44366)"
       id="g8664">
      <g
         id="g8666" />
      <g
         id="g8678">
        <g
           style="opacity:0.97508198"
           id="g8676"
           clip-path="url(#clipPath8670)">
          <g
             id="g8674"
             transform="translate(772.6211,201.4045)">
            <path
               inkscape:connector-curvature="0"
               id="path8672"
               style="fill:#ffffff;fill-opacity:1;fill-rule:nonzero;stroke:none"
               d="m 0,0 c 2.235,0 4.048,-1.782 4.048,-3.981 0,-2.2 -1.813,-3.983 -4.048,-3.983 -2.236,0 -4.048,1.783 -4.048,3.983 C -4.048,-1.782 -2.236,0 0,0" />
          </g>
        </g>
      </g>
    </g>
    <g
       transform="matrix(0.43631774,0,0,-0.43631774,-307.87016,359.44366)"
       id="g8680">
      <g
         id="g8682" />
      <g
         id="g8694">
        <g
           style="opacity:0.97508198"
           id="g8692"
           clip-path="url(#clipPath8686)">
          <g
             id="g8690"
             transform="translate(746.9873,202.176)">
            <path
               inkscape:connector-curvature="0"
               id="path8688"
               style="fill:#ffffff;fill-opacity:1;fill-rule:nonzero;stroke:none"
               d="m 0,0 c 2.236,0 4.049,-1.782 4.049,-3.981 0,-2.2 -1.813,-3.983 -4.049,-3.983 -2.235,0 -4.048,1.783 -4.048,3.983 C -4.048,-1.782 -2.235,0 0,0" />
          </g>
        </g>
      </g>
    </g>
    <g
       transform="matrix(0.43631774,0,0,-0.43631774,-307.87016,359.44366)"
       id="g8696">
      <g
         id="g8698" />
      <g
         id="g8710">
        <g
           style="opacity:0.97508198"
           id="g8708"
           clip-path="url(#clipPath8702)">
          <g
             id="g8706"
             transform="translate(796.9775,209.4924)">
            <path
               inkscape:connector-curvature="0"
               id="path8704"
               style="fill:#ffffff;fill-opacity:1;fill-rule:nonzero;stroke:none"
               d="m 0,0 c 2.235,0 4.048,-1.783 4.048,-3.982 0,-2.2 -1.813,-3.982 -4.048,-3.982 -2.235,0 -4.048,1.782 -4.048,3.982 C -4.048,-1.783 -2.235,0 0,0" />
          </g>
        </g>
      </g>
    </g>
    <g
       transform="matrix(0.43631774,0,0,-0.43631774,40.028053,270.5813)"
       id="g8712">
      <path
         inkscape:connector-curvature="0"
         id="path8714"
         style="fill:#3a98ab;fill-opacity:1;fill-rule:nonzero;stroke:none"
         d="M 0,0 C 1.833,0.635 1.982,3.158 0.236,3.98 -0.251,4.21 -0.871,4.229 -1.443,4.03 -2.015,3.832 -2.486,3.436 -2.72,2.957 -2.952,2.479 -2.972,1.868 -2.77,1.306 -2.568,0.743 -2.165,0.279 -1.679,0.05 -1.192,-0.18 -0.571,-0.198 0,0 m -23.643,-8.191 c 1.832,0.634 1.982,3.157 0.236,3.98 -0.487,0.23 -1.108,0.248 -1.679,0.05 -0.571,-0.198 -1.044,-0.595 -1.276,-1.074 -0.234,-0.479 -0.252,-1.089 -0.051,-1.652 0.201,-0.561 0.604,-1.026 1.092,-1.255 0.486,-0.229 1.106,-0.248 1.678,-0.049 m -26.766,0.529 c 0.571,0.198 1.044,0.595 1.276,1.073 0.234,0.479 0.252,1.09 0.051,1.652 -0.201,0.562 -0.605,1.026 -1.091,1.255 -0.487,0.23 -1.107,0.248 -1.68,0.05 -0.571,-0.198 -1.043,-0.595 -1.276,-1.073 -0.233,-0.48 -0.252,-1.09 -0.051,-1.651 0.202,-0.563 0.606,-1.027 1.092,-1.256 0.486,-0.23 1.108,-0.248 1.679,-0.05 m -23.374,-10.735 c -0.184,0.511 -0.18,1.177 0.007,1.563 0.222,0.457 2.815,2.146 8.13,5.297 4.688,2.779 7.827,4.804 7.865,5.073 0.034,0.246 0.118,1.033 0.185,1.749 0.217,2.285 2.092,4.486 4.434,5.201 1.8,0.55 3.081,0.451 4.835,-0.376 1.745,-0.822 2.641,-1.753 3.307,-3.429 l 0.374,-0.942 4.875,0.366 c 9.759,0.735 9.251,0.655 10.113,1.604 1.596,1.759 3.177,2.522 5.381,2.599 1.424,0.049 4.113,-1.187 4.909,-2.257 l 0.568,-0.766 5.622,2.759 5.623,2.758 0.625,1.498 c 1.431,3.424 5.103,4.974 8.742,3.692 l 1.447,-0.509 6.592,3.905 c 3.625,2.146 6.812,3.886 7.083,3.865 1.545,-0.123 2.639,-1.832 2.006,-3.132 -0.198,-0.407 -2.615,-1.984 -6.766,-4.415 L 5.717,3.925 5.821,2.386 C 5.905,1.132 5.779,0.553 5.139,-0.746 3.961,-3.131 1.978,-4.373 -0.809,-4.469 c -1.424,-0.05 -4.113,1.187 -4.908,2.257 l -0.569,0.766 -5.615,-2.749 -5.616,-2.75 -0.885,-1.793 c -0.955,-1.934 -1.83,-2.769 -3.637,-3.471 -1.71,-0.664 -3.315,-0.578 -5.128,0.275 -1.746,0.822 -2.643,1.751 -3.309,3.43 l -0.373,0.942 -4.874,-0.368 c -9.76,-0.734 -9.253,-0.653 -10.114,-1.603 -2.384,-2.627 -5.134,-3.26 -8.127,-1.867 l -1.653,0.768 -7.326,-4.389 c -4.03,-2.415 -7.72,-4.516 -8.2,-4.67 -1.154,-0.372 -2.233,0.157 -2.64,1.294" />
    </g>
    <g
       transform="matrix(0.43631774,0,0,-0.43631774,45.602198,262.33176)"
       id="g8716">
      <path
         inkscape:connector-curvature="0"
         id="path8718"
         style="fill:#3a98ab;fill-opacity:1;fill-rule:evenodd;stroke:none"
         d="m 0,0 c -1.558,0.053 -2.862,-1.168 -2.914,-2.726 -0.039,-1.163 0.641,-2.23 1.71,-2.688 l 4.242,-1.885 0.112,-3.472 c 0.003,-1.559 1.269,-2.82 2.828,-2.817 1.557,0.003 2.819,1.269 2.816,2.826 0,0.059 -0.002,0.116 -0.006,0.174 l -0.17,5.239 C 8.584,-4.268 7.934,-3.302 6.945,-2.862 L 1.091,-0.257 C 0.748,-0.099 0.377,-0.012 0,0" />
    </g>
    <g
       transform="matrix(0.43631774,0,0,-0.43631774,7.1312222,275.58578)"
       id="g8720">
      <path
         inkscape:connector-curvature="0"
         id="path8722"
         style="fill:#3a98ab;fill-opacity:1;fill-rule:evenodd;stroke:none"
         d="m 0,0 c -1.447,-0.062 -2.612,-1.21 -2.696,-2.656 l -0.376,-5.231 c -0.078,-1.081 0.47,-2.11 1.41,-2.65 l 5.553,-3.182 c 1.351,-0.775 3.076,-0.308 3.852,1.043 0.776,1.353 0.309,3.077 -1.044,3.853 -10e-4,0.001 -0.002,0.001 -0.003,0.002 l -4.011,2.3 0.248,3.458 C 3.067,-1.511 1.919,-0.143 0.366,-0.008 0.244,0.003 0.122,0.006 0,0" />
    </g>
  </g>
</svg>
