<?xml version="1.0" encoding="UTF-8" standalone="no"?>
<!-- Created with Inkscape (http://www.inkscape.org/) -->

<svg
   xmlns:dc="http://purl.org/dc/elements/1.1/"
   xmlns:cc="http://creativecommons.org/ns#"
   xmlns:rdf="http://www.w3.org/1999/02/22-rdf-syntax-ns#"
   xmlns:svg="http://www.w3.org/2000/svg"
   xmlns="http://www.w3.org/2000/svg"
   xmlns:sodipodi="http://sodipodi.sourceforge.net/DTD/sodipodi-0.dtd"
   xmlns:inkscape="http://www.inkscape.org/namespaces/inkscape"
   width="200"
   height="200"
   viewBox="0 0 52.916666 52.916668"
   version="1.1"
   id="svg3506"
   inkscape:version="0.92.2 (5c3e80d, 2017-08-06)"
   sodipodi:docname="worker.svg">
  <defs
     id="defs3500">
    <clipPath
       clipPathUnits="userSpaceOnUse"
       id="clipPath8806">
      <path
         d="m 217.174,529.313 h 7.516 v -7.393 h -7.516 z"
         id="path8804"
         inkscape:connector-curvature="0" />
    </clipPath>
    <clipPath
       clipPathUnits="userSpaceOnUse"
       id="clipPath8822">
      <path
         d="m 193.378,530.029 h 7.516 v -7.393 h -7.516 z"
         id="path8820"
         inkscape:connector-curvature="0" />
    </clipPath>
    <clipPath
       clipPathUnits="userSpaceOnUse"
       id="clipPath8838">
      <path
         d="m 239.785,536.821 h 7.516 v -7.393 h -7.516 z"
         id="path8836"
         inkscape:connector-curvature="0" />
    </clipPath>
    <clipPath
       clipPathUnits="userSpaceOnUse"
       id="clipPath8586">
      <path
         d="m 376.612,193.18 h 17.074 v -17.075 h -17.074 z"
         id="path8584"
         inkscape:connector-curvature="0" />
    </clipPath>
  </defs>
  <sodipodi:namedview
     id="base"
     pagecolor="#ffffff"
     bordercolor="#666666"
     borderopacity="1.0"
     inkscape:pageopacity="0.0"
     inkscape:pageshadow="2"
     inkscape:zoom="1.4"
     inkscape:cx="34.531512"
     inkscape:cy="180.43404"
     inkscape:document-units="mm"
     inkscape:current-layer="layer1"
     showgrid="false"
     units="px"
     inkscape:window-width="958"
     inkscape:window-height="974"
     inkscape:window-x="950"
     inkscape:window-y="0"
     inkscape:window-maximized="0" />
  <metadata
     id="metadata3503">
    <rdf:RDF>
      <cc:Work
         rdf:about="">
        <dc:format>image/svg+xml</dc:format>
        <dc:type
           rdf:resource="http://purl.org/dc/dcmitype/StillImage" />
        <dc:title />
      </cc:Work>
    </rdf:RDF>
  </metadata>
  <g
     inkscape:label="Calque 1"
     inkscape:groupmode="layer"
     id="layer1"
     transform="translate(0,-244.08332)">
    <g
       transform="matrix(0.39653655,0,0,-0.39653655,22.834023,258.44101)"
       id="g8612">
      <path
         inkscape:connector-curvature="0"
         id="path8614"
         style="fill:#b0b2b0;fill-opacity:1;fill-rule:nonzero;stroke:none"
         d="M 0,0 C 1.663,0.951 2.53,2.854 2.356,5.17 2.115,8.384 -0.277,10.316 -3.62,9.995 -5.215,9.842 -5.69,9.596 -6.903,8.296 -8.281,6.818 -8.521,6.058 -8.324,3.772 -7.996,-0.049 -3.584,-2.049 0,0 m -6.557,-5.36 c -5.902,2.105 -8.648,8.998 -5.832,14.634 2.006,4.014 4.91,5.797 9.457,5.811 2.598,0.007 3.224,-0.13 4.953,-1.08 C 4.026,12.902 5.507,11.335 6.769,8.977 7.283,8.015 7.465,6.9 7.463,4.702 7.461,2.197 7.304,1.428 6.461,-0.181 4.031,-4.82 -1.691,-7.097 -6.557,-5.36 m -19.152,-42.326 c -0.567,0.398 -0.825,0.959 -0.825,1.794 0,1.348 8.385,22.369 10.615,26.614 1.848,3.515 4.268,6.031 7.04,7.316 2.064,0.957 2.646,1.045 7.806,1.173 9.124,0.227 11.696,-0.585 16.169,-5.112 2.793,-2.829 3.521,-3.952 11.96,-18.425 l 2.383,-4.088 2.131,-0.232 c 2.545,-0.275 3.597,-1.077 3.597,-2.742 0,-1.745 -0.96,-2.416 -3.454,-2.416 -2.254,0 -5.55,-1.046 -7.074,-2.246 -1.85,-1.455 -4.34,-0.552 -4.34,1.574 0,1.214 1.069,2.56 2.755,3.468 0.733,0.395 1.334,0.814 1.334,0.93 0,0.319 -8.292,14.53 -9.913,16.988 -1.909,2.894 -4.619,5.56 -6.536,6.43 -1.343,0.61 -2.457,0.718 -7.469,0.725 -6.802,0.009 -7.572,-0.215 -9.929,-2.894 -1.906,-2.165 -2.693,-3.844 -8.139,-17.359 -2.469,-6.131 -4.77,-11.356 -5.112,-11.612 -0.841,-0.629 -2.001,-0.585 -2.998,0.114 z m 63.171,-7.405 c 2.519,1.971 4.624,3.615 4.676,3.657 0.051,0.041 -0.081,0.58 -0.297,1.199 l -0.392,1.123 -10.296,-3.337 c -5.663,-1.834 -10.356,-3.39 -10.428,-3.455 -0.073,-0.066 0.025,-0.59 0.215,-1.165 l 0.348,-1.045 4.802,-0.203 c 2.641,-0.112 5.25,-0.238 5.797,-0.279 0.753,-0.057 2.104,0.792 5.575,3.505 m 7.993,-7.878 c 0.312,0.117 0.155,1.031 -0.543,3.16 -0.54,1.648 -1.072,2.996 -1.183,2.995 -0.109,-10e-4 -2.123,-1.513 -4.473,-3.36 l -4.275,-3.357 -5.855,0.106 c -3.713,0.068 -5.855,-0.029 -5.854,-0.263 0,-0.205 0.427,-1.652 0.949,-3.218 l 0.948,-2.847 9.924,3.31 c 5.458,1.82 10.121,3.383 10.362,3.474 M 21.838,-74.707 c -0.384,0.384 -2.127,5.102 -3.918,10.605 -2.924,8.987 -3.181,10.006 -2.746,10.897 0.43,0.882 1.819,1.429 13.67,5.377 7.256,2.418 13.621,4.395 14.146,4.395 0.526,0 1.239,-0.209 1.584,-0.463 0.739,-0.546 6.947,-18.868 6.947,-20.5 0,-0.601 -0.276,-1.399 -0.613,-1.771 -0.632,-0.698 -26.14,-9.231 -27.596,-9.231 -0.431,0 -1.094,0.311 -1.474,0.691 M 3.741,-78.946 c -0.501,0.502 -0.912,1.261 -0.912,1.689 0,0.428 0.411,1.188 0.912,1.69 0.748,0.748 1.282,0.913 2.963,0.913 h 2.05 l -4.169,12.271 c -4,11.778 -4.146,12.314 -3.601,13.288 0.65,1.163 2.702,1.573 3.783,0.754 0.733,-0.555 9.957,-27.427 9.957,-29.009 0,-0.562 -0.335,-1.356 -0.744,-1.765 -0.657,-0.657 -1.239,-0.743 -5.035,-0.743 -4.06,0 -4.34,0.048 -5.203,0.912 z m -21.004,-0.227 c -0.573,0.463 -0.846,1.084 -0.846,1.916 0,1.942 1.127,2.602 4.439,2.602 1.511,0 2.747,0.126 2.748,0.279 0.002,0.668 5.952,47.195 6.131,47.944 0.479,2.007 3.31,2.464 4.453,0.719 0.509,-0.777 0.264,-3.172 -2.75,-26.837 -3.088,-24.254 -3.362,-26.027 -4.126,-26.646 -1.224,-0.991 -8.819,-0.973 -10.049,0.023" />
    </g>
    <g
       transform="matrix(0.39653655,0,0,-0.39653655,37.678168,280.25131)"
       id="g8616"
       style="fill:#3a98ab;fill-opacity:1">
      <path
         inkscape:connector-curvature="0"
         id="path8618"
         style="fill:#3a98ab;fill-opacity:1;fill-rule:nonzero;stroke:none"
         d="M 0,0 C 2.52,1.97 4.624,3.615 4.676,3.656 4.728,3.697 4.594,4.236 4.379,4.854 L 3.987,5.978 -6.309,2.642 c -5.663,-1.835 -10.356,-3.391 -10.428,-3.456 -0.073,-0.066 0.024,-0.59 0.216,-1.165 l 0.347,-1.045 4.802,-0.204 c 2.642,-0.111 5.25,-0.236 5.797,-0.278 C -4.822,-3.563 -3.471,-2.714 0,0 m 7.993,-7.879 c 0.312,0.117 0.155,1.03 -0.544,3.16 -0.54,1.648 -1.071,2.995 -1.181,2.994 -0.11,-10e-4 -2.123,-1.512 -4.475,-3.359 l -4.274,-3.357 -5.855,0.106 c -3.713,0.067 -5.854,-0.028 -5.854,-0.264 10e-4,-0.204 0.427,-1.651 0.949,-3.217 l 0.948,-2.847 9.924,3.309 c 5.458,1.821 10.121,3.384 10.362,3.475 m -23.617,-11.738 c -0.384,0.384 -2.127,5.102 -3.918,10.605 -2.924,8.988 -3.181,10.006 -2.746,10.897 0.43,0.882 1.819,1.428 13.67,5.378 7.255,2.417 13.621,4.394 14.146,4.394 0.526,0 1.239,-0.209 1.584,-0.464 0.738,-0.546 6.948,-18.867 6.948,-20.499 0,-0.601 -0.277,-1.398 -0.614,-1.771 -0.632,-0.698 -26.14,-9.232 -27.596,-9.232 -0.431,0 -1.094,0.312 -1.474,0.692" />
    </g>
  </g>
</svg>
