<?xml version="1.0" encoding="UTF-8" standalone="no"?>
<!-- Created with Inkscape (http://www.inkscape.org/) -->

<svg
   xmlns:dc="http://purl.org/dc/elements/1.1/"
   xmlns:cc="http://creativecommons.org/ns#"
   xmlns:rdf="http://www.w3.org/1999/02/22-rdf-syntax-ns#"
   xmlns:svg="http://www.w3.org/2000/svg"
   xmlns="http://www.w3.org/2000/svg"
   xmlns:sodipodi="http://sodipodi.sourceforge.net/DTD/sodipodi-0.dtd"
   xmlns:inkscape="http://www.inkscape.org/namespaces/inkscape"
   width="200"
   height="200"
   viewBox="0 0 52.916666 52.916668"
   version="1.1"
   id="svg3506"
   inkscape:version="0.92.2 (5c3e80d, 2017-08-06)"
   sodipodi:docname="construction.svg">
  <defs
     id="defs3500">
    <clipPath
       clipPathUnits="userSpaceOnUse"
       id="clipPath8806">
      <path
         d="m 217.174,529.313 h 7.516 v -7.393 h -7.516 z"
         id="path8804"
         inkscape:connector-curvature="0" />
    </clipPath>
    <clipPath
       clipPathUnits="userSpaceOnUse"
       id="clipPath8822">
      <path
         d="m 193.378,530.029 h 7.516 v -7.393 h -7.516 z"
         id="path8820"
         inkscape:connector-curvature="0" />
    </clipPath>
    <clipPath
       clipPathUnits="userSpaceOnUse"
       id="clipPath8838">
      <path
         d="m 239.785,536.821 h 7.516 v -7.393 h -7.516 z"
         id="path8836"
         inkscape:connector-curvature="0" />
    </clipPath>
    <clipPath
       clipPathUnits="userSpaceOnUse"
       id="clipPath8586">
      <path
         d="m 376.612,193.18 h 17.074 v -17.075 h -17.074 z"
         id="path8584"
         inkscape:connector-curvature="0" />
    </clipPath>
    <clipPath
       clipPathUnits="userSpaceOnUse"
       id="clipPath8702">
      <path
         d="m 792.929,209.492 h 8.097 v -7.964 h -8.097 z"
         id="path8700"
         inkscape:connector-curvature="0" />
    </clipPath>
    <clipPath
       clipPathUnits="userSpaceOnUse"
       id="clipPath8686">
      <path
         d="m 742.939,202.176 h 8.097 v -7.964 h -8.097 z"
         id="path8684"
         inkscape:connector-curvature="0" />
    </clipPath>
    <clipPath
       clipPathUnits="userSpaceOnUse"
       id="clipPath8670">
      <path
         d="m 768.573,201.405 h 8.096 v -7.964 h -8.096 z"
         id="path8668"
         inkscape:connector-curvature="0" />
    </clipPath>
    <clipPath
       clipPathUnits="userSpaceOnUse"
       id="clipPath8390">
      <path
         d="M 88.1177,87.0158 H 100.08 V 75.0535 H 88.1177 Z"
         id="path8388"
         inkscape:connector-curvature="0" />
    </clipPath>
    <clipPath
       clipPathUnits="userSpaceOnUse"
       id="clipPath8374">
      <path
         d="M 67.5484,86.7241 H 79.5107 V 74.7618 H 67.5484 Z"
         id="path8372"
         inkscape:connector-curvature="0" />
    </clipPath>
    <clipPath
       clipPathUnits="userSpaceOnUse"
       id="clipPath8358">
      <path
         d="M 46.8331,86.8699 H 58.7954 V 74.9076 H 46.8331 Z"
         id="path8356"
         inkscape:connector-curvature="0" />
    </clipPath>
    <clipPath
       clipPathUnits="userSpaceOnUse"
       id="clipPath8542">
      <path
         d="M 189.832,90.7442 H 201.03 V 79.5456 h -11.198 z"
         id="path8540"
         inkscape:connector-curvature="0" />
    </clipPath>
    <clipPath
       clipPathUnits="userSpaceOnUse"
       id="clipPath8526">
      <path
         d="m 170.663,90.7442 h 11.198 V 79.5456 h -11.198 z"
         id="path8524"
         inkscape:connector-curvature="0" />
    </clipPath>
    <clipPath
       clipPathUnits="userSpaceOnUse"
       id="clipPath8510">
      <path
         d="m 151.233,90.8746 h 11.199 V 79.676 h -11.199 z"
         id="path8508"
         inkscape:connector-curvature="0" />
    </clipPath>
    <clipPath
       clipPathUnits="userSpaceOnUse"
       id="clipPath8478">
      <path
         d="m 139.758,103.132 h 11.198 V 91.9337 h -11.198 z"
         id="path8476"
         inkscape:connector-curvature="0" />
    </clipPath>
    <clipPath
       clipPathUnits="userSpaceOnUse"
       id="clipPath8462">
      <path
         d="m 158.927,103.393 h 11.198 V 92.1945 h -11.198 z"
         id="path8460"
         inkscape:connector-curvature="0" />
    </clipPath>
    <clipPath
       clipPathUnits="userSpaceOnUse"
       id="clipPath8446">
      <path
         d="m 178.356,103.263 h 11.199 V 92.0641 h -11.199 z"
         id="path8444"
         inkscape:connector-curvature="0" />
    </clipPath>
    <clipPath
       clipPathUnits="userSpaceOnUse"
       id="clipPath8430">
      <path
         d="m 198.568,103.132 h 11.199 V 91.9337 h -11.199 z"
         id="path8428"
         inkscape:connector-curvature="0" />
    </clipPath>
    <clipPath
       clipPathUnits="userSpaceOnUse"
       id="clipPath8318">
      <path
         d="m 792.405,95.1114 h 9.528 v -9.3722 h -9.528 z"
         id="path8316"
         inkscape:connector-curvature="0" />
    </clipPath>
    <clipPath
       clipPathUnits="userSpaceOnUse"
       id="clipPath8302">
      <path
         d="m 733.576,86.5021 h 9.528 v -9.3722 h -9.528 z"
         id="path8300"
         inkscape:connector-curvature="0" />
    </clipPath>
    <clipPath
       clipPathUnits="userSpaceOnUse"
       id="clipPath8286">
      <path
         d="m 763.741,85.5939 h 9.528 v -9.3722 h -9.528 z"
         id="path8284"
         inkscape:connector-curvature="0" />
    </clipPath>
  </defs>
  <sodipodi:namedview
     id="base"
     pagecolor="#ffffff"
     bordercolor="#666666"
     borderopacity="1.0"
     inkscape:pageopacity="0.0"
     inkscape:pageshadow="2"
     inkscape:zoom="1.979899"
     inkscape:cx="19.592626"
     inkscape:cy="76.192833"
     inkscape:document-units="mm"
     inkscape:current-layer="layer1"
     showgrid="false"
     units="px"
     inkscape:window-width="1280"
     inkscape:window-height="961"
     inkscape:window-x="-8"
     inkscape:window-y="-8"
     inkscape:window-maximized="1" />
  <metadata
     id="metadata3503">
    <rdf:RDF>
      <cc:Work
         rdf:about="">
        <dc:format>image/svg+xml</dc:format>
        <dc:type
           rdf:resource="http://purl.org/dc/dcmitype/StillImage" />
        <dc:title />
      </cc:Work>
    </rdf:RDF>
  </metadata>
  <g
     inkscape:label="Calque 1"
     inkscape:groupmode="layer"
     id="layer1"
     transform="translate(0,-244.08332)">
    <path
       style="fill:#ba88a4;fill-opacity:1;fill-rule:nonzero;stroke:none;stroke-width:0.76451302"
       d="m 26.920399,253.62202 c -1.642637,-0.0167 -3.245405,0.44883 -4.619582,1.29378 0.01973,-0.002 0.03975,-5.6e-4 0.05933,-0.003 0.189376,-0.0278 0.371662,-0.0928 0.56093,-0.12135 0.146746,-0.0221 0.291568,-0.03 0.436204,-0.0297 0.144635,3.8e-4 0.289105,0.009 0.436204,0.0189 0.389973,0.0323 0.781225,0.0195 1.17175,0.0108 0.140221,0.001 0.280466,0.002 0.420698,0.002 0.307725,-6.2e-4 0.615246,-4e-5 0.922972,0 0.428028,-2e-5 0.856313,0 1.284341,0 0.252672,2e-5 0.505122,0 0.757795,0 h 0.598685 0.519804 0.638462 0.49014 0.365413 0.156413 c -1.34537,-0.78372 -2.785947,-1.15673 -4.199558,-1.17107 z m 4.455078,1.78796 c 0.0028,9e-4 0.0052,0.003 0.0081,0.003 0.04155,0.007 0.08408,0.006 0.126749,0.003 -0.0012,-0.002 -0.0056,-0.003 -0.0054,-0.005 -0.09277,-0.004 -0.192207,-0.008 -0.09169,-6.9e-4 z m -10.685986,0.77735 c -1.487116,1.49971 -2.443956,3.57936 -2.443956,6.02932 0,2.38758 0.316163,3.44095 1.589077,5.29108 0.933469,1.357 3.136409,2.83235 4.899373,3.28265 1.541258,0.39296 4.440561,0.0565 5.893136,-0.6843 1.515265,-0.77369 3.618177,-3.02982 4.264956,-4.57644 0.258404,-0.61925 0.469914,-2.09563 0.469914,-3.28063 0,-2.30132 -0.87832,-4.46399 -2.40755,-6.03472 -0.0015,-2.3e-4 -0.0018,-4.4e-4 -0.0034,-6.9e-4 -0.105141,-0.013 -0.211887,-10e-4 -0.317545,0 -0.117352,0.0117 -0.240649,-0.0186 -0.357323,-10e-4 -0.0052,7.6e-4 0.0093,0.0121 0.0054,0.0155 -0.01096,0.0104 -0.02799,0.0129 -0.0418,0.0196 -0.176459,0.0712 -0.364176,0.0223 -0.54812,0.0229 -0.08788,0.004 -0.175662,0.005 -0.263611,0.004 -0.126873,-0.002 -0.220512,-0.0341 -0.293949,-0.0775 -0.01471,0.005 -0.02892,0.0108 -0.04382,0.0148 -0.01639,0.004 -0.03425,0 -0.05124,0 h -0.302039 c -0.182831,0 -0.365291,3e-5 -0.548121,0 -0.19485,-1.3e-4 -0.389676,-2.8e-4 -0.584526,0 -0.136449,0 -0.272791,-0.002 -0.409236,0 -0.224824,0.004 -0.451992,0.0133 -0.675543,-0.0155 -0.237065,-0.0104 -0.463638,0.10491 -0.702511,0.0769 h -0.78746 -0.622956 -0.572391 -0.722737 -0.328333 -0.92095 -1.709757 -0.551492 -0.58992 c -0.140996,0 -0.245752,-0.035 -0.321591,-0.0856 z m 6.200569,1.62481 c 1.392102,0.0111 2.737774,0.74944 3.685148,2.17158 1.328724,1.99462 0.712496,4.82924 -1.318051,6.06775 v -6.9e-4 c -1.412056,0.86086 -3.479734,0.8701 -4.870382,0.0222 -2.490784,-1.51908 -2.821538,-4.96921 -0.664082,-6.94623 0.973655,-0.89205 2.084621,-1.32333 3.167367,-1.31468 z m -0.0863,16.98026 c -4.223169,0 -4.868058,0.0798 -6.377208,0.78544 -1.885288,0.88148 -4.126375,3.14144 -5.196692,5.23849 -1.080259,2.11771 -4.368108,9.82474 -4.368108,10.23832 0,0.20031 0.234368,0.69929 0.521826,1.10906 0.585617,0.83561 2.046467,0.99984 2.90578,0.3263 0.295103,-0.23012 1.320078,-2.26263 2.278778,-4.51643 3.567982,-8.38898 4.410824,-9.14638 10.189779,-9.15421 4.625587,-0.007 6.04474,0.42954 8.202927,4.68767 l 1.252655,0.93983 v 1.73066 c 0.0014,0.003 0.0031,0.007 0.0047,0.0108 l 2.976567,2.97657 c 0.777535,-0.38316 1.74259,-0.25706 2.388675,0.38901 l 0.829258,0.82926 c -0.11219,-0.42072 -0.347656,-1.04819 -0.668801,-1.8446 -0.478158,-0.31443 -1.037583,-0.48407 -1.623459,-0.48407 -0.22935,0 -0.463829,0.0278 -0.690376,0.0809 l -2.296309,-2.29563 c -0.01957,-1.04886 0.355088,-2.10057 1.152198,-2.89769 0.228836,-0.22883 0.480008,-0.42031 0.744311,-0.5825 -1.98185,-4.037 -3.493278,-5.68479 -5.849322,-6.78441 -1.506855,-0.70261 -2.157859,-0.78274 -6.377208,-0.78274 z m 13.467715,10.25383 0.229225,1.38075 0.394405,0.0654 c -0.0057,-0.0135 -0.0077,-0.0188 -0.0135,-0.0324 -0.210282,-0.49572 -0.412434,-0.96328 -0.610144,-1.41378 z m -2.547109,4.54407 c 0.138496,0.30576 0.269015,0.59002 0.394404,0.86095 0.03355,-0.11542 0.07458,-0.22905 0.128096,-0.33845 z"
       id="path9519-3"
       inkscape:connector-curvature="0" />
    <path
       id="path1139"
       d="m 33.519728,251.89042 c 0,-2.41464 -1.482774,-4.48083 -3.586285,-5.3444 l -1.227915,2.45585 v -3.36993 a 0.48142081,0.48142081 0 0 0 -0.481421,-0.48144 h -2.888531 a 0.48142081,0.48142081 0 0 0 -0.481422,0.48144 v 3.36993 l -1.227923,-2.45585 c -2.103511,0.86357 -3.586283,2.92976 -3.586283,5.3444 v 1.92569 h 13.47978 z m 0.481419,2.8885 h -14.44262 a 0.48142081,0.48142081 0 0 0 -0.481423,0.48143 v 0.96284 a 0.48142081,0.48142081 0 0 0 0.481423,0.48142 h 14.44262 a 0.48142081,0.48142081 0 0 0 0.481423,-0.48142 v -0.96284 a 0.48142081,0.48142081 0 0 0 -0.481423,-0.48143 z"
       inkscape:connector-curvature="0"
       style="fill:none;fill-opacity:1;stroke:#b0006b;stroke-width:1.1467694;stroke-miterlimit:4;stroke-dasharray:none;stroke-opacity:1" />
    <path
       id="path1095-2"
       d="m 44.858242,292.82904 -3.27515,-3.27513 c -0.646082,-0.64608 -1.611005,-0.77194 -2.388539,-0.38878 l -2.981469,-2.98145 v -1.73688 l -3.580008,-2.685 -1.790001,1.79 2.685001,3.58002 h 1.736867 l 2.98147,2.98148 c -0.380369,0.77752 -0.25731,1.74242 0.388772,2.38852 l 3.27514,3.27516 c 0.408352,0.40833 1.068407,0.40833 1.473961,0 l 1.473956,-1.47398 c 0.405545,-0.40834 0.405545,-1.0684 0,-1.47396 z m -4.737914,-4.77425 c 0.791514,0 1.535484,0.30765 2.094855,0.86701 l 0.542598,0.54261 c 0.441905,-0.19287 0.861439,-0.46148 1.225033,-0.82509 1.037643,-1.03765 1.390046,-2.49761 1.06002,-3.82332 -0.06155,-0.25171 -0.377585,-0.33842 -0.562177,-0.15385 l -2.080873,2.08088 -1.899081,-0.31605 -0.316051,-1.89908 2.080882,-2.08089 c 0.184596,-0.18463 0.09508,-0.50064 -0.159435,-0.56497 -1.325718,-0.32723 -2.785694,0.0252 -3.820538,1.06004 -0.797112,0.79711 -1.171893,1.84872 -1.152312,2.89758 l 2.296239,2.29619 c 0.226546,-0.0531 0.461482,-0.081 0.690828,-0.081 z m -2.905962,2.29345 -1.58583,-1.58585 -4.262442,4.26527 c -0.699224,0.69921 -0.699224,1.83193 0,2.53114 0.699223,0.69923 1.831957,0.69923 2.531174,0 l 3.456942,-3.45693 c -0.212573,-0.55659 -0.276892,-1.1635 -0.139846,-1.75363 z m -4.58129,4.61485 c -0.369183,0 -0.671249,-0.30208 -0.671249,-0.67127 0,-0.37198 0.299268,-0.67127 0.671249,-0.67127 0.371988,0 0.671248,0.29929 0.671248,0.67127 0,0.36919 -0.29926,0.67127 -0.671248,0.67127 z"
       inkscape:connector-curvature="0"
       style="fill:#b0006b;fill-opacity:1;stroke:none;stroke-width:2.29353881;stroke-miterlimit:4;stroke-dasharray:none;stroke-opacity:1;paint-order:markers stroke fill" />
  </g>
</svg>
