<?xml version="1.0" encoding="UTF-8" standalone="no"?>
<!-- Created with Inkscape (http://www.inkscape.org/) -->

<svg
   xmlns:dc="http://purl.org/dc/elements/1.1/"
   xmlns:cc="http://creativecommons.org/ns#"
   xmlns:rdf="http://www.w3.org/1999/02/22-rdf-syntax-ns#"
   xmlns:svg="http://www.w3.org/2000/svg"
   xmlns="http://www.w3.org/2000/svg"
   xmlns:sodipodi="http://sodipodi.sourceforge.net/DTD/sodipodi-0.dtd"
   xmlns:inkscape="http://www.inkscape.org/namespaces/inkscape"
   width="200"
   height="200"
   viewBox="0 0 52.916666 52.916668"
   version="1.1"
   id="svg3506"
   inkscape:version="0.92.2 (5c3e80d, 2017-08-06)"
   sodipodi:docname="globe-people.svg">
  <defs
     id="defs3500">
    <clipPath
       clipPathUnits="userSpaceOnUse"
       id="clipPath8806">
      <path
         d="m 217.174,529.313 h 7.516 v -7.393 h -7.516 z"
         id="path8804"
         inkscape:connector-curvature="0" />
    </clipPath>
    <clipPath
       clipPathUnits="userSpaceOnUse"
       id="clipPath8822">
      <path
         d="m 193.378,530.029 h 7.516 v -7.393 h -7.516 z"
         id="path8820"
         inkscape:connector-curvature="0" />
    </clipPath>
    <clipPath
       clipPathUnits="userSpaceOnUse"
       id="clipPath8838">
      <path
         d="m 239.785,536.821 h 7.516 v -7.393 h -7.516 z"
         id="path8836"
         inkscape:connector-curvature="0" />
    </clipPath>
    <clipPath
       clipPathUnits="userSpaceOnUse"
       id="clipPath8586">
      <path
         d="m 376.612,193.18 h 17.074 v -17.075 h -17.074 z"
         id="path8584"
         inkscape:connector-curvature="0" />
    </clipPath>
    <clipPath
       clipPathUnits="userSpaceOnUse"
       id="clipPath8702">
      <path
         d="m 792.929,209.492 h 8.097 v -7.964 h -8.097 z"
         id="path8700"
         inkscape:connector-curvature="0" />
    </clipPath>
    <clipPath
       clipPathUnits="userSpaceOnUse"
       id="clipPath8686">
      <path
         d="m 742.939,202.176 h 8.097 v -7.964 h -8.097 z"
         id="path8684"
         inkscape:connector-curvature="0" />
    </clipPath>
    <clipPath
       clipPathUnits="userSpaceOnUse"
       id="clipPath8670">
      <path
         d="m 768.573,201.405 h 8.096 v -7.964 h -8.096 z"
         id="path8668"
         inkscape:connector-curvature="0" />
    </clipPath>
    <clipPath
       clipPathUnits="userSpaceOnUse"
       id="clipPath8390">
      <path
         d="M 88.1177,87.0158 H 100.08 V 75.0535 H 88.1177 Z"
         id="path8388"
         inkscape:connector-curvature="0" />
    </clipPath>
    <clipPath
       clipPathUnits="userSpaceOnUse"
       id="clipPath8374">
      <path
         d="M 67.5484,86.7241 H 79.5107 V 74.7618 H 67.5484 Z"
         id="path8372"
         inkscape:connector-curvature="0" />
    </clipPath>
    <clipPath
       clipPathUnits="userSpaceOnUse"
       id="clipPath8358">
      <path
         d="M 46.8331,86.8699 H 58.7954 V 74.9076 H 46.8331 Z"
         id="path8356"
         inkscape:connector-curvature="0" />
    </clipPath>
  </defs>
  <sodipodi:namedview
     id="base"
     pagecolor="#ffffff"
     bordercolor="#666666"
     borderopacity="1.0"
     inkscape:pageopacity="0.0"
     inkscape:pageshadow="2"
     inkscape:zoom="1.4"
     inkscape:cx="-37.109801"
     inkscape:cy="158.20117"
     inkscape:document-units="mm"
     inkscape:current-layer="g8344"
     showgrid="false"
     units="px"
     inkscape:window-width="1280"
     inkscape:window-height="961"
     inkscape:window-x="-8"
     inkscape:window-y="-8"
     inkscape:window-maximized="1" />
  <metadata
     id="metadata3503">
    <rdf:RDF>
      <cc:Work
         rdf:about="">
        <dc:format>image/svg+xml</dc:format>
        <dc:type
           rdf:resource="http://purl.org/dc/dcmitype/StillImage" />
        <dc:title />
      </cc:Work>
    </rdf:RDF>
  </metadata>
  <g
     inkscape:label="Calque 1"
     inkscape:groupmode="layer"
     id="layer1"
     transform="translate(0,-244.08332)">
    <g
       transform="matrix(0.65673559,0,0,-0.65673559,41.297665,251.55767)"
       id="g8340"
       style="fill:#bb86fc;fill-opacity:1">
      <path
         inkscape:connector-curvature="0"
         id="path8342"
         style="fill:#bb86fc;fill-opacity:1;fill-rule:evenodd;stroke:none"
         d="m 0,0 -1.308,-4.507 -2.326,-5.814 -4.653,-1.454 1.163,-5.525 -2.762,-3.053 c 0,0 -1.017,-4.943 -1.017,-6.106 0,-1.163 2.18,-5.088 2.18,-5.088 l 9.014,-0.582 2.035,-6.833 3.053,-12.938 5.088,6.106 5.089,20.063 -2.181,7.849 -6.542,-1.162 -9.886,2.325 3.635,4.653 4.652,-0.146 5.815,-1.89 -2.471,7.56 z" />
    </g>
    <g
       transform="matrix(0.65673559,0,0,-0.65673559,3.4850641,261.22782)"
       id="g8344"
       style="fill:#3700b3;fill-opacity:1">
      <path
         inkscape:connector-curvature="0"
         id="path8346"
         style="fill:#bb86fc;fill-opacity:1;fill-rule:evenodd;stroke:none"
         d="m 0,0 10.758,14.829 4.362,-2.035 2.907,2.326 h 3.78 13.084 l -2.908,-3.489 3.199,-3.78 -2.326,-2.618 -13.085,-10.757 -5.524,-1.454 -0.29,-3.199 4.361,-3.488 11.049,-0.582 5.815,-5.815 4.943,-2.617 1.454,-2.908 -2.036,-3.198 -4.943,-5.234 -4.652,-6.396 -1.744,-3.198 -3.49,6.396 v 8.432 l -6.396,5.524 0.872,9.596 -9.304,2.907 -2.326,2.617 -3.78,2.327 z" />
    </g>
    <g
       transform="matrix(0.65673559,0,0,-0.65673559,39.699763,260.57819)"
       id="g8348"
       style="fill:#bb86fc;fill-opacity:1">
      <path
         inkscape:connector-curvature="0"
         id="path8350"
         style="fill:#bb86fc;fill-opacity:1;fill-rule:nonzero;stroke:none"
         d="m 0,0 c 0.771,1.153 1.778,2.268 2.237,2.477 0.459,0.209 1.952,0.38 3.317,0.38 1.96,0 2.86,-0.191 4.281,-0.912 0.99,-0.502 1.883,-0.828 1.985,-0.726 0.216,0.216 -1.135,2.58 -2.704,4.734 L 8.025,7.45 6.96,6.841 C 6.142,6.373 5.748,6.322 5.266,6.623 4.36,7.187 4.313,8.298 5.162,9.065 L 5.895,9.729 4.936,10.73 c -0.899,0.939 -1,0.965 -1.606,0.416 C 2.868,10.729 2.684,10.052 2.684,8.775 2.684,6.726 1.675,4.344 0.497,3.612 0.064,3.344 -1.099,2.851 -2.088,2.515 -3.818,1.929 -3.892,1.851 -3.995,0.472 -4.116,-1.148 -3.428,-2.122 -2.175,-2.105 -1.631,-2.099 -0.985,-1.474 0,0 Z m 9.536,-4.191 c 0.422,0.225 1.589,0.504 2.595,0.621 1.715,0.198 1.809,0.26 1.53,1.01 -0.243,0.651 -0.57,0.799 -1.754,0.799 -0.801,0 -1.765,0.166 -2.143,0.368 -0.479,0.257 -0.687,0.253 -0.687,-0.011 0,-0.569 -1.51,-1.03 -2.195,-0.67 -0.328,0.172 -0.648,0.672 -0.71,1.112 C 5.989,0.324 4.054,0.337 3.046,-0.941 2.318,-1.865 2.308,-1.947 2.901,-2.067 3.253,-2.138 4.345,-2.737 5.328,-3.399 7.211,-4.667 8.273,-4.867 9.536,-4.191 M -32.411,6.836 c -0.235,0.234 -0.426,0.795 -0.426,1.246 0,0.656 0.463,1.049 2.318,1.964 2.576,1.269 3.452,1.139 3.654,-0.548 0.097,-0.812 -0.151,-1.057 -2.033,-2.007 -2.36,-1.191 -2.88,-1.288 -3.513,-0.655 M -42.783,-9.916 c 0,0.398 0.312,1.336 0.693,2.082 0.846,1.66 2.511,2.522 4.871,2.522 h 1.727 l 5.146,5.174 c 5.295,5.325 6.411,6.192 7.97,6.192 1.365,0 1.097,0.794 -0.693,2.055 -1.419,1 -1.598,1.28 -1.598,2.485 0,0.746 0.191,1.549 0.426,1.783 0.331,0.331 -0.224,0.426 -2.501,0.426 -2.226,0 -3.26,-0.17 -4.319,-0.71 -0.766,-0.391 -1.717,-0.711 -2.114,-0.711 -0.397,0 -0.921,0.32 -1.165,0.711 -0.808,1.294 -2.615,0.943 -4.573,-0.888 -0.94,-0.88 -1.949,-1.599 -2.244,-1.599 -0.295,0 -1.078,0.477 -1.741,1.059 l -1.206,1.059 -2.115,-2.213 c -2.094,-2.191 -4.421,-5.376 -5.592,-7.655 -0.586,-1.14 -0.576,-1.267 0.345,-4.084 1.195,-3.66 1.722,-4.505 2.801,-4.505 1.408,0 1.971,-0.376 2.698,-1.801 0.727,-1.426 1.524,-2.077 2.562,-2.096 0.393,-0.007 0.622,0.257 0.622,0.714 m 54.021,-22.472 c 3.809,6.642 5.357,15.13 4.19,22.976 l -0.399,2.679 h -1.866 c -1.028,0 -2.441,-0.241 -3.143,-0.534 -1.977,-0.825 -3.104,-0.648 -5.652,0.889 -2.191,1.321 -2.542,1.421 -5.016,1.421 -3.462,0 -4.144,-0.299 -5.492,-2.398 -1.644,-2.562 -1.58,-4.639 0.221,-7.221 l 1.343,-1.926 3.364,-0.179 c 3.428,-0.181 4.474,-0.565 5.488,-2.013 0.818,-1.167 1.604,-4.448 1.604,-6.691 0,-1.344 0.415,-3.674 1.08,-6.062 1.643,-5.902 1.388,-5.38 2.144,-4.384 0.358,0.473 1.319,2.022 2.134,3.443 m -35.012,-5.296 c 1.542,1.635 2.497,3.023 2.994,4.353 1.008,2.694 1.465,3.212 3.062,3.472 1.367,0.221 1.393,0.255 1.899,2.447 l 0.513,2.221 -1.198,1.237 c -1.025,1.057 -1.434,1.236 -2.824,1.236 -1.574,0 -1.724,0.1 -4.814,3.208 l -3.19,3.207 -3.167,-0.099 -3.167,-0.1 -0.624,-1.775 c -0.633,-1.805 -0.852,-4.285 -0.466,-5.292 0.117,-0.305 1.299,-1.36 2.628,-2.344 3.67,-2.721 3.691,-2.773 3.904,-9.414 0.157,-4.892 0.28,-5.829 0.886,-6.725 l 0.705,-1.04 0.297,1.504 c 0.227,1.15 0.831,2.069 2.562,3.904 M -4.987,8.678 c -0.104,0.27 -0.139,1.189 -0.077,2.042 0.101,1.415 0.2,1.56 1.138,1.668 0.583,0.066 1.156,-0.087 1.326,-0.356 0.447,-0.705 0.372,-2.933 -0.116,-3.421 -0.58,-0.581 -2.039,-0.538 -2.271,0.067 m -6.475,-58.444 c 3.889,1.028 7.718,2.701 10.83,4.731 3.05,1.991 6.512,5.117 6.512,5.88 0,0.279 -0.622,2.694 -1.382,5.365 -0.86,3.018 -1.45,5.935 -1.56,7.703 -0.235,3.812 -0.865,5.835 -1.942,6.245 -0.465,0.177 -2.092,0.321 -3.616,0.321 -3.302,0 -4.017,0.429 -6.113,3.672 -1.306,2.02 -1.371,2.26 -1.371,5.016 0,2.625 0.103,3.059 1.104,4.651 0.607,0.967 1.367,2.054 1.688,2.417 0.463,0.525 0.558,1.251 0.461,3.552 -0.148,3.551 0.407,4.478 3.234,5.398 2.734,0.889 3.004,1.238 3.164,4.074 0.119,2.097 0.283,2.604 1.127,3.486 l 0.988,1.03 -2.54,1.625 c -2.957,1.892 -6.736,3.531 -10.584,4.589 -2.264,0.623 -3.721,0.75 -8.588,0.75 -6.451,0 -8.733,-0.426 -13.972,-2.606 -3.075,-1.28 -8.02,-4.334 -7.37,-4.551 0.244,-0.08 0.869,0.261 1.391,0.758 0.521,0.497 1.397,1.074 1.948,1.282 1.362,0.515 4.144,0.454 5.166,-0.112 0.689,-0.382 1.069,-0.383 2.132,-0.003 0.838,0.299 3.204,0.467 6.725,0.477 5.305,0.015 5.454,-0.005 6.305,-0.856 0.48,-0.48 0.872,-1.206 0.872,-1.615 0,-1.061 -1.482,-2.399 -2.965,-2.677 l -1.269,-0.238 1.229,-1.16 c 1.062,-1.001 1.229,-1.385 1.229,-2.821 0,-2.07 -1.132,-3.405 -2.888,-3.405 -0.997,0 -1.816,-0.667 -6.409,-5.224 -4.088,-4.055 -5.266,-5.429 -5.266,-6.145 0,-1.864 -1.707,-2.397 -2.721,-0.85 -0.516,0.789 -0.787,0.895 -1.844,0.724 -1.389,-0.226 -1.82,-0.701 -1.815,-2.003 0.003,-0.744 0.392,-1.074 2.4,-2.042 2.305,-1.111 2.56,-1.154 6.787,-1.154 h 4.392 l 3.261,-3.198 c 3.095,-3.035 3.337,-3.196 4.804,-3.196 1.409,0 1.725,-0.182 3.618,-2.075 2.351,-2.35 2.389,-2.529 1.379,-6.42 -0.756,-2.909 -1.496,-3.895 -3.187,-4.24 -0.973,-0.2 -1.244,-0.519 -1.984,-2.339 -0.594,-1.462 -1.529,-2.787 -3.045,-4.318 l -2.189,-2.209 -0.181,-2.515 c -0.101,-1.421 -0.38,-2.683 -0.64,-2.899 -0.254,-0.211 -1.066,-0.332 -1.806,-0.27 -1.141,0.095 -1.549,0.38 -2.693,1.888 -2.569,3.383 -2.761,4.065 -2.761,9.836 v 5.173 l -2.656,1.999 c -1.461,1.1 -2.899,2.47 -3.197,3.045 -0.701,1.357 -0.707,5.491 -0.011,7.465 0.509,1.442 0.498,1.526 -0.266,2.17 -0.85,0.715 -1.715,0.99 -6.016,1.911 -2.313,0.496 -2.9,0.777 -3.818,1.822 -0.597,0.68 -1.085,1.37 -1.085,1.535 0,0.164 -0.457,0.389 -1.016,0.501 -1.583,0.316 -3.173,1.89 -3.858,3.82 -0.342,0.962 -0.733,1.749 -0.868,1.749 -0.137,0 -0.539,-1.239 -0.894,-2.753 -0.946,-4.033 -0.858,-12.734 0.166,-16.491 1.832,-6.716 5.161,-12.437 9.9,-17.014 5.418,-5.233 11.437,-8.394 18.56,-9.746 3.773,-0.716 11.396,-0.47 15.014,0.485 m -12.317,-3.803 c -16.69,1.434 -30.793,14.034 -34.332,30.673 -0.885,4.156 -0.95,10.933 -0.147,15.208 2.544,13.549 12.18,24.776 25.31,29.489 3.973,1.427 8.251,2.091 13.247,2.058 7.37,-0.048 13.341,-1.7 19.748,-5.462 C 4.47,15.8 10.653,9.616 13.25,5.193 17.104,-1.369 18.678,-7.193 18.682,-14.903 18.686,-22.596 17.109,-28.429 13.25,-35 10.654,-39.423 4.47,-45.606 0.047,-48.203 c -7.383,-4.335 -15.237,-6.105 -23.826,-5.366" />
    </g>
    <g
       transform="matrix(0.65673559,0,0,-0.65673559,-21.892906,329.66828)"
       id="g8352"
       style="fill:#2d2d2d;fill-opacity:1">
      <g
         id="g8354"
         style="fill:#2d2d2d;fill-opacity:1" />
      <g
         id="g8366"
         style="fill:#2d2d2d;fill-opacity:1">
        <g
           style="opacity:0.97508198;fill:#2d2d2d;fill-opacity:1"
           id="g8364"
           clip-path="url(#clipPath8358)">
          <g
             id="g8362"
             transform="translate(52.8145,86.8703)"
             style="fill:#2d2d2d;fill-opacity:1">
            <path
               inkscape:connector-curvature="0"
               id="path8360"
               style="fill:#2d2d2d;fill-opacity:1;fill-rule:nonzero;stroke:none"
               d="m 0,0 c 3.303,0 5.981,-2.679 5.981,-5.981 0,-3.304 -2.678,-5.982 -5.981,-5.982 -3.303,0 -5.981,2.678 -5.981,5.982 C -5.981,-2.679 -3.303,0 0,0" />
          </g>
        </g>
      </g>
    </g>
    <g
       transform="matrix(0.65673559,0,0,-0.65673559,-21.892906,329.66828)"
       id="g8368"
       style="fill:#2d2d2d;fill-opacity:1">
      <g
         id="g8370"
         style="fill:#2d2d2d;fill-opacity:1" />
      <g
         id="g8382"
         style="fill:#2d2d2d;fill-opacity:1">
        <g
           style="opacity:0.97508198;fill:#2d2d2d;fill-opacity:1"
           id="g8380"
           clip-path="url(#clipPath8374)">
          <g
             id="g8378"
             transform="translate(73.5293,86.7238)"
             style="fill:#2d2d2d;fill-opacity:1">
            <path
               inkscape:connector-curvature="0"
               id="path8376"
               style="fill:#2d2d2d;fill-opacity:1;fill-rule:nonzero;stroke:none"
               d="m 0,0 c 3.304,0 5.981,-2.678 5.981,-5.98 0,-3.304 -2.677,-5.982 -5.981,-5.982 -3.303,0 -5.981,2.678 -5.981,5.982 C -5.981,-2.678 -3.303,0 0,0" />
          </g>
        </g>
      </g>
    </g>
    <g
       transform="matrix(0.65673559,0,0,-0.65673559,-21.892906,329.66828)"
       id="g8384"
       style="fill:#2d2d2d;fill-opacity:1">
      <g
         id="g8386"
         style="fill:#2d2d2d;fill-opacity:1" />
      <g
         id="g8398"
         style="fill:#2d2d2d;fill-opacity:1">
        <g
           style="opacity:0.97508198;fill:#2d2d2d;fill-opacity:1"
           id="g8396"
           clip-path="url(#clipPath8390)">
          <g
             id="g8394"
             transform="translate(94.0986,87.0158)"
             style="fill:#2d2d2d;fill-opacity:1">
            <path
               inkscape:connector-curvature="0"
               id="path8392"
               style="fill:#2d2d2d;fill-opacity:1;fill-rule:nonzero;stroke:none"
               d="m 0,0 c 3.304,0 5.981,-2.678 5.981,-5.981 0,-3.303 -2.677,-5.981 -5.981,-5.981 -3.303,0 -5.981,2.678 -5.981,5.981 C -5.981,-2.678 -3.303,0 0,0" />
          </g>
        </g>
      </g>
    </g>
    <g
       transform="matrix(0.65673559,0,0,-0.65673559,14.408417,278.8577)"
       id="g8400"
       style="fill:#3700b3;fill-opacity:1">
      <path
         inkscape:connector-curvature="0"
         id="path8402"
         style="fill:#03dac5;fill-opacity:1;fill-rule:nonzero;stroke:none"
         d="M 0,0 C 1.976,1.204 2.575,3.962 1.282,5.902 -0.356,8.361 -3.219,8.72 -5.384,6.736 -7.483,4.812 -7.162,1.456 -4.738,-0.021 -3.386,-0.847 -1.374,-0.838 0,0 m -4.401,-4.611 c -1.715,0.438 -3.857,1.874 -4.766,3.194 -1.238,1.8 -1.546,2.824 -1.546,5.147 0,6.948 7.907,10.834 13.446,6.61 C 4.752,8.8 5.939,6.341 5.939,3.698 5.939,2.546 5.733,1.109 5.481,0.507 4.853,-0.998 2.808,-3.192 1.333,-3.944 -0.081,-4.666 -2.902,-4.993 -4.401,-4.611 m -12.988,-20.793 c -0.279,0.398 -0.508,0.884 -0.508,1.079 0,0.402 3.2,7.9 4.251,9.96 1.041,2.041 3.221,4.239 5.055,5.096 1.467,0.687 2.095,0.764 6.204,0.764 4.105,0 4.738,-0.077 6.204,-0.762 2.949,-1.376 4.535,-3.617 7.492,-10.588 1.686,-3.975 1.804,-4.412 1.416,-5.225 -0.326,-0.683 -0.692,-0.909 -1.592,-0.985 -0.673,-0.057 -1.316,0.082 -1.517,0.327 -0.193,0.233 -1.233,2.456 -2.313,4.939 -3.364,7.737 -4.117,8.386 -9.734,8.377 -5.623,-0.009 -6.443,-0.745 -9.914,-8.906 -0.932,-2.193 -1.93,-4.17 -2.217,-4.395 -0.836,-0.654 -2.257,-0.495 -2.827,0.319" />
    </g>
    <g
       transform="matrix(0.65673559,0,0,-0.65673559,41.438472,278.8577)"
       id="g8404"
       style="fill:#03dac5;fill-opacity:1">
      <path
         inkscape:connector-curvature="0"
         id="path8406"
         style="fill:#03dac5;fill-opacity:1;fill-rule:nonzero;stroke:none"
         d="M 0,0 C 1.976,1.204 2.575,3.962 1.282,5.902 -0.356,8.361 -3.219,8.72 -5.384,6.736 -7.482,4.812 -7.162,1.456 -4.738,-0.021 -3.385,-0.847 -1.373,-0.838 0,0 m -4.401,-4.611 c -1.715,0.438 -3.857,1.874 -4.766,3.194 -1.238,1.8 -1.546,2.824 -1.546,5.147 0,6.948 7.908,10.834 13.447,6.61 C 4.753,8.8 5.939,6.341 5.939,3.698 5.939,2.546 5.733,1.109 5.481,0.507 4.853,-0.998 2.808,-3.192 1.333,-3.944 -0.08,-4.666 -2.902,-4.993 -4.401,-4.611 m -12.987,-20.793 c -0.28,0.398 -0.508,0.884 -0.508,1.079 0,0.402 3.199,7.9 4.25,9.96 1.041,2.041 3.221,4.239 5.055,5.096 1.468,0.687 2.095,0.764 6.204,0.764 4.105,0 4.738,-0.077 6.204,-0.762 2.95,-1.376 4.535,-3.617 7.492,-10.588 1.686,-3.975 1.804,-4.412 1.417,-5.225 -0.327,-0.683 -0.693,-0.909 -1.592,-0.985 -0.674,-0.057 -1.317,0.082 -1.518,0.327 -0.193,0.233 -1.233,2.456 -2.313,4.939 -3.364,7.737 -4.116,8.386 -9.734,8.377 -5.623,-0.009 -6.442,-0.745 -9.914,-8.906 -0.932,-2.193 -1.93,-4.17 -2.217,-4.395 -0.836,-0.654 -2.257,-0.495 -2.826,0.319" />
    </g>
    <g
       transform="matrix(0.65673559,0,0,-0.65673559,27.923444,278.8577)"
       id="g8408"
       style="fill:#03dac5;fill-opacity:1">
      <path
         inkscape:connector-curvature="0"
         id="path8410"
         style="fill:#03dac5;fill-opacity:1;fill-rule:nonzero;stroke:none"
         d="M 0,0 C 1.976,1.204 2.575,3.962 1.282,5.902 -0.356,8.361 -3.219,8.72 -5.384,6.736 -7.483,4.812 -7.162,1.456 -4.738,-0.021 -3.385,-0.847 -1.373,-0.838 0,0 m -4.401,-4.611 c -1.715,0.438 -3.857,1.874 -4.766,3.194 -1.238,1.8 -1.546,2.824 -1.546,5.147 0,6.948 7.908,10.834 13.447,6.61 C 4.753,8.8 5.939,6.341 5.939,3.698 5.939,2.546 5.733,1.109 5.481,0.507 4.853,-0.998 2.808,-3.192 1.333,-3.944 -0.08,-4.666 -2.902,-4.993 -4.401,-4.611 m -12.988,-20.793 c -0.279,0.398 -0.508,0.884 -0.508,1.079 0,0.402 3.2,7.9 4.251,9.96 1.041,2.041 3.221,4.239 5.055,5.096 1.467,0.687 2.095,0.764 6.204,0.764 4.105,0 4.738,-0.077 6.204,-0.762 2.949,-1.376 4.535,-3.617 7.492,-10.588 1.686,-3.975 1.804,-4.412 1.417,-5.225 -0.327,-0.683 -0.693,-0.909 -1.592,-0.985 -0.674,-0.057 -1.317,0.082 -1.518,0.327 -0.193,0.233 -1.233,2.456 -2.313,4.939 -3.364,7.737 -4.117,8.386 -9.734,8.377 -5.623,-0.009 -6.443,-0.745 -9.914,-8.906 -0.932,-2.193 -1.93,-4.17 -2.217,-4.395 -0.836,-0.654 -2.257,-0.495 -2.827,0.319" />
    </g>
  </g>
</svg>
